%TF.GenerationSoftware,KiCad,Pcbnew,9.0.7*%
%TF.CreationDate,2026-03-05T00:04:08+02:00*%
%TF.ProjectId,PKE,504b452e-6b69-4636-9164-5f7063625858,rev?*%
%TF.SameCoordinates,Original*%
%TF.FileFunction,Soldermask,Top*%
%TF.FilePolarity,Negative*%
%FSLAX46Y46*%
G04 Gerber Fmt 4.6, Leading zero omitted, Abs format (unit mm)*
G04 Created by KiCad (PCBNEW 9.0.7) date 2026-03-05 00:04:08*
%MOMM*%
%LPD*%
G01*
G04 APERTURE LIST*
G04 Aperture macros list*
%AMRoundRect*
0 Rectangle with rounded corners*
0 $1 Rounding radius*
0 $2 $3 $4 $5 $6 $7 $8 $9 X,Y pos of 4 corners*
0 Add a 4 corners polygon primitive as box body*
4,1,4,$2,$3,$4,$5,$6,$7,$8,$9,$2,$3,0*
0 Add four circle primitives for the rounded corners*
1,1,$1+$1,$2,$3*
1,1,$1+$1,$4,$5*
1,1,$1+$1,$6,$7*
1,1,$1+$1,$8,$9*
0 Add four rect primitives between the rounded corners*
20,1,$1+$1,$2,$3,$4,$5,0*
20,1,$1+$1,$4,$5,$6,$7,0*
20,1,$1+$1,$6,$7,$8,$9,0*
20,1,$1+$1,$8,$9,$2,$3,0*%
G04 Aperture macros list end*
%ADD10C,0.100000*%
%ADD11C,2.600000*%
%ADD12C,3.200000*%
%ADD13RoundRect,0.250000X0.450000X-0.350000X0.450000X0.350000X-0.450000X0.350000X-0.450000X-0.350000X0*%
%ADD14RoundRect,0.250000X1.500000X0.900000X-1.500000X0.900000X-1.500000X-0.900000X1.500000X-0.900000X0*%
%ADD15C,2.100000*%
%ADD16RoundRect,0.225000X-0.225000X-0.375000X0.225000X-0.375000X0.225000X0.375000X-0.225000X0.375000X0*%
%ADD17RoundRect,0.250000X0.475000X-0.337500X0.475000X0.337500X-0.475000X0.337500X-0.475000X-0.337500X0*%
%ADD18R,1.800000X1.800000*%
%ADD19C,2.000000*%
%ADD20R,1.700000X1.700000*%
%ADD21C,1.700000*%
%ADD22RoundRect,0.250000X0.350000X0.450000X-0.350000X0.450000X-0.350000X-0.450000X0.350000X-0.450000X0*%
%ADD23RoundRect,0.225000X0.225000X0.375000X-0.225000X0.375000X-0.225000X-0.375000X0.225000X-0.375000X0*%
%ADD24RoundRect,0.250000X-0.350000X-0.450000X0.350000X-0.450000X0.350000X0.450000X-0.350000X0.450000X0*%
%ADD25RoundRect,0.150000X0.512500X0.150000X-0.512500X0.150000X-0.512500X-0.150000X0.512500X-0.150000X0*%
%ADD26RoundRect,0.250000X0.650000X-1.500000X0.650000X1.500000X-0.650000X1.500000X-0.650000X-1.500000X0*%
%ADD27RoundRect,0.250000X0.400000X1.450000X-0.400000X1.450000X-0.400000X-1.450000X0.400000X-1.450000X0*%
%ADD28RoundRect,0.250000X1.500000X0.650000X-1.500000X0.650000X-1.500000X-0.650000X1.500000X-0.650000X0*%
%ADD29RoundRect,0.250000X2.000000X-1.400000X2.000000X1.400000X-2.000000X1.400000X-2.000000X-1.400000X0*%
%ADD30RoundRect,0.250000X-0.337500X-0.475000X0.337500X-0.475000X0.337500X0.475000X-0.337500X0.475000X0*%
%ADD31RoundRect,0.250001X-1.099999X-1.599999X1.099999X-1.599999X1.099999X1.599999X-1.099999X1.599999X0*%
%ADD32O,2.700000X3.700000*%
%ADD33RoundRect,0.250000X0.337500X0.475000X-0.337500X0.475000X-0.337500X-0.475000X0.337500X-0.475000X0*%
%ADD34RoundRect,0.250000X1.450000X-0.400000X1.450000X0.400000X-1.450000X0.400000X-1.450000X-0.400000X0*%
%ADD35RoundRect,0.150000X0.150000X-0.512500X0.150000X0.512500X-0.150000X0.512500X-0.150000X-0.512500X0*%
%ADD36RoundRect,0.250000X0.550000X-0.550000X0.550000X0.550000X-0.550000X0.550000X-0.550000X-0.550000X0*%
%ADD37C,1.600000*%
G04 APERTURE END LIST*
D10*
X154380000Y-88740000D02*
X150860000Y-88740000D01*
X150280000Y-88210000D01*
X152120000Y-86520000D01*
X154380000Y-88740000D01*
G36*
X154380000Y-88740000D02*
G01*
X150860000Y-88740000D01*
X150280000Y-88210000D01*
X152120000Y-86520000D01*
X154380000Y-88740000D01*
G37*
D11*
X150755000Y-86920000D02*
X151200000Y-87370000D01*
X142950000Y-86940000D02*
X150750000Y-86920000D01*
D12*
%TO.C,H1*%
X101390000Y-76900000D03*
%TD*%
%TO.C,H2*%
X199390000Y-76900000D03*
%TD*%
%TO.C,H3*%
X101390000Y-134900000D03*
%TD*%
%TO.C,H4*%
X199390000Y-134900000D03*
%TD*%
D13*
%TO.C,R19*%
X125770000Y-138200000D03*
X125770000Y-136200000D03*
%TD*%
D14*
%TO.C,D1*%
X148900000Y-73190000D03*
X143500000Y-73190000D03*
%TD*%
D15*
%TO.C,K6*%
X130140000Y-100500000D03*
X135140000Y-103000000D03*
X140140000Y-100500000D03*
X130140000Y-90300000D03*
X140140000Y-90300000D03*
%TD*%
D16*
%TO.C,D6*%
X113600000Y-75775000D03*
X116900000Y-75775000D03*
%TD*%
D17*
%TO.C,C1*%
X167210000Y-64885000D03*
X167210000Y-62810000D03*
%TD*%
D18*
%TO.C,ESP32_S3_DevKitC_1*%
X183726000Y-137505500D03*
D19*
X183726000Y-134965500D03*
X183726000Y-132425500D03*
X183726000Y-129885500D03*
X183726000Y-127345500D03*
X183726000Y-124805500D03*
X183726000Y-122265500D03*
X183726000Y-119725500D03*
X183726000Y-117185500D03*
X183726000Y-114645500D03*
X183726000Y-112105500D03*
X183726000Y-109565500D03*
X183726000Y-107025500D03*
X183726000Y-104485500D03*
X183726000Y-101945500D03*
X183726000Y-99405500D03*
X183726000Y-96865500D03*
X183726000Y-94325500D03*
X183726000Y-91785500D03*
X183726000Y-89245500D03*
X183726000Y-86705500D03*
X183726000Y-84165500D03*
X160866000Y-137505500D03*
X160866000Y-134965500D03*
X160866000Y-132425500D03*
X160866000Y-129885500D03*
X160866000Y-127345500D03*
X160866000Y-124805500D03*
X160866000Y-122265500D03*
X160866000Y-119725500D03*
X160866000Y-117185500D03*
X160866000Y-114645500D03*
X160866000Y-112105500D03*
X160866000Y-109565500D03*
X160866000Y-107025500D03*
X160866000Y-104485500D03*
X160866000Y-101945500D03*
X160866000Y-99405500D03*
X160866000Y-96865500D03*
X160866000Y-94325500D03*
X160866000Y-91785500D03*
X160866000Y-89245500D03*
X160866000Y-86705500D03*
X160866000Y-84165500D03*
%TD*%
D20*
%TO.C,J_RST1*%
X191350000Y-134430000D03*
D21*
X188810000Y-134430000D03*
%TD*%
D22*
%TO.C,R3*%
X134530000Y-72480000D03*
X132530000Y-72480000D03*
%TD*%
D23*
%TO.C,D7*%
X122450000Y-75775000D03*
X119150000Y-75775000D03*
%TD*%
D24*
%TO.C,R5*%
X132530000Y-80930000D03*
X134530000Y-80930000D03*
%TD*%
D15*
%TO.C,K2*%
X115940000Y-126550000D03*
X120940000Y-129050000D03*
X125940000Y-126550000D03*
X115940000Y-116350000D03*
X125940000Y-116350000D03*
%TD*%
D25*
%TO.C,Q3*%
X119137500Y-138200000D03*
X119137500Y-136300000D03*
X116862500Y-137250000D03*
%TD*%
D26*
%TO.C,D4*%
X101630000Y-68305000D03*
X101630000Y-63305000D03*
%TD*%
D27*
%TO.C,F1*%
X174955000Y-62810000D03*
X170505000Y-62810000D03*
%TD*%
D22*
%TO.C,R16*%
X130670000Y-83065000D03*
X128670000Y-83065000D03*
%TD*%
D13*
%TO.C,R25*%
X188635000Y-105407500D03*
X188635000Y-103407500D03*
%TD*%
D25*
%TO.C,Q7*%
X132370000Y-112290000D03*
X132370000Y-110390000D03*
X130095000Y-111340000D03*
%TD*%
D13*
%TO.C,R28*%
X139010000Y-112290000D03*
X139010000Y-110290000D03*
%TD*%
D28*
%TO.C,D12*%
X196590000Y-125992500D03*
X191590000Y-125992500D03*
%TD*%
D29*
%TO.C,D2*%
X158410000Y-71815500D03*
X167210000Y-71815500D03*
%TD*%
D15*
%TO.C,K4*%
X189050000Y-119190000D03*
X194050000Y-121690000D03*
X199050000Y-119190000D03*
X189050000Y-108990000D03*
X199050000Y-108990000D03*
%TD*%
D30*
%TO.C,C7*%
X126275000Y-78470000D03*
X128350000Y-78470000D03*
%TD*%
D22*
%TO.C,R11*%
X115600000Y-82225000D03*
X113600000Y-82225000D03*
%TD*%
D31*
%TO.C,J1*%
X143500000Y-62500000D03*
D32*
X147700000Y-62500000D03*
X151900000Y-62500000D03*
X143500000Y-68000000D03*
X147700000Y-68000000D03*
X151900000Y-68000000D03*
%TD*%
D24*
%TO.C,R9*%
X112080000Y-72480000D03*
X114080000Y-72480000D03*
%TD*%
D13*
%TO.C,R26*%
X191930000Y-131090000D03*
X191930000Y-129090000D03*
%TD*%
D28*
%TO.C,D16*%
X109280000Y-107560000D03*
X104280000Y-107560000D03*
%TD*%
D30*
%TO.C,C3*%
X132455000Y-78470000D03*
X134530000Y-78470000D03*
%TD*%
D13*
%TO.C,R22*%
X122480000Y-138200000D03*
X122480000Y-136200000D03*
%TD*%
D15*
%TO.C,K8*%
X101740000Y-100500000D03*
X106740000Y-103000000D03*
X111740000Y-100500000D03*
X101740000Y-90300000D03*
X111740000Y-90300000D03*
%TD*%
D31*
%TO.C,J3*%
X184850000Y-62500000D03*
D32*
X189050000Y-62500000D03*
X193250000Y-62500000D03*
X184850000Y-68000000D03*
X189050000Y-68000000D03*
X193250000Y-68000000D03*
%TD*%
D22*
%TO.C,R7*%
X111422500Y-85320000D03*
X109422500Y-85320000D03*
%TD*%
D25*
%TO.C,Q8*%
X147467500Y-112290000D03*
X147467500Y-110390000D03*
X145192500Y-111340000D03*
%TD*%
D28*
%TO.C,D10*%
X123480000Y-133460000D03*
X118480000Y-133460000D03*
%TD*%
D25*
%TO.C,Q1*%
X140060000Y-74080000D03*
X140060000Y-72180000D03*
X137785000Y-73130000D03*
%TD*%
D33*
%TO.C,C5*%
X115675000Y-79100000D03*
X113600000Y-79100000D03*
%TD*%
D15*
%TO.C,K5*%
X189050000Y-93420000D03*
X194050000Y-95920000D03*
X199050000Y-93420000D03*
X189050000Y-83220000D03*
X199050000Y-83220000D03*
%TD*%
D13*
%TO.C,R23*%
X150817500Y-138200000D03*
X150817500Y-136200000D03*
%TD*%
D34*
%TO.C,F2*%
X153800000Y-76265500D03*
X153800000Y-71815500D03*
%TD*%
D20*
%TO.C,J_DCDC1*%
X179060000Y-63500000D03*
D21*
X179060000Y-66040000D03*
X179060000Y-68580000D03*
%TD*%
D15*
%TO.C,K1*%
X130140000Y-126550000D03*
X135140000Y-129050000D03*
X140140000Y-126550000D03*
X130140000Y-116350000D03*
X140140000Y-116350000D03*
%TD*%
D24*
%TO.C,R1*%
X142370000Y-76390000D03*
X144370000Y-76390000D03*
%TD*%
D13*
%TO.C,R27*%
X191930000Y-105407500D03*
X191930000Y-103407500D03*
%TD*%
%TO.C,R35*%
X122480000Y-112290000D03*
X122480000Y-110290000D03*
%TD*%
D24*
%TO.C,R12*%
X120450000Y-72480000D03*
X122450000Y-72480000D03*
%TD*%
D35*
%TO.C,Q5*%
X194350000Y-131090000D03*
X196250000Y-131090000D03*
X195300000Y-128815000D03*
%TD*%
D23*
%TO.C,D5*%
X109422500Y-75775000D03*
X106122500Y-75775000D03*
%TD*%
D13*
%TO.C,R29*%
X154107500Y-112290000D03*
X154107500Y-110290000D03*
%TD*%
D23*
%TO.C,D8*%
X128350000Y-75630000D03*
X125050000Y-75630000D03*
%TD*%
D24*
%TO.C,R8*%
X107422500Y-82225000D03*
X109422500Y-82225000D03*
%TD*%
D28*
%TO.C,D17*%
X123480000Y-107560000D03*
X118480000Y-107560000D03*
%TD*%
D25*
%TO.C,Q9*%
X104930000Y-112290000D03*
X104930000Y-110390000D03*
X102655000Y-111340000D03*
%TD*%
D13*
%TO.C,R24*%
X188635000Y-131090000D03*
X188635000Y-129090000D03*
%TD*%
%TO.C,R31*%
X150817500Y-112290000D03*
X150817500Y-110290000D03*
%TD*%
D28*
%TO.C,D15*%
X151817500Y-107560000D03*
X146817500Y-107560000D03*
%TD*%
D31*
%TO.C,J2*%
X107530000Y-62500000D03*
D32*
X111730000Y-62500000D03*
X115930000Y-62500000D03*
X120130000Y-62500000D03*
X124330000Y-62500000D03*
X128530000Y-62500000D03*
X132730000Y-62500000D03*
X136930000Y-62500000D03*
X107530000Y-68000000D03*
X111730000Y-68000000D03*
X115930000Y-68000000D03*
X120130000Y-68000000D03*
X124330000Y-68000000D03*
X128530000Y-68000000D03*
X132730000Y-68000000D03*
X136930000Y-68000000D03*
%TD*%
D30*
%TO.C,C6*%
X120375000Y-79100000D03*
X122450000Y-79100000D03*
%TD*%
D23*
%TO.C,D3*%
X134530000Y-75630000D03*
X131230000Y-75630000D03*
%TD*%
D15*
%TO.C,K9*%
X115940000Y-100500000D03*
X120940000Y-103000000D03*
X125940000Y-100500000D03*
X115940000Y-90300000D03*
X125940000Y-90300000D03*
%TD*%
D13*
%TO.C,R21*%
X136640000Y-138200000D03*
X136640000Y-136200000D03*
%TD*%
D28*
%TO.C,D11*%
X151817500Y-133460000D03*
X146817500Y-133460000D03*
%TD*%
D24*
%TO.C,R2*%
X138290000Y-80930000D03*
X140290000Y-80930000D03*
%TD*%
D22*
%TO.C,R13*%
X124440000Y-84950000D03*
X122440000Y-84950000D03*
%TD*%
D13*
%TO.C,R33*%
X125770000Y-112290000D03*
X125770000Y-110290000D03*
%TD*%
D25*
%TO.C,Q4*%
X147475000Y-138200000D03*
X147475000Y-136300000D03*
X145200000Y-137250000D03*
%TD*%
D13*
%TO.C,R32*%
X111570000Y-112290000D03*
X111570000Y-110290000D03*
%TD*%
D35*
%TO.C,Q6*%
X194650000Y-105407500D03*
X196550000Y-105407500D03*
X195600000Y-103132500D03*
%TD*%
D13*
%TO.C,R18*%
X139930000Y-138200000D03*
X139930000Y-136200000D03*
%TD*%
%TO.C,R20*%
X154107500Y-138200000D03*
X154107500Y-136200000D03*
%TD*%
D24*
%TO.C,R14*%
X120450000Y-82225000D03*
X122450000Y-82225000D03*
%TD*%
%TO.C,R15*%
X126350000Y-72480000D03*
X128350000Y-72480000D03*
%TD*%
D13*
%TO.C,R34*%
X108280000Y-112290000D03*
X108280000Y-110290000D03*
%TD*%
D28*
%TO.C,D13*%
X196590000Y-100310000D03*
X191590000Y-100310000D03*
%TD*%
D25*
%TO.C,Q10*%
X119130000Y-112290000D03*
X119130000Y-110390000D03*
X116855000Y-111340000D03*
%TD*%
D28*
%TO.C,D14*%
X137640000Y-107560000D03*
X132640000Y-107560000D03*
%TD*%
D24*
%TO.C,R6*%
X107422500Y-72480000D03*
X109422500Y-72480000D03*
%TD*%
D30*
%TO.C,C4*%
X107347500Y-79100000D03*
X109422500Y-79100000D03*
%TD*%
D15*
%TO.C,K7*%
X144340000Y-100500000D03*
X149340000Y-103000000D03*
X154340000Y-100500000D03*
X144340000Y-90300000D03*
X154340000Y-90300000D03*
%TD*%
%TO.C,K3*%
X144340000Y-126550000D03*
X149340000Y-129050000D03*
X154340000Y-126550000D03*
X144340000Y-116350000D03*
X154340000Y-116350000D03*
%TD*%
D22*
%TO.C,R4*%
X140060000Y-76390000D03*
X138060000Y-76390000D03*
%TD*%
D24*
%TO.C,R17*%
X126350000Y-80930000D03*
X128350000Y-80930000D03*
%TD*%
D13*
%TO.C,R30*%
X135630000Y-112290000D03*
X135630000Y-110290000D03*
%TD*%
D28*
%TO.C,D9*%
X137640000Y-133460000D03*
X132640000Y-133460000D03*
%TD*%
D22*
%TO.C,R10*%
X116650000Y-84660000D03*
X114650000Y-84660000D03*
%TD*%
D25*
%TO.C,Q2*%
X133297500Y-138200000D03*
X133297500Y-136300000D03*
X131022500Y-137250000D03*
%TD*%
D36*
%TO.C,C2*%
X160480000Y-62810000D03*
D37*
X160480000Y-59310000D03*
%TD*%
M02*
