M48
; DRILL file {KiCad 9.0.7} date 2026-03-05T00:05:14+0200
; FORMAT={-:-/ absolute / metric / decimal}
; #@! TF.CreationDate,2026-03-05T00:05:14+02:00
; #@! TF.GenerationSoftware,Kicad,Pcbnew,9.0.7
; #@! TF.FileFunction,Plated,1,2,PTH
FMAT,2
METRIC
; #@! TA.AperFunction,Plated,PTH,ViaDrill
T1C0.400
; #@! TA.AperFunction,Plated,PTH,ViaDrill
T2C0.500
; #@! TA.AperFunction,Plated,PTH,ViaDrill
T3C0.600
; #@! TA.AperFunction,Plated,PTH,ComponentDrill
T4C0.800
; #@! TA.AperFunction,Plated,PTH,ComponentDrill
T5C1.000
; #@! TA.AperFunction,Plated,PTH,ComponentDrill
T6C1.110
; #@! TA.AperFunction,Plated,PTH,ComponentDrill
T7C1.400
; #@! TA.AperFunction,Plated,PTH,ComponentDrill
T8C1.800
%
G90
G05
T1
X97.09Y-72.075
X97.09Y-76.875
X97.09Y-81.675
X97.09Y-96.075
X97.09Y-100.875
X97.09Y-105.675
X97.09Y-110.475
X97.09Y-115.275
X97.09Y-120.075
X97.09Y-124.875
X97.09Y-129.675
X97.09Y-134.475
X97.75Y-61.95
X97.75Y-63.2
X97.75Y-64.45
X97.75Y-67.2
X97.75Y-68.45
X97.75Y-69.7
X100.62Y-58.06
X101.89Y-120.075
X101.89Y-124.875
X101.89Y-129.675
X102.12Y-58.06
X102.5Y-72.86
X104.06Y-73.36
X104.52Y-64.77
X104.52Y-67.77
X104.93Y-74.9
X106.55Y-110.12
X106.55Y-111.18
X106.69Y-57.675
X106.69Y-105.675
X106.69Y-120.075
X106.69Y-124.875
X106.69Y-129.675
X106.69Y-134.475
X107.5Y-65.25
X108.75Y-58.0
X111.49Y-120.075
X111.49Y-124.875
X111.49Y-129.675
X111.49Y-134.475
X111.75Y-65.25
X112.0Y-58.0
X112.95Y-106.09
X113.44Y-65.3
X114.7Y-106.09
X115.0Y-65.25
X115.25Y-58.0
X115.74Y-114.28
X116.75Y-65.25
X117.36Y-82.23
X119.25Y-65.25
X120.76Y-136.09
X120.76Y-137.1
X120.81Y-110.39
X121.0Y-65.25
X121.09Y-96.075
X121.09Y-105.675
X123.49Y-65.28
X123.99Y-59.11
X124.13Y-136.1
X124.13Y-137.11
X124.45Y-118.475
X125.24Y-65.28
X125.49Y-59.11
X125.7Y-120.2
X125.89Y-96.075
X126.84Y-83.24
X127.63Y-65.33
X128.64Y-110.38
X128.82Y-136.2
X129.38Y-65.33
X130.65Y-60.625
X130.69Y-96.075
X130.92Y-79.56
X131.2Y-120.55
X132.675Y-118.725
X133.12Y-82.21
X133.325Y-126.6
X133.98Y-110.15
X134.85Y-60.525
X134.97Y-136.09
X134.97Y-137.1
X135.21Y-84.02
X135.49Y-96.075
X135.49Y-115.275
X136.23Y-75.95
X137.31Y-109.92
X137.69Y-78.62
X138.25Y-136.09
X138.25Y-137.1
X138.98Y-70.9
X139.25Y-60.75
X139.25Y-62.25
X139.74Y-78.58
X140.1Y-121.111
X140.21Y-60.93
X140.29Y-96.075
X140.31Y-62.34
X140.5Y-63.75
X140.54Y-70.9
X140.73Y-67.97
X141.03Y-109.1
X141.31Y-63.14
X141.35Y-61.65
X142.24Y-119.73
X142.25Y-122.27
X142.42Y-59.31
X143.15Y-136.15
X143.54Y-59.32
X144.48Y-84.32
X144.69Y-59.29
X145.09Y-96.075
X146.175Y-118.325
X146.27Y-74.78
X146.3Y-71.73
X147.225Y-121.025
X147.425Y-126.625
X147.6Y-79.08
X147.94Y-76.39
X149.16Y-110.17
X149.16Y-137.22
X149.52Y-79.16
X149.78Y-60.53
X149.89Y-115.275
X152.39Y-137.09
X152.51Y-110.1
X152.6Y-118.125
X152.83Y-58.05
X154.18Y-85.27
X154.648Y-103.602
X154.69Y-57.675
X154.69Y-96.075
X157.144Y-124.277
X157.15Y-136.61
X157.575Y-116.85
X157.675Y-134.75
X158.2Y-138.35
X158.725Y-136.475
X159.31Y-60.95
X160.43Y-60.96
X161.58Y-60.93
X162.55Y-84.14
X162.55Y-85.5
X162.58Y-88.28
X162.61Y-86.89
X164.29Y-57.675
X164.29Y-120.075
X164.29Y-124.875
X164.29Y-129.675
X164.59Y-69.26
X165.34Y-65.47
X165.47Y-64.38
X165.53Y-74.47
X165.6Y-69.26
X165.8Y-79.14
X167.2Y-74.5
X168.87Y-74.48
X168.88Y-66.49
X169.09Y-86.475
X169.09Y-91.275
X169.09Y-96.075
X169.09Y-100.875
X169.09Y-105.675
X169.09Y-110.475
X169.09Y-115.275
X169.09Y-124.875
X169.09Y-129.675
X169.25Y-58.0
X169.25Y-59.5
X170.59Y-72.58
X170.61Y-71.07
X170.975Y-69.0
X171.75Y-58.0
X171.75Y-59.5
X173.75Y-71.75
X173.75Y-73.25
X173.89Y-91.275
X173.89Y-96.075
X173.89Y-100.875
X173.89Y-105.675
X173.89Y-110.475
X173.89Y-115.275
X173.89Y-120.075
X173.89Y-129.675
X174.25Y-58.0
X174.25Y-59.5
X174.725Y-66.25
X174.725Y-67.75
X176.25Y-71.75
X176.25Y-73.25
X176.75Y-58.0
X176.75Y-59.5
X178.69Y-57.675
X178.69Y-96.075
X178.69Y-100.875
X178.69Y-105.675
X178.69Y-110.475
X178.69Y-115.275
X178.69Y-120.075
X178.69Y-124.875
X180.05Y-86.79
X181.25Y-71.75
X181.25Y-73.25
X181.88Y-81.98
X182.02Y-83.05
X182.95Y-82.26
X183.49Y-57.675
X183.49Y-76.875
X187.0Y-125.5
X187.0Y-127.0
X188.29Y-57.675
X188.5Y-125.5
X188.5Y-127.0
X188.75Y-100.0
X188.75Y-101.5
X190.35Y-102.64
X190.36Y-128.25
X190.63Y-132.62
X192.13Y-132.62
X193.09Y-57.675
X193.09Y-72.075
X193.09Y-81.675
X193.09Y-86.475
X193.09Y-110.475
X193.09Y-115.275
X193.09Y-134.475
X193.75Y-74.25
X193.75Y-75.75
X193.75Y-78.0
X193.75Y-79.5
X195.4Y-136.56
X195.4Y-138.06
X197.56Y-131.06
X197.89Y-57.675
X197.89Y-62.475
X197.89Y-91.275
X197.89Y-115.275
X198.0Y-70.5
X198.0Y-72.0
X198.15Y-105.62
X198.5Y-86.5
X198.5Y-88.0
X198.57Y-131.06
X199.65Y-105.62
X199.75Y-70.5
X199.75Y-72.0
X201.0Y-128.75
X201.0Y-130.25
X202.5Y-128.75
X202.5Y-130.25
X202.69Y-57.675
X202.69Y-62.475
X202.69Y-67.275
X202.69Y-86.475
X202.69Y-91.275
X202.69Y-120.075
X202.69Y-124.875
X202.69Y-134.475
T2
X150.74Y-76.28
T3
X142.06Y-86.9
T4
X160.48Y-59.31
X160.48Y-62.81
T5
X179.06Y-63.5
X179.06Y-66.04
X179.06Y-68.58
X188.81Y-134.43
X191.35Y-134.43
T6
X160.866Y-84.165
X160.866Y-86.706
X160.866Y-89.245
X160.866Y-91.785
X160.866Y-94.325
X160.866Y-96.865
X160.866Y-99.405
X160.866Y-101.945
X160.866Y-104.486
X160.866Y-107.025
X160.866Y-109.566
X160.866Y-112.105
X160.866Y-114.645
X160.866Y-117.185
X160.866Y-119.725
X160.866Y-122.265
X160.866Y-124.805
X160.866Y-127.346
X160.866Y-129.886
X160.866Y-132.425
X160.866Y-134.965
X160.866Y-137.505
X183.726Y-84.165
X183.726Y-86.706
X183.726Y-89.245
X183.726Y-91.785
X183.726Y-94.325
X183.726Y-96.865
X183.726Y-99.405
X183.726Y-101.945
X183.726Y-104.486
X183.726Y-107.025
X183.726Y-109.566
X183.726Y-112.105
X183.726Y-114.645
X183.726Y-117.185
X183.726Y-119.725
X183.726Y-122.265
X183.726Y-124.805
X183.726Y-127.346
X183.726Y-129.886
X183.726Y-132.425
X183.726Y-134.965
X183.726Y-137.505
T7
X101.74Y-90.3
X101.74Y-100.5
X106.74Y-103.0
X111.74Y-90.3
X111.74Y-100.5
X115.94Y-90.3
X115.94Y-100.5
X115.94Y-116.35
X115.94Y-126.55
X120.94Y-103.0
X120.94Y-129.05
X125.94Y-90.3
X125.94Y-100.5
X125.94Y-116.35
X125.94Y-126.55
X130.14Y-90.3
X130.14Y-100.5
X130.14Y-116.35
X130.14Y-126.55
X135.14Y-103.0
X135.14Y-129.05
X140.14Y-90.3
X140.14Y-100.5
X140.14Y-116.35
X140.14Y-126.55
X144.34Y-90.3
X144.34Y-100.5
X144.34Y-116.35
X144.34Y-126.55
X149.34Y-103.0
X149.34Y-129.05
X154.34Y-90.3
X154.34Y-100.5
X154.34Y-116.35
X154.34Y-126.55
X189.05Y-83.22
X189.05Y-93.42
X189.05Y-108.99
X189.05Y-119.19
X194.05Y-95.92
X194.05Y-121.69
X199.05Y-83.22
X199.05Y-93.42
X199.05Y-108.99
X199.05Y-119.19
T8
X107.53Y-62.5
X107.53Y-68.0
X111.73Y-62.5
X111.73Y-68.0
X115.93Y-62.5
X115.93Y-68.0
X120.13Y-62.5
X120.13Y-68.0
X124.33Y-62.5
X124.33Y-68.0
X128.53Y-62.5
X128.53Y-68.0
X132.73Y-62.5
X132.73Y-68.0
X136.93Y-62.5
X136.93Y-68.0
X143.5Y-62.5
X143.5Y-68.0
X147.7Y-62.5
X147.7Y-68.0
X151.9Y-62.5
X151.9Y-68.0
X184.85Y-62.5
X184.85Y-68.0
X189.05Y-62.5
X189.05Y-68.0
X193.25Y-62.5
X193.25Y-68.0
M30
