%TF.GenerationSoftware,KiCad,Pcbnew,9.0.7*%
%TF.CreationDate,2026-03-05T00:05:09+02:00*%
%TF.ProjectId,PKE,504b452e-6b69-4636-9164-5f7063625858,rev?*%
%TF.SameCoordinates,Original*%
%TF.FileFunction,Drillmap*%
%TF.FilePolarity,Positive*%
%FSLAX45Y45*%
G04 Gerber Fmt 4.5, Leading zero omitted, Abs format (unit mm)*
G04 Created by KiCad (PCBNEW 9.0.7) date 2026-03-05 00:05:09*
%MOMM*%
%LPD*%
G01*
G04 APERTURE LIST*
%ADD10C,0.050000*%
%ADD11C,0.200000*%
%ADD12C,0.320000*%
G04 APERTURE END LIST*
D10*
X9839000Y-13990000D02*
G75*
G02*
X9539000Y-13690000I0J300000D01*
G01*
X20539000Y-13690000D02*
G75*
G02*
X20239000Y-13990000I-300000J0D01*
G01*
X9539000Y-5890000D02*
G75*
G02*
X9839000Y-5590000I300000J0D01*
G01*
X20239000Y-13990000D02*
X9839000Y-13990000D01*
X9539000Y-13690000D02*
X9539000Y-5890000D01*
X20539000Y-5890000D02*
X20539000Y-13690000D01*
X9839000Y-5590000D02*
X20239000Y-5590000D01*
X20239000Y-5590000D02*
G75*
G02*
X20539000Y-5890000I0J-300000D01*
G01*
D11*
D12*
X9979000Y-7530000D02*
X10299000Y-7850000D01*
X10299000Y-7530000D02*
X9979000Y-7850000D01*
X9979000Y-13330000D02*
X10299000Y-13650000D01*
X10299000Y-13330000D02*
X9979000Y-13650000D01*
X19779000Y-7530000D02*
X20099000Y-7850000D01*
X20099000Y-7530000D02*
X19779000Y-7850000D01*
X19779000Y-13330000D02*
X20099000Y-13650000D01*
X20099000Y-13330000D02*
X19779000Y-13650000D01*
D11*
X9797277Y-14303984D02*
X9797277Y-14103984D01*
X9797277Y-14103984D02*
X9844896Y-14103984D01*
X9844896Y-14103984D02*
X9873467Y-14113508D01*
X9873467Y-14113508D02*
X9892515Y-14132555D01*
X9892515Y-14132555D02*
X9902039Y-14151603D01*
X9902039Y-14151603D02*
X9911563Y-14189698D01*
X9911563Y-14189698D02*
X9911563Y-14218269D01*
X9911563Y-14218269D02*
X9902039Y-14256365D01*
X9902039Y-14256365D02*
X9892515Y-14275412D01*
X9892515Y-14275412D02*
X9873467Y-14294460D01*
X9873467Y-14294460D02*
X9844896Y-14303984D01*
X9844896Y-14303984D02*
X9797277Y-14303984D01*
X9997277Y-14303984D02*
X9997277Y-14170650D01*
X9997277Y-14208746D02*
X10006801Y-14189698D01*
X10006801Y-14189698D02*
X10016324Y-14180174D01*
X10016324Y-14180174D02*
X10035372Y-14170650D01*
X10035372Y-14170650D02*
X10054420Y-14170650D01*
X10121086Y-14303984D02*
X10121086Y-14170650D01*
X10121086Y-14103984D02*
X10111563Y-14113508D01*
X10111563Y-14113508D02*
X10121086Y-14123031D01*
X10121086Y-14123031D02*
X10130610Y-14113508D01*
X10130610Y-14113508D02*
X10121086Y-14103984D01*
X10121086Y-14103984D02*
X10121086Y-14123031D01*
X10244896Y-14303984D02*
X10225848Y-14294460D01*
X10225848Y-14294460D02*
X10216324Y-14275412D01*
X10216324Y-14275412D02*
X10216324Y-14103984D01*
X10349658Y-14303984D02*
X10330610Y-14294460D01*
X10330610Y-14294460D02*
X10321086Y-14275412D01*
X10321086Y-14275412D02*
X10321086Y-14103984D01*
X10578229Y-14303984D02*
X10578229Y-14103984D01*
X10578229Y-14103984D02*
X10644896Y-14246841D01*
X10644896Y-14246841D02*
X10711563Y-14103984D01*
X10711563Y-14103984D02*
X10711563Y-14303984D01*
X10892515Y-14303984D02*
X10892515Y-14199222D01*
X10892515Y-14199222D02*
X10882991Y-14180174D01*
X10882991Y-14180174D02*
X10863944Y-14170650D01*
X10863944Y-14170650D02*
X10825848Y-14170650D01*
X10825848Y-14170650D02*
X10806801Y-14180174D01*
X10892515Y-14294460D02*
X10873467Y-14303984D01*
X10873467Y-14303984D02*
X10825848Y-14303984D01*
X10825848Y-14303984D02*
X10806801Y-14294460D01*
X10806801Y-14294460D02*
X10797277Y-14275412D01*
X10797277Y-14275412D02*
X10797277Y-14256365D01*
X10797277Y-14256365D02*
X10806801Y-14237317D01*
X10806801Y-14237317D02*
X10825848Y-14227793D01*
X10825848Y-14227793D02*
X10873467Y-14227793D01*
X10873467Y-14227793D02*
X10892515Y-14218269D01*
X10987753Y-14170650D02*
X10987753Y-14370650D01*
X10987753Y-14180174D02*
X11006801Y-14170650D01*
X11006801Y-14170650D02*
X11044896Y-14170650D01*
X11044896Y-14170650D02*
X11063944Y-14180174D01*
X11063944Y-14180174D02*
X11073467Y-14189698D01*
X11073467Y-14189698D02*
X11082991Y-14208746D01*
X11082991Y-14208746D02*
X11082991Y-14265888D01*
X11082991Y-14265888D02*
X11073467Y-14284936D01*
X11073467Y-14284936D02*
X11063944Y-14294460D01*
X11063944Y-14294460D02*
X11044896Y-14303984D01*
X11044896Y-14303984D02*
X11006801Y-14303984D01*
X11006801Y-14303984D02*
X10987753Y-14294460D01*
X11168705Y-14284936D02*
X11178229Y-14294460D01*
X11178229Y-14294460D02*
X11168705Y-14303984D01*
X11168705Y-14303984D02*
X11159182Y-14294460D01*
X11159182Y-14294460D02*
X11168705Y-14284936D01*
X11168705Y-14284936D02*
X11168705Y-14303984D01*
X11168705Y-14180174D02*
X11178229Y-14189698D01*
X11178229Y-14189698D02*
X11168705Y-14199222D01*
X11168705Y-14199222D02*
X11159182Y-14189698D01*
X11159182Y-14189698D02*
X11168705Y-14180174D01*
X11168705Y-14180174D02*
X11168705Y-14199222D01*
X9336500Y-14532500D02*
X9536500Y-14732500D01*
X9536500Y-14532500D02*
X9336500Y-14732500D01*
X9778229Y-14523984D02*
X9902039Y-14523984D01*
X9902039Y-14523984D02*
X9835372Y-14600174D01*
X9835372Y-14600174D02*
X9863944Y-14600174D01*
X9863944Y-14600174D02*
X9882991Y-14609698D01*
X9882991Y-14609698D02*
X9892515Y-14619222D01*
X9892515Y-14619222D02*
X9902039Y-14638269D01*
X9902039Y-14638269D02*
X9902039Y-14685888D01*
X9902039Y-14685888D02*
X9892515Y-14704936D01*
X9892515Y-14704936D02*
X9882991Y-14714460D01*
X9882991Y-14714460D02*
X9863944Y-14723984D01*
X9863944Y-14723984D02*
X9806801Y-14723984D01*
X9806801Y-14723984D02*
X9787753Y-14714460D01*
X9787753Y-14714460D02*
X9778229Y-14704936D01*
X9987753Y-14704936D02*
X9997277Y-14714460D01*
X9997277Y-14714460D02*
X9987753Y-14723984D01*
X9987753Y-14723984D02*
X9978229Y-14714460D01*
X9978229Y-14714460D02*
X9987753Y-14704936D01*
X9987753Y-14704936D02*
X9987753Y-14723984D01*
X10073467Y-14543031D02*
X10082991Y-14533508D01*
X10082991Y-14533508D02*
X10102039Y-14523984D01*
X10102039Y-14523984D02*
X10149658Y-14523984D01*
X10149658Y-14523984D02*
X10168705Y-14533508D01*
X10168705Y-14533508D02*
X10178229Y-14543031D01*
X10178229Y-14543031D02*
X10187753Y-14562079D01*
X10187753Y-14562079D02*
X10187753Y-14581127D01*
X10187753Y-14581127D02*
X10178229Y-14609698D01*
X10178229Y-14609698D02*
X10063944Y-14723984D01*
X10063944Y-14723984D02*
X10187753Y-14723984D01*
X10311563Y-14523984D02*
X10330610Y-14523984D01*
X10330610Y-14523984D02*
X10349658Y-14533508D01*
X10349658Y-14533508D02*
X10359182Y-14543031D01*
X10359182Y-14543031D02*
X10368705Y-14562079D01*
X10368705Y-14562079D02*
X10378229Y-14600174D01*
X10378229Y-14600174D02*
X10378229Y-14647793D01*
X10378229Y-14647793D02*
X10368705Y-14685888D01*
X10368705Y-14685888D02*
X10359182Y-14704936D01*
X10359182Y-14704936D02*
X10349658Y-14714460D01*
X10349658Y-14714460D02*
X10330610Y-14723984D01*
X10330610Y-14723984D02*
X10311563Y-14723984D01*
X10311563Y-14723984D02*
X10292515Y-14714460D01*
X10292515Y-14714460D02*
X10282991Y-14704936D01*
X10282991Y-14704936D02*
X10273467Y-14685888D01*
X10273467Y-14685888D02*
X10263944Y-14647793D01*
X10263944Y-14647793D02*
X10263944Y-14600174D01*
X10263944Y-14600174D02*
X10273467Y-14562079D01*
X10273467Y-14562079D02*
X10282991Y-14543031D01*
X10282991Y-14543031D02*
X10292515Y-14533508D01*
X10292515Y-14533508D02*
X10311563Y-14523984D01*
X10502039Y-14523984D02*
X10521086Y-14523984D01*
X10521086Y-14523984D02*
X10540134Y-14533508D01*
X10540134Y-14533508D02*
X10549658Y-14543031D01*
X10549658Y-14543031D02*
X10559182Y-14562079D01*
X10559182Y-14562079D02*
X10568705Y-14600174D01*
X10568705Y-14600174D02*
X10568705Y-14647793D01*
X10568705Y-14647793D02*
X10559182Y-14685888D01*
X10559182Y-14685888D02*
X10549658Y-14704936D01*
X10549658Y-14704936D02*
X10540134Y-14714460D01*
X10540134Y-14714460D02*
X10521086Y-14723984D01*
X10521086Y-14723984D02*
X10502039Y-14723984D01*
X10502039Y-14723984D02*
X10482991Y-14714460D01*
X10482991Y-14714460D02*
X10473467Y-14704936D01*
X10473467Y-14704936D02*
X10463944Y-14685888D01*
X10463944Y-14685888D02*
X10454420Y-14647793D01*
X10454420Y-14647793D02*
X10454420Y-14600174D01*
X10454420Y-14600174D02*
X10463944Y-14562079D01*
X10463944Y-14562079D02*
X10473467Y-14543031D01*
X10473467Y-14543031D02*
X10482991Y-14533508D01*
X10482991Y-14533508D02*
X10502039Y-14523984D01*
X10654420Y-14723984D02*
X10654420Y-14590650D01*
X10654420Y-14609698D02*
X10663944Y-14600174D01*
X10663944Y-14600174D02*
X10682991Y-14590650D01*
X10682991Y-14590650D02*
X10711563Y-14590650D01*
X10711563Y-14590650D02*
X10730610Y-14600174D01*
X10730610Y-14600174D02*
X10740134Y-14619222D01*
X10740134Y-14619222D02*
X10740134Y-14723984D01*
X10740134Y-14619222D02*
X10749658Y-14600174D01*
X10749658Y-14600174D02*
X10768705Y-14590650D01*
X10768705Y-14590650D02*
X10797277Y-14590650D01*
X10797277Y-14590650D02*
X10816325Y-14600174D01*
X10816325Y-14600174D02*
X10825848Y-14619222D01*
X10825848Y-14619222D02*
X10825848Y-14723984D01*
X10921086Y-14723984D02*
X10921086Y-14590650D01*
X10921086Y-14609698D02*
X10930610Y-14600174D01*
X10930610Y-14600174D02*
X10949658Y-14590650D01*
X10949658Y-14590650D02*
X10978229Y-14590650D01*
X10978229Y-14590650D02*
X10997277Y-14600174D01*
X10997277Y-14600174D02*
X11006801Y-14619222D01*
X11006801Y-14619222D02*
X11006801Y-14723984D01*
X11006801Y-14619222D02*
X11016325Y-14600174D01*
X11016325Y-14600174D02*
X11035372Y-14590650D01*
X11035372Y-14590650D02*
X11063944Y-14590650D01*
X11063944Y-14590650D02*
X11082991Y-14600174D01*
X11082991Y-14600174D02*
X11092515Y-14619222D01*
X11092515Y-14619222D02*
X11092515Y-14723984D01*
X11482991Y-14514460D02*
X11311563Y-14771603D01*
X11740134Y-14523984D02*
X11759182Y-14523984D01*
X11759182Y-14523984D02*
X11778229Y-14533508D01*
X11778229Y-14533508D02*
X11787753Y-14543031D01*
X11787753Y-14543031D02*
X11797277Y-14562079D01*
X11797277Y-14562079D02*
X11806801Y-14600174D01*
X11806801Y-14600174D02*
X11806801Y-14647793D01*
X11806801Y-14647793D02*
X11797277Y-14685888D01*
X11797277Y-14685888D02*
X11787753Y-14704936D01*
X11787753Y-14704936D02*
X11778229Y-14714460D01*
X11778229Y-14714460D02*
X11759182Y-14723984D01*
X11759182Y-14723984D02*
X11740134Y-14723984D01*
X11740134Y-14723984D02*
X11721086Y-14714460D01*
X11721086Y-14714460D02*
X11711563Y-14704936D01*
X11711563Y-14704936D02*
X11702039Y-14685888D01*
X11702039Y-14685888D02*
X11692515Y-14647793D01*
X11692515Y-14647793D02*
X11692515Y-14600174D01*
X11692515Y-14600174D02*
X11702039Y-14562079D01*
X11702039Y-14562079D02*
X11711563Y-14543031D01*
X11711563Y-14543031D02*
X11721086Y-14533508D01*
X11721086Y-14533508D02*
X11740134Y-14523984D01*
X11892515Y-14704936D02*
X11902039Y-14714460D01*
X11902039Y-14714460D02*
X11892515Y-14723984D01*
X11892515Y-14723984D02*
X11882991Y-14714460D01*
X11882991Y-14714460D02*
X11892515Y-14704936D01*
X11892515Y-14704936D02*
X11892515Y-14723984D01*
X12092515Y-14723984D02*
X11978229Y-14723984D01*
X12035372Y-14723984D02*
X12035372Y-14523984D01*
X12035372Y-14523984D02*
X12016325Y-14552555D01*
X12016325Y-14552555D02*
X11997277Y-14571603D01*
X11997277Y-14571603D02*
X11978229Y-14581127D01*
X12168706Y-14543031D02*
X12178229Y-14533508D01*
X12178229Y-14533508D02*
X12197277Y-14523984D01*
X12197277Y-14523984D02*
X12244896Y-14523984D01*
X12244896Y-14523984D02*
X12263944Y-14533508D01*
X12263944Y-14533508D02*
X12273467Y-14543031D01*
X12273467Y-14543031D02*
X12282991Y-14562079D01*
X12282991Y-14562079D02*
X12282991Y-14581127D01*
X12282991Y-14581127D02*
X12273467Y-14609698D01*
X12273467Y-14609698D02*
X12159182Y-14723984D01*
X12159182Y-14723984D02*
X12282991Y-14723984D01*
X12454420Y-14523984D02*
X12416325Y-14523984D01*
X12416325Y-14523984D02*
X12397277Y-14533508D01*
X12397277Y-14533508D02*
X12387753Y-14543031D01*
X12387753Y-14543031D02*
X12368706Y-14571603D01*
X12368706Y-14571603D02*
X12359182Y-14609698D01*
X12359182Y-14609698D02*
X12359182Y-14685888D01*
X12359182Y-14685888D02*
X12368706Y-14704936D01*
X12368706Y-14704936D02*
X12378229Y-14714460D01*
X12378229Y-14714460D02*
X12397277Y-14723984D01*
X12397277Y-14723984D02*
X12435372Y-14723984D01*
X12435372Y-14723984D02*
X12454420Y-14714460D01*
X12454420Y-14714460D02*
X12463944Y-14704936D01*
X12463944Y-14704936D02*
X12473467Y-14685888D01*
X12473467Y-14685888D02*
X12473467Y-14638269D01*
X12473467Y-14638269D02*
X12463944Y-14619222D01*
X12463944Y-14619222D02*
X12454420Y-14609698D01*
X12454420Y-14609698D02*
X12435372Y-14600174D01*
X12435372Y-14600174D02*
X12397277Y-14600174D01*
X12397277Y-14600174D02*
X12378229Y-14609698D01*
X12378229Y-14609698D02*
X12368706Y-14619222D01*
X12368706Y-14619222D02*
X12359182Y-14638269D01*
X12597277Y-14523984D02*
X12616325Y-14523984D01*
X12616325Y-14523984D02*
X12635372Y-14533508D01*
X12635372Y-14533508D02*
X12644896Y-14543031D01*
X12644896Y-14543031D02*
X12654420Y-14562079D01*
X12654420Y-14562079D02*
X12663944Y-14600174D01*
X12663944Y-14600174D02*
X12663944Y-14647793D01*
X12663944Y-14647793D02*
X12654420Y-14685888D01*
X12654420Y-14685888D02*
X12644896Y-14704936D01*
X12644896Y-14704936D02*
X12635372Y-14714460D01*
X12635372Y-14714460D02*
X12616325Y-14723984D01*
X12616325Y-14723984D02*
X12597277Y-14723984D01*
X12597277Y-14723984D02*
X12578229Y-14714460D01*
X12578229Y-14714460D02*
X12568706Y-14704936D01*
X12568706Y-14704936D02*
X12559182Y-14685888D01*
X12559182Y-14685888D02*
X12549658Y-14647793D01*
X12549658Y-14647793D02*
X12549658Y-14600174D01*
X12549658Y-14600174D02*
X12559182Y-14562079D01*
X12559182Y-14562079D02*
X12568706Y-14543031D01*
X12568706Y-14543031D02*
X12578229Y-14533508D01*
X12578229Y-14533508D02*
X12597277Y-14523984D01*
X12740134Y-14523984D02*
X12740134Y-14562079D01*
X12816325Y-14523984D02*
X12816325Y-14562079D01*
X13111563Y-14800174D02*
X13102039Y-14790650D01*
X13102039Y-14790650D02*
X13082991Y-14762079D01*
X13082991Y-14762079D02*
X13073468Y-14743031D01*
X13073468Y-14743031D02*
X13063944Y-14714460D01*
X13063944Y-14714460D02*
X13054420Y-14666841D01*
X13054420Y-14666841D02*
X13054420Y-14628746D01*
X13054420Y-14628746D02*
X13063944Y-14581127D01*
X13063944Y-14581127D02*
X13073468Y-14552555D01*
X13073468Y-14552555D02*
X13082991Y-14533508D01*
X13082991Y-14533508D02*
X13102039Y-14504936D01*
X13102039Y-14504936D02*
X13111563Y-14495412D01*
X13273468Y-14590650D02*
X13273468Y-14723984D01*
X13225848Y-14514460D02*
X13178229Y-14657317D01*
X13178229Y-14657317D02*
X13302039Y-14657317D01*
X13530610Y-14723984D02*
X13530610Y-14523984D01*
X13616325Y-14723984D02*
X13616325Y-14619222D01*
X13616325Y-14619222D02*
X13606801Y-14600174D01*
X13606801Y-14600174D02*
X13587753Y-14590650D01*
X13587753Y-14590650D02*
X13559182Y-14590650D01*
X13559182Y-14590650D02*
X13540134Y-14600174D01*
X13540134Y-14600174D02*
X13530610Y-14609698D01*
X13740134Y-14723984D02*
X13721087Y-14714460D01*
X13721087Y-14714460D02*
X13711563Y-14704936D01*
X13711563Y-14704936D02*
X13702039Y-14685888D01*
X13702039Y-14685888D02*
X13702039Y-14628746D01*
X13702039Y-14628746D02*
X13711563Y-14609698D01*
X13711563Y-14609698D02*
X13721087Y-14600174D01*
X13721087Y-14600174D02*
X13740134Y-14590650D01*
X13740134Y-14590650D02*
X13768706Y-14590650D01*
X13768706Y-14590650D02*
X13787753Y-14600174D01*
X13787753Y-14600174D02*
X13797277Y-14609698D01*
X13797277Y-14609698D02*
X13806801Y-14628746D01*
X13806801Y-14628746D02*
X13806801Y-14685888D01*
X13806801Y-14685888D02*
X13797277Y-14704936D01*
X13797277Y-14704936D02*
X13787753Y-14714460D01*
X13787753Y-14714460D02*
X13768706Y-14723984D01*
X13768706Y-14723984D02*
X13740134Y-14723984D01*
X13921087Y-14723984D02*
X13902039Y-14714460D01*
X13902039Y-14714460D02*
X13892515Y-14695412D01*
X13892515Y-14695412D02*
X13892515Y-14523984D01*
X14073468Y-14714460D02*
X14054420Y-14723984D01*
X14054420Y-14723984D02*
X14016325Y-14723984D01*
X14016325Y-14723984D02*
X13997277Y-14714460D01*
X13997277Y-14714460D02*
X13987753Y-14695412D01*
X13987753Y-14695412D02*
X13987753Y-14619222D01*
X13987753Y-14619222D02*
X13997277Y-14600174D01*
X13997277Y-14600174D02*
X14016325Y-14590650D01*
X14016325Y-14590650D02*
X14054420Y-14590650D01*
X14054420Y-14590650D02*
X14073468Y-14600174D01*
X14073468Y-14600174D02*
X14082991Y-14619222D01*
X14082991Y-14619222D02*
X14082991Y-14638269D01*
X14082991Y-14638269D02*
X13987753Y-14657317D01*
X14159182Y-14714460D02*
X14178230Y-14723984D01*
X14178230Y-14723984D02*
X14216325Y-14723984D01*
X14216325Y-14723984D02*
X14235372Y-14714460D01*
X14235372Y-14714460D02*
X14244896Y-14695412D01*
X14244896Y-14695412D02*
X14244896Y-14685888D01*
X14244896Y-14685888D02*
X14235372Y-14666841D01*
X14235372Y-14666841D02*
X14216325Y-14657317D01*
X14216325Y-14657317D02*
X14187753Y-14657317D01*
X14187753Y-14657317D02*
X14168706Y-14647793D01*
X14168706Y-14647793D02*
X14159182Y-14628746D01*
X14159182Y-14628746D02*
X14159182Y-14619222D01*
X14159182Y-14619222D02*
X14168706Y-14600174D01*
X14168706Y-14600174D02*
X14187753Y-14590650D01*
X14187753Y-14590650D02*
X14216325Y-14590650D01*
X14216325Y-14590650D02*
X14235372Y-14600174D01*
X14311563Y-14800174D02*
X14321087Y-14790650D01*
X14321087Y-14790650D02*
X14340134Y-14762079D01*
X14340134Y-14762079D02*
X14349658Y-14743031D01*
X14349658Y-14743031D02*
X14359182Y-14714460D01*
X14359182Y-14714460D02*
X14368706Y-14666841D01*
X14368706Y-14666841D02*
X14368706Y-14628746D01*
X14368706Y-14628746D02*
X14359182Y-14581127D01*
X14359182Y-14581127D02*
X14349658Y-14552555D01*
X14349658Y-14552555D02*
X14340134Y-14533508D01*
X14340134Y-14533508D02*
X14321087Y-14504936D01*
X14321087Y-14504936D02*
X14311563Y-14495412D01*
X14673468Y-14800174D02*
X14663944Y-14790650D01*
X14663944Y-14790650D02*
X14644896Y-14762079D01*
X14644896Y-14762079D02*
X14635372Y-14743031D01*
X14635372Y-14743031D02*
X14625849Y-14714460D01*
X14625849Y-14714460D02*
X14616325Y-14666841D01*
X14616325Y-14666841D02*
X14616325Y-14628746D01*
X14616325Y-14628746D02*
X14625849Y-14581127D01*
X14625849Y-14581127D02*
X14635372Y-14552555D01*
X14635372Y-14552555D02*
X14644896Y-14533508D01*
X14644896Y-14533508D02*
X14663944Y-14504936D01*
X14663944Y-14504936D02*
X14673468Y-14495412D01*
X14749658Y-14590650D02*
X14749658Y-14723984D01*
X14749658Y-14609698D02*
X14759182Y-14600174D01*
X14759182Y-14600174D02*
X14778230Y-14590650D01*
X14778230Y-14590650D02*
X14806801Y-14590650D01*
X14806801Y-14590650D02*
X14825849Y-14600174D01*
X14825849Y-14600174D02*
X14835372Y-14619222D01*
X14835372Y-14619222D02*
X14835372Y-14723984D01*
X14959182Y-14723984D02*
X14940134Y-14714460D01*
X14940134Y-14714460D02*
X14930611Y-14704936D01*
X14930611Y-14704936D02*
X14921087Y-14685888D01*
X14921087Y-14685888D02*
X14921087Y-14628746D01*
X14921087Y-14628746D02*
X14930611Y-14609698D01*
X14930611Y-14609698D02*
X14940134Y-14600174D01*
X14940134Y-14600174D02*
X14959182Y-14590650D01*
X14959182Y-14590650D02*
X14987753Y-14590650D01*
X14987753Y-14590650D02*
X15006801Y-14600174D01*
X15006801Y-14600174D02*
X15016325Y-14609698D01*
X15016325Y-14609698D02*
X15025849Y-14628746D01*
X15025849Y-14628746D02*
X15025849Y-14685888D01*
X15025849Y-14685888D02*
X15016325Y-14704936D01*
X15016325Y-14704936D02*
X15006801Y-14714460D01*
X15006801Y-14714460D02*
X14987753Y-14723984D01*
X14987753Y-14723984D02*
X14959182Y-14723984D01*
X15082992Y-14590650D02*
X15159182Y-14590650D01*
X15111563Y-14523984D02*
X15111563Y-14695412D01*
X15111563Y-14695412D02*
X15121087Y-14714460D01*
X15121087Y-14714460D02*
X15140134Y-14723984D01*
X15140134Y-14723984D02*
X15159182Y-14723984D01*
X15378230Y-14590650D02*
X15378230Y-14790650D01*
X15378230Y-14600174D02*
X15397277Y-14590650D01*
X15397277Y-14590650D02*
X15435373Y-14590650D01*
X15435373Y-14590650D02*
X15454420Y-14600174D01*
X15454420Y-14600174D02*
X15463944Y-14609698D01*
X15463944Y-14609698D02*
X15473468Y-14628746D01*
X15473468Y-14628746D02*
X15473468Y-14685888D01*
X15473468Y-14685888D02*
X15463944Y-14704936D01*
X15463944Y-14704936D02*
X15454420Y-14714460D01*
X15454420Y-14714460D02*
X15435373Y-14723984D01*
X15435373Y-14723984D02*
X15397277Y-14723984D01*
X15397277Y-14723984D02*
X15378230Y-14714460D01*
X15587753Y-14723984D02*
X15568706Y-14714460D01*
X15568706Y-14714460D02*
X15559182Y-14695412D01*
X15559182Y-14695412D02*
X15559182Y-14523984D01*
X15749658Y-14723984D02*
X15749658Y-14619222D01*
X15749658Y-14619222D02*
X15740134Y-14600174D01*
X15740134Y-14600174D02*
X15721087Y-14590650D01*
X15721087Y-14590650D02*
X15682992Y-14590650D01*
X15682992Y-14590650D02*
X15663944Y-14600174D01*
X15749658Y-14714460D02*
X15730611Y-14723984D01*
X15730611Y-14723984D02*
X15682992Y-14723984D01*
X15682992Y-14723984D02*
X15663944Y-14714460D01*
X15663944Y-14714460D02*
X15654420Y-14695412D01*
X15654420Y-14695412D02*
X15654420Y-14676365D01*
X15654420Y-14676365D02*
X15663944Y-14657317D01*
X15663944Y-14657317D02*
X15682992Y-14647793D01*
X15682992Y-14647793D02*
X15730611Y-14647793D01*
X15730611Y-14647793D02*
X15749658Y-14638269D01*
X15816325Y-14590650D02*
X15892515Y-14590650D01*
X15844896Y-14523984D02*
X15844896Y-14695412D01*
X15844896Y-14695412D02*
X15854420Y-14714460D01*
X15854420Y-14714460D02*
X15873468Y-14723984D01*
X15873468Y-14723984D02*
X15892515Y-14723984D01*
X16035373Y-14714460D02*
X16016325Y-14723984D01*
X16016325Y-14723984D02*
X15978230Y-14723984D01*
X15978230Y-14723984D02*
X15959182Y-14714460D01*
X15959182Y-14714460D02*
X15949658Y-14695412D01*
X15949658Y-14695412D02*
X15949658Y-14619222D01*
X15949658Y-14619222D02*
X15959182Y-14600174D01*
X15959182Y-14600174D02*
X15978230Y-14590650D01*
X15978230Y-14590650D02*
X16016325Y-14590650D01*
X16016325Y-14590650D02*
X16035373Y-14600174D01*
X16035373Y-14600174D02*
X16044896Y-14619222D01*
X16044896Y-14619222D02*
X16044896Y-14638269D01*
X16044896Y-14638269D02*
X15949658Y-14657317D01*
X16216325Y-14723984D02*
X16216325Y-14523984D01*
X16216325Y-14714460D02*
X16197277Y-14723984D01*
X16197277Y-14723984D02*
X16159182Y-14723984D01*
X16159182Y-14723984D02*
X16140134Y-14714460D01*
X16140134Y-14714460D02*
X16130611Y-14704936D01*
X16130611Y-14704936D02*
X16121087Y-14685888D01*
X16121087Y-14685888D02*
X16121087Y-14628746D01*
X16121087Y-14628746D02*
X16130611Y-14609698D01*
X16130611Y-14609698D02*
X16140134Y-14600174D01*
X16140134Y-14600174D02*
X16159182Y-14590650D01*
X16159182Y-14590650D02*
X16197277Y-14590650D01*
X16197277Y-14590650D02*
X16216325Y-14600174D01*
X16292515Y-14800174D02*
X16302039Y-14790650D01*
X16302039Y-14790650D02*
X16321087Y-14762079D01*
X16321087Y-14762079D02*
X16330611Y-14743031D01*
X16330611Y-14743031D02*
X16340134Y-14714460D01*
X16340134Y-14714460D02*
X16349658Y-14666841D01*
X16349658Y-14666841D02*
X16349658Y-14628746D01*
X16349658Y-14628746D02*
X16340134Y-14581127D01*
X16340134Y-14581127D02*
X16330611Y-14552555D01*
X16330611Y-14552555D02*
X16321087Y-14533508D01*
X16321087Y-14533508D02*
X16302039Y-14504936D01*
X16302039Y-14504936D02*
X16292515Y-14495412D01*
M02*
