%TF.GenerationSoftware,KiCad,Pcbnew,9.0.7*%
%TF.CreationDate,2026-03-05T00:04:08+02:00*%
%TF.ProjectId,PKE,504b452e-6b69-4636-9164-5f7063625858,rev?*%
%TF.SameCoordinates,Original*%
%TF.FileFunction,Soldermask,Bot*%
%TF.FilePolarity,Negative*%
%FSLAX46Y46*%
G04 Gerber Fmt 4.6, Leading zero omitted, Abs format (unit mm)*
G04 Created by KiCad (PCBNEW 9.0.7) date 2026-03-05 00:04:08*
%MOMM*%
%LPD*%
G01*
G04 APERTURE LIST*
G04 Aperture macros list*
%AMRoundRect*
0 Rectangle with rounded corners*
0 $1 Rounding radius*
0 $2 $3 $4 $5 $6 $7 $8 $9 X,Y pos of 4 corners*
0 Add a 4 corners polygon primitive as box body*
4,1,4,$2,$3,$4,$5,$6,$7,$8,$9,$2,$3,0*
0 Add four circle primitives for the rounded corners*
1,1,$1+$1,$2,$3*
1,1,$1+$1,$4,$5*
1,1,$1+$1,$6,$7*
1,1,$1+$1,$8,$9*
0 Add four rect primitives between the rounded corners*
20,1,$1+$1,$2,$3,$4,$5,0*
20,1,$1+$1,$4,$5,$6,$7,0*
20,1,$1+$1,$6,$7,$8,$9,0*
20,1,$1+$1,$8,$9,$2,$3,0*%
G04 Aperture macros list end*
%ADD10C,2.500000*%
%ADD11C,2.400000*%
%ADD12C,2.600000*%
%ADD13C,3.200000*%
%ADD14C,2.100000*%
%ADD15R,1.800000X1.800000*%
%ADD16C,2.000000*%
%ADD17R,1.700000X1.700000*%
%ADD18C,1.700000*%
%ADD19RoundRect,0.250001X-1.099999X-1.599999X1.099999X-1.599999X1.099999X1.599999X-1.099999X1.599999X0*%
%ADD20O,2.700000X3.700000*%
%ADD21RoundRect,0.250000X0.550000X-0.550000X0.550000X0.550000X-0.550000X0.550000X-0.550000X-0.550000X0*%
%ADD22C,1.600000*%
G04 APERTURE END LIST*
D10*
X106730625Y-100854944D02*
X106730625Y-102140000D01*
D11*
X97913060Y-91617500D02*
X97906939Y-86362500D01*
D12*
X148887540Y-84559346D02*
X148875000Y-102855000D01*
D10*
X107529428Y-76530000D02*
X97950000Y-86090000D01*
X120900000Y-101540000D02*
X120920000Y-102732500D01*
D12*
X147877500Y-104116250D02*
X136810000Y-104103750D01*
D10*
X132890000Y-77720000D02*
X142040000Y-86870000D01*
X106150000Y-89400000D02*
X106150000Y-92102847D01*
D12*
X143460000Y-79120000D02*
X148842500Y-84513750D01*
D10*
X117200000Y-97670000D02*
X111950000Y-97655000D01*
X115970000Y-67750000D02*
X115980000Y-79440000D01*
X120120000Y-86173265D02*
X116020000Y-90290000D01*
D12*
X136230000Y-130120000D02*
X135210000Y-129040000D01*
D10*
X128540000Y-67885000D02*
X128519584Y-81130000D01*
D12*
X143480000Y-67780000D02*
X143520000Y-79010000D01*
D10*
X124240000Y-88740000D02*
X125880000Y-90290000D01*
X114617529Y-93610000D02*
X111630000Y-90570000D01*
X137497500Y-90310000D02*
X139942500Y-90310000D01*
D12*
X148180000Y-130160000D02*
X136300000Y-130160000D01*
D10*
X125895000Y-90315000D02*
X122825000Y-93405000D01*
X128500000Y-81230000D02*
X137497500Y-90227500D01*
D11*
X101710000Y-88120000D02*
X101760000Y-90210000D01*
D10*
X124320000Y-67670000D02*
X124320000Y-88490000D01*
X106100000Y-92184132D02*
X111672268Y-97654346D01*
X107530625Y-67780000D02*
X107529428Y-76530000D01*
X122590000Y-93600000D02*
X115020000Y-93610000D01*
X106706177Y-100708708D02*
X98010000Y-91891292D01*
D12*
X135195000Y-103045000D02*
X136465000Y-104095000D01*
D10*
X120120000Y-67860000D02*
X120120000Y-86140000D01*
D12*
X133510000Y-130140000D02*
X122170000Y-130150000D01*
D10*
X111710000Y-67700000D02*
X111710000Y-78119990D01*
D12*
X120971367Y-129093750D02*
X121000000Y-113330000D01*
D10*
X132730000Y-67835000D02*
X132730000Y-77560000D01*
D12*
X122160000Y-130190000D02*
X120971367Y-129093750D01*
X135210000Y-129040000D02*
X134112044Y-130140000D01*
D10*
X115900000Y-79611632D02*
X106240000Y-89350000D01*
D12*
X130350000Y-104020000D02*
X121000000Y-113330000D01*
X149415000Y-129110000D02*
X148410000Y-130120000D01*
X148380000Y-104100000D02*
X149281437Y-102970000D01*
D10*
X111715000Y-78115000D02*
X101801277Y-88120000D01*
D12*
X133867500Y-104031250D02*
X130350000Y-104020000D01*
D10*
X117200000Y-97670000D02*
X120880151Y-101540000D01*
D13*
%TO.C,H1*%
X101390000Y-76900000D03*
%TD*%
%TO.C,H2*%
X199390000Y-76900000D03*
%TD*%
%TO.C,H3*%
X101390000Y-134900000D03*
%TD*%
%TO.C,H4*%
X199390000Y-134900000D03*
%TD*%
D14*
%TO.C,K6*%
X130140000Y-100500000D03*
X135140000Y-103000000D03*
X140140000Y-100500000D03*
X130140000Y-90300000D03*
X140140000Y-90300000D03*
%TD*%
D15*
%TO.C,ESP32_S3_DevKitC_1*%
X183726000Y-137505500D03*
D16*
X183726000Y-134965500D03*
X183726000Y-132425500D03*
X183726000Y-129885500D03*
X183726000Y-127345500D03*
X183726000Y-124805500D03*
X183726000Y-122265500D03*
X183726000Y-119725500D03*
X183726000Y-117185500D03*
X183726000Y-114645500D03*
X183726000Y-112105500D03*
X183726000Y-109565500D03*
X183726000Y-107025500D03*
X183726000Y-104485500D03*
X183726000Y-101945500D03*
X183726000Y-99405500D03*
X183726000Y-96865500D03*
X183726000Y-94325500D03*
X183726000Y-91785500D03*
X183726000Y-89245500D03*
X183726000Y-86705500D03*
X183726000Y-84165500D03*
X160866000Y-137505500D03*
X160866000Y-134965500D03*
X160866000Y-132425500D03*
X160866000Y-129885500D03*
X160866000Y-127345500D03*
X160866000Y-124805500D03*
X160866000Y-122265500D03*
X160866000Y-119725500D03*
X160866000Y-117185500D03*
X160866000Y-114645500D03*
X160866000Y-112105500D03*
X160866000Y-109565500D03*
X160866000Y-107025500D03*
X160866000Y-104485500D03*
X160866000Y-101945500D03*
X160866000Y-99405500D03*
X160866000Y-96865500D03*
X160866000Y-94325500D03*
X160866000Y-91785500D03*
X160866000Y-89245500D03*
X160866000Y-86705500D03*
X160866000Y-84165500D03*
%TD*%
D17*
%TO.C,J_RST1*%
X191350000Y-134430000D03*
D18*
X188810000Y-134430000D03*
%TD*%
D14*
%TO.C,K2*%
X115940000Y-126550000D03*
X120940000Y-129050000D03*
X125940000Y-126550000D03*
X115940000Y-116350000D03*
X125940000Y-116350000D03*
%TD*%
%TO.C,K4*%
X189050000Y-119190000D03*
X194050000Y-121690000D03*
X199050000Y-119190000D03*
X189050000Y-108990000D03*
X199050000Y-108990000D03*
%TD*%
D19*
%TO.C,J1*%
X143500000Y-62500000D03*
D20*
X147700000Y-62500000D03*
X151900000Y-62500000D03*
X143500000Y-68000000D03*
X147700000Y-68000000D03*
X151900000Y-68000000D03*
%TD*%
D14*
%TO.C,K8*%
X101740000Y-100500000D03*
X106740000Y-103000000D03*
X111740000Y-100500000D03*
X101740000Y-90300000D03*
X111740000Y-90300000D03*
%TD*%
D19*
%TO.C,J3*%
X184850000Y-62500000D03*
D20*
X189050000Y-62500000D03*
X193250000Y-62500000D03*
X184850000Y-68000000D03*
X189050000Y-68000000D03*
X193250000Y-68000000D03*
%TD*%
D14*
%TO.C,K5*%
X189050000Y-93420000D03*
X194050000Y-95920000D03*
X199050000Y-93420000D03*
X189050000Y-83220000D03*
X199050000Y-83220000D03*
%TD*%
D17*
%TO.C,J_DCDC1*%
X179060000Y-63500000D03*
D18*
X179060000Y-66040000D03*
X179060000Y-68580000D03*
%TD*%
D14*
%TO.C,K1*%
X130140000Y-126550000D03*
X135140000Y-129050000D03*
X140140000Y-126550000D03*
X130140000Y-116350000D03*
X140140000Y-116350000D03*
%TD*%
D19*
%TO.C,J2*%
X107530000Y-62500000D03*
D20*
X111730000Y-62500000D03*
X115930000Y-62500000D03*
X120130000Y-62500000D03*
X124330000Y-62500000D03*
X128530000Y-62500000D03*
X132730000Y-62500000D03*
X136930000Y-62500000D03*
X107530000Y-68000000D03*
X111730000Y-68000000D03*
X115930000Y-68000000D03*
X120130000Y-68000000D03*
X124330000Y-68000000D03*
X128530000Y-68000000D03*
X132730000Y-68000000D03*
X136930000Y-68000000D03*
%TD*%
D14*
%TO.C,K9*%
X115940000Y-100500000D03*
X120940000Y-103000000D03*
X125940000Y-100500000D03*
X115940000Y-90300000D03*
X125940000Y-90300000D03*
%TD*%
%TO.C,K7*%
X144340000Y-100500000D03*
X149340000Y-103000000D03*
X154340000Y-100500000D03*
X144340000Y-90300000D03*
X154340000Y-90300000D03*
%TD*%
%TO.C,K3*%
X144340000Y-126550000D03*
X149340000Y-129050000D03*
X154340000Y-126550000D03*
X144340000Y-116350000D03*
X154340000Y-116350000D03*
%TD*%
D21*
%TO.C,C2*%
X160480000Y-62810000D03*
D22*
X160480000Y-59310000D03*
%TD*%
M02*
