%TF.GenerationSoftware,KiCad,Pcbnew,9.0.7*%
%TF.CreationDate,2026-03-05T00:05:09+02:00*%
%TF.ProjectId,PKE,504b452e-6b69-4636-9164-5f7063625858,rev?*%
%TF.SameCoordinates,Original*%
%TF.FileFunction,Drillmap*%
%TF.FilePolarity,Positive*%
%FSLAX45Y45*%
G04 Gerber Fmt 4.5, Leading zero omitted, Abs format (unit mm)*
G04 Created by KiCad (PCBNEW 9.0.7) date 2026-03-05 00:05:09*
%MOMM*%
%LPD*%
G01*
G04 APERTURE LIST*
%ADD10C,0.050000*%
%ADD11C,0.200000*%
%ADD12C,0.100000*%
%ADD13C,0.111000*%
%ADD14C,0.140000*%
%ADD15C,0.180000*%
G04 APERTURE END LIST*
D10*
X9839000Y-13990000D02*
G75*
G02*
X9539000Y-13690000I0J300000D01*
G01*
X20539000Y-13690000D02*
G75*
G02*
X20239000Y-13990000I-300000J0D01*
G01*
X9539000Y-5890000D02*
G75*
G02*
X9839000Y-5590000I300000J0D01*
G01*
X20239000Y-13990000D02*
X9839000Y-13990000D01*
X9539000Y-13690000D02*
X9539000Y-5890000D01*
X20539000Y-5890000D02*
X20539000Y-13690000D01*
X9839000Y-5590000D02*
X20239000Y-5590000D01*
X20239000Y-5590000D02*
G75*
G02*
X20539000Y-5890000I0J-300000D01*
G01*
D11*
D12*
X9689000Y-7187500D02*
X9729000Y-7227500D01*
X9729000Y-7187500D02*
X9689000Y-7227500D01*
X9689000Y-7667500D02*
X9729000Y-7707500D01*
X9729000Y-7667500D02*
X9689000Y-7707500D01*
X9689000Y-8147500D02*
X9729000Y-8187500D01*
X9729000Y-8147500D02*
X9689000Y-8187500D01*
X9689000Y-9587500D02*
X9729000Y-9627500D01*
X9729000Y-9587500D02*
X9689000Y-9627500D01*
X9689000Y-10067500D02*
X9729000Y-10107500D01*
X9729000Y-10067500D02*
X9689000Y-10107500D01*
X9689000Y-10547500D02*
X9729000Y-10587500D01*
X9729000Y-10547500D02*
X9689000Y-10587500D01*
X9689000Y-11027500D02*
X9729000Y-11067500D01*
X9729000Y-11027500D02*
X9689000Y-11067500D01*
X9689000Y-11507500D02*
X9729000Y-11547500D01*
X9729000Y-11507500D02*
X9689000Y-11547500D01*
X9689000Y-11987500D02*
X9729000Y-12027500D01*
X9729000Y-11987500D02*
X9689000Y-12027500D01*
X9689000Y-12467500D02*
X9729000Y-12507500D01*
X9729000Y-12467500D02*
X9689000Y-12507500D01*
X9689000Y-12947500D02*
X9729000Y-12987500D01*
X9729000Y-12947500D02*
X9689000Y-12987500D01*
X9689000Y-13427500D02*
X9729000Y-13467500D01*
X9729000Y-13427500D02*
X9689000Y-13467500D01*
X9755000Y-6175000D02*
X9795000Y-6215000D01*
X9795000Y-6175000D02*
X9755000Y-6215000D01*
X9755000Y-6300000D02*
X9795000Y-6340000D01*
X9795000Y-6300000D02*
X9755000Y-6340000D01*
X9755000Y-6425000D02*
X9795000Y-6465000D01*
X9795000Y-6425000D02*
X9755000Y-6465000D01*
X9755000Y-6700000D02*
X9795000Y-6740000D01*
X9795000Y-6700000D02*
X9755000Y-6740000D01*
X9755000Y-6825000D02*
X9795000Y-6865000D01*
X9795000Y-6825000D02*
X9755000Y-6865000D01*
X9755000Y-6950000D02*
X9795000Y-6990000D01*
X9795000Y-6950000D02*
X9755000Y-6990000D01*
X10042000Y-5786000D02*
X10082000Y-5826000D01*
X10082000Y-5786000D02*
X10042000Y-5826000D01*
X10169000Y-11987500D02*
X10209000Y-12027500D01*
X10209000Y-11987500D02*
X10169000Y-12027500D01*
X10169000Y-12467500D02*
X10209000Y-12507500D01*
X10209000Y-12467500D02*
X10169000Y-12507500D01*
X10169000Y-12947500D02*
X10209000Y-12987500D01*
X10209000Y-12947500D02*
X10169000Y-12987500D01*
X10192000Y-5786000D02*
X10232000Y-5826000D01*
X10232000Y-5786000D02*
X10192000Y-5826000D01*
X10230000Y-7266000D02*
X10270000Y-7306000D01*
X10270000Y-7266000D02*
X10230000Y-7306000D01*
X10386000Y-7316000D02*
X10426000Y-7356000D01*
X10426000Y-7316000D02*
X10386000Y-7356000D01*
X10432000Y-6457000D02*
X10472000Y-6497000D01*
X10472000Y-6457000D02*
X10432000Y-6497000D01*
X10432000Y-6757000D02*
X10472000Y-6797000D01*
X10472000Y-6757000D02*
X10432000Y-6797000D01*
X10473000Y-7470000D02*
X10513000Y-7510000D01*
X10513000Y-7470000D02*
X10473000Y-7510000D01*
X10635000Y-10992000D02*
X10675000Y-11032000D01*
X10675000Y-10992000D02*
X10635000Y-11032000D01*
X10635000Y-11098000D02*
X10675000Y-11138000D01*
X10675000Y-11098000D02*
X10635000Y-11138000D01*
X10649000Y-5747500D02*
X10689000Y-5787500D01*
X10689000Y-5747500D02*
X10649000Y-5787500D01*
X10649000Y-10547500D02*
X10689000Y-10587500D01*
X10689000Y-10547500D02*
X10649000Y-10587500D01*
X10649000Y-11987500D02*
X10689000Y-12027500D01*
X10689000Y-11987500D02*
X10649000Y-12027500D01*
X10649000Y-12467500D02*
X10689000Y-12507500D01*
X10689000Y-12467500D02*
X10649000Y-12507500D01*
X10649000Y-12947500D02*
X10689000Y-12987500D01*
X10689000Y-12947500D02*
X10649000Y-12987500D01*
X10649000Y-13427500D02*
X10689000Y-13467500D01*
X10689000Y-13427500D02*
X10649000Y-13467500D01*
X10730000Y-6505000D02*
X10770000Y-6545000D01*
X10770000Y-6505000D02*
X10730000Y-6545000D01*
X10855000Y-5780000D02*
X10895000Y-5820000D01*
X10895000Y-5780000D02*
X10855000Y-5820000D01*
X11129000Y-11987500D02*
X11169000Y-12027500D01*
X11169000Y-11987500D02*
X11129000Y-12027500D01*
X11129000Y-12467500D02*
X11169000Y-12507500D01*
X11169000Y-12467500D02*
X11129000Y-12507500D01*
X11129000Y-12947500D02*
X11169000Y-12987500D01*
X11169000Y-12947500D02*
X11129000Y-12987500D01*
X11129000Y-13427500D02*
X11169000Y-13467500D01*
X11169000Y-13427500D02*
X11129000Y-13467500D01*
X11155000Y-6505000D02*
X11195000Y-6545000D01*
X11195000Y-6505000D02*
X11155000Y-6545000D01*
X11180000Y-5780000D02*
X11220000Y-5820000D01*
X11220000Y-5780000D02*
X11180000Y-5820000D01*
X11275000Y-10589000D02*
X11315000Y-10629000D01*
X11315000Y-10589000D02*
X11275000Y-10629000D01*
X11324000Y-6510000D02*
X11364000Y-6550000D01*
X11364000Y-6510000D02*
X11324000Y-6550000D01*
X11450000Y-10589000D02*
X11490000Y-10629000D01*
X11490000Y-10589000D02*
X11450000Y-10629000D01*
X11480000Y-6505000D02*
X11520000Y-6545000D01*
X11520000Y-6505000D02*
X11480000Y-6545000D01*
X11505000Y-5780000D02*
X11545000Y-5820000D01*
X11545000Y-5780000D02*
X11505000Y-5820000D01*
X11554000Y-11408000D02*
X11594000Y-11448000D01*
X11594000Y-11408000D02*
X11554000Y-11448000D01*
X11655000Y-6505000D02*
X11695000Y-6545000D01*
X11695000Y-6505000D02*
X11655000Y-6545000D01*
X11716000Y-8203000D02*
X11756000Y-8243000D01*
X11756000Y-8203000D02*
X11716000Y-8243000D01*
X11905000Y-6505000D02*
X11945000Y-6545000D01*
X11945000Y-6505000D02*
X11905000Y-6545000D01*
X12056000Y-13589000D02*
X12096000Y-13629000D01*
X12096000Y-13589000D02*
X12056000Y-13629000D01*
X12056000Y-13690000D02*
X12096000Y-13730000D01*
X12096000Y-13690000D02*
X12056000Y-13730000D01*
X12061000Y-11019000D02*
X12101000Y-11059000D01*
X12101000Y-11019000D02*
X12061000Y-11059000D01*
X12080000Y-6505000D02*
X12120000Y-6545000D01*
X12120000Y-6505000D02*
X12080000Y-6545000D01*
X12089000Y-9587500D02*
X12129000Y-9627500D01*
X12129000Y-9587500D02*
X12089000Y-9627500D01*
X12089000Y-10547500D02*
X12129000Y-10587500D01*
X12129000Y-10547500D02*
X12089000Y-10587500D01*
X12329000Y-6508000D02*
X12369000Y-6548000D01*
X12369000Y-6508000D02*
X12329000Y-6548000D01*
X12379000Y-5891000D02*
X12419000Y-5931000D01*
X12419000Y-5891000D02*
X12379000Y-5931000D01*
X12393000Y-13590000D02*
X12433000Y-13630000D01*
X12433000Y-13590000D02*
X12393000Y-13630000D01*
X12393000Y-13691000D02*
X12433000Y-13731000D01*
X12433000Y-13691000D02*
X12393000Y-13731000D01*
X12425000Y-11827500D02*
X12465000Y-11867500D01*
X12465000Y-11827500D02*
X12425000Y-11867500D01*
X12504000Y-6508000D02*
X12544000Y-6548000D01*
X12544000Y-6508000D02*
X12504000Y-6548000D01*
X12529000Y-5891000D02*
X12569000Y-5931000D01*
X12569000Y-5891000D02*
X12529000Y-5931000D01*
X12550000Y-12000000D02*
X12590000Y-12040000D01*
X12590000Y-12000000D02*
X12550000Y-12040000D01*
X12569000Y-9587500D02*
X12609000Y-9627500D01*
X12609000Y-9587500D02*
X12569000Y-9627500D01*
X12664000Y-8304000D02*
X12704000Y-8344000D01*
X12704000Y-8304000D02*
X12664000Y-8344000D01*
X12743000Y-6513000D02*
X12783000Y-6553000D01*
X12783000Y-6513000D02*
X12743000Y-6553000D01*
X12844000Y-11018000D02*
X12884000Y-11058000D01*
X12884000Y-11018000D02*
X12844000Y-11058000D01*
X12862000Y-13600000D02*
X12902000Y-13640000D01*
X12902000Y-13600000D02*
X12862000Y-13640000D01*
X12918000Y-6513000D02*
X12958000Y-6553000D01*
X12958000Y-6513000D02*
X12918000Y-6553000D01*
X13045000Y-6042500D02*
X13085000Y-6082500D01*
X13085000Y-6042500D02*
X13045000Y-6082500D01*
X13049000Y-9587500D02*
X13089000Y-9627500D01*
X13089000Y-9587500D02*
X13049000Y-9627500D01*
X13072000Y-7936000D02*
X13112000Y-7976000D01*
X13112000Y-7936000D02*
X13072000Y-7976000D01*
X13100000Y-12035000D02*
X13140000Y-12075000D01*
X13140000Y-12035000D02*
X13100000Y-12075000D01*
X13247500Y-11852500D02*
X13287500Y-11892500D01*
X13287500Y-11852500D02*
X13247500Y-11892500D01*
X13292000Y-8201000D02*
X13332000Y-8241000D01*
X13332000Y-8201000D02*
X13292000Y-8241000D01*
X13312500Y-12640000D02*
X13352500Y-12680000D01*
X13352500Y-12640000D02*
X13312500Y-12680000D01*
X13378000Y-10995000D02*
X13418000Y-11035000D01*
X13418000Y-10995000D02*
X13378000Y-11035000D01*
X13465000Y-6032500D02*
X13505000Y-6072500D01*
X13505000Y-6032500D02*
X13465000Y-6072500D01*
X13477000Y-13589000D02*
X13517000Y-13629000D01*
X13517000Y-13589000D02*
X13477000Y-13629000D01*
X13477000Y-13690000D02*
X13517000Y-13730000D01*
X13517000Y-13690000D02*
X13477000Y-13730000D01*
X13501000Y-8382000D02*
X13541000Y-8422000D01*
X13541000Y-8382000D02*
X13501000Y-8422000D01*
X13529000Y-9587500D02*
X13569000Y-9627500D01*
X13569000Y-9587500D02*
X13529000Y-9627500D01*
X13529000Y-11507500D02*
X13569000Y-11547500D01*
X13569000Y-11507500D02*
X13529000Y-11547500D01*
X13603000Y-7575000D02*
X13643000Y-7615000D01*
X13643000Y-7575000D02*
X13603000Y-7615000D01*
X13711000Y-10972000D02*
X13751000Y-11012000D01*
X13751000Y-10972000D02*
X13711000Y-11012000D01*
X13749000Y-7842000D02*
X13789000Y-7882000D01*
X13789000Y-7842000D02*
X13749000Y-7882000D01*
X13805000Y-13589000D02*
X13845000Y-13629000D01*
X13845000Y-13589000D02*
X13805000Y-13629000D01*
X13805000Y-13690000D02*
X13845000Y-13730000D01*
X13845000Y-13690000D02*
X13805000Y-13730000D01*
X13878000Y-7070000D02*
X13918000Y-7110000D01*
X13918000Y-7070000D02*
X13878000Y-7110000D01*
X13905000Y-6055000D02*
X13945000Y-6095000D01*
X13945000Y-6055000D02*
X13905000Y-6095000D01*
X13905000Y-6205000D02*
X13945000Y-6245000D01*
X13945000Y-6205000D02*
X13905000Y-6245000D01*
X13954000Y-7838000D02*
X13994000Y-7878000D01*
X13994000Y-7838000D02*
X13954000Y-7878000D01*
X13990013Y-12091126D02*
X14030013Y-12131126D01*
X14030013Y-12091126D02*
X13990013Y-12131126D01*
X14001000Y-6073000D02*
X14041000Y-6113000D01*
X14041000Y-6073000D02*
X14001000Y-6113000D01*
X14009000Y-9587500D02*
X14049000Y-9627500D01*
X14049000Y-9587500D02*
X14009000Y-9627500D01*
X14011000Y-6214000D02*
X14051000Y-6254000D01*
X14051000Y-6214000D02*
X14011000Y-6254000D01*
X14030000Y-6355000D02*
X14070000Y-6395000D01*
X14070000Y-6355000D02*
X14030000Y-6395000D01*
X14034000Y-7070000D02*
X14074000Y-7110000D01*
X14074000Y-7070000D02*
X14034000Y-7110000D01*
X14053000Y-6777000D02*
X14093000Y-6817000D01*
X14093000Y-6777000D02*
X14053000Y-6817000D01*
X14083000Y-10890000D02*
X14123000Y-10930000D01*
X14123000Y-10890000D02*
X14083000Y-10930000D01*
X14111000Y-6294000D02*
X14151000Y-6334000D01*
X14151000Y-6294000D02*
X14111000Y-6334000D01*
X14115000Y-6145000D02*
X14155000Y-6185000D01*
X14155000Y-6145000D02*
X14115000Y-6185000D01*
X14204000Y-11953000D02*
X14244000Y-11993000D01*
X14244000Y-11953000D02*
X14204000Y-11993000D01*
X14205000Y-12207000D02*
X14245000Y-12247000D01*
X14245000Y-12207000D02*
X14205000Y-12247000D01*
X14222000Y-5911000D02*
X14262000Y-5951000D01*
X14262000Y-5911000D02*
X14222000Y-5951000D01*
X14295000Y-13595000D02*
X14335000Y-13635000D01*
X14335000Y-13595000D02*
X14295000Y-13635000D01*
X14334000Y-5912000D02*
X14374000Y-5952000D01*
X14374000Y-5912000D02*
X14334000Y-5952000D01*
X14428000Y-8412000D02*
X14468000Y-8452000D01*
X14468000Y-8412000D02*
X14428000Y-8452000D01*
X14449000Y-5909000D02*
X14489000Y-5949000D01*
X14489000Y-5909000D02*
X14449000Y-5949000D01*
X14489000Y-9587500D02*
X14529000Y-9627500D01*
X14529000Y-9587500D02*
X14489000Y-9627500D01*
X14597500Y-11812500D02*
X14637500Y-11852500D01*
X14637500Y-11812500D02*
X14597500Y-11852500D01*
X14607000Y-7458000D02*
X14647000Y-7498000D01*
X14647000Y-7458000D02*
X14607000Y-7498000D01*
X14610000Y-7153000D02*
X14650000Y-7193000D01*
X14650000Y-7153000D02*
X14610000Y-7193000D01*
X14702500Y-12082500D02*
X14742500Y-12122500D01*
X14742500Y-12082500D02*
X14702500Y-12122500D01*
X14722500Y-12642500D02*
X14762500Y-12682500D01*
X14762500Y-12642500D02*
X14722500Y-12682500D01*
X14740000Y-7888000D02*
X14780000Y-7928000D01*
X14780000Y-7888000D02*
X14740000Y-7928000D01*
X14774000Y-7619000D02*
X14814000Y-7659000D01*
X14814000Y-7619000D02*
X14774000Y-7659000D01*
X14896000Y-10997000D02*
X14936000Y-11037000D01*
X14936000Y-10997000D02*
X14896000Y-11037000D01*
X14896000Y-13702000D02*
X14936000Y-13742000D01*
X14936000Y-13702000D02*
X14896000Y-13742000D01*
X14932000Y-7896000D02*
X14972000Y-7936000D01*
X14972000Y-7896000D02*
X14932000Y-7936000D01*
X14958000Y-6033000D02*
X14998000Y-6073000D01*
X14998000Y-6033000D02*
X14958000Y-6073000D01*
X14969000Y-11507500D02*
X15009000Y-11547500D01*
X15009000Y-11507500D02*
X14969000Y-11547500D01*
X15219000Y-13689000D02*
X15259000Y-13729000D01*
X15259000Y-13689000D02*
X15219000Y-13729000D01*
X15231000Y-10990000D02*
X15271000Y-11030000D01*
X15271000Y-10990000D02*
X15231000Y-11030000D01*
X15240000Y-11792500D02*
X15280000Y-11832500D01*
X15280000Y-11792500D02*
X15240000Y-11832500D01*
X15263000Y-5785000D02*
X15303000Y-5825000D01*
X15303000Y-5785000D02*
X15263000Y-5825000D01*
X15398000Y-8507000D02*
X15438000Y-8547000D01*
X15438000Y-8507000D02*
X15398000Y-8547000D01*
X15444850Y-10340150D02*
X15484850Y-10380150D01*
X15484850Y-10340150D02*
X15444850Y-10380150D01*
X15449000Y-5747500D02*
X15489000Y-5787500D01*
X15489000Y-5747500D02*
X15449000Y-5787500D01*
X15449000Y-9587500D02*
X15489000Y-9627500D01*
X15489000Y-9587500D02*
X15449000Y-9627500D01*
X15694442Y-12407725D02*
X15734442Y-12447725D01*
X15734442Y-12407725D02*
X15694442Y-12447725D01*
X15695000Y-13641000D02*
X15735000Y-13681000D01*
X15735000Y-13641000D02*
X15695000Y-13681000D01*
X15737500Y-11665000D02*
X15777500Y-11705000D01*
X15777500Y-11665000D02*
X15737500Y-11705000D01*
X15747500Y-13455000D02*
X15787500Y-13495000D01*
X15787500Y-13455000D02*
X15747500Y-13495000D01*
X15800000Y-13815000D02*
X15840000Y-13855000D01*
X15840000Y-13815000D02*
X15800000Y-13855000D01*
X15852500Y-13627500D02*
X15892500Y-13667500D01*
X15892500Y-13627500D02*
X15852500Y-13667500D01*
X15911000Y-6075000D02*
X15951000Y-6115000D01*
X15951000Y-6075000D02*
X15911000Y-6115000D01*
X16023000Y-6076000D02*
X16063000Y-6116000D01*
X16063000Y-6076000D02*
X16023000Y-6116000D01*
X16138000Y-6073000D02*
X16178000Y-6113000D01*
X16178000Y-6073000D02*
X16138000Y-6113000D01*
X16235000Y-8394000D02*
X16275000Y-8434000D01*
X16275000Y-8394000D02*
X16235000Y-8434000D01*
X16235000Y-8530000D02*
X16275000Y-8570000D01*
X16275000Y-8530000D02*
X16235000Y-8570000D01*
X16238000Y-8808000D02*
X16278000Y-8848000D01*
X16278000Y-8808000D02*
X16238000Y-8848000D01*
X16241000Y-8669000D02*
X16281000Y-8709000D01*
X16281000Y-8669000D02*
X16241000Y-8709000D01*
X16409000Y-5747500D02*
X16449000Y-5787500D01*
X16449000Y-5747500D02*
X16409000Y-5787500D01*
X16409000Y-11987500D02*
X16449000Y-12027500D01*
X16449000Y-11987500D02*
X16409000Y-12027500D01*
X16409000Y-12467500D02*
X16449000Y-12507500D01*
X16449000Y-12467500D02*
X16409000Y-12507500D01*
X16409000Y-12947500D02*
X16449000Y-12987500D01*
X16449000Y-12947500D02*
X16409000Y-12987500D01*
X16439000Y-6906000D02*
X16479000Y-6946000D01*
X16479000Y-6906000D02*
X16439000Y-6946000D01*
X16514000Y-6527000D02*
X16554000Y-6567000D01*
X16554000Y-6527000D02*
X16514000Y-6567000D01*
X16527000Y-6418000D02*
X16567000Y-6458000D01*
X16567000Y-6418000D02*
X16527000Y-6458000D01*
X16533000Y-7427000D02*
X16573000Y-7467000D01*
X16573000Y-7427000D02*
X16533000Y-7467000D01*
X16540000Y-6906000D02*
X16580000Y-6946000D01*
X16580000Y-6906000D02*
X16540000Y-6946000D01*
X16560000Y-7894000D02*
X16600000Y-7934000D01*
X16600000Y-7894000D02*
X16560000Y-7934000D01*
X16700000Y-7430000D02*
X16740000Y-7470000D01*
X16740000Y-7430000D02*
X16700000Y-7470000D01*
X16867000Y-7428000D02*
X16907000Y-7468000D01*
X16907000Y-7428000D02*
X16867000Y-7468000D01*
X16868000Y-6629000D02*
X16908000Y-6669000D01*
X16908000Y-6629000D02*
X16868000Y-6669000D01*
X16889000Y-8627500D02*
X16929000Y-8667500D01*
X16929000Y-8627500D02*
X16889000Y-8667500D01*
X16889000Y-9107500D02*
X16929000Y-9147500D01*
X16929000Y-9107500D02*
X16889000Y-9147500D01*
X16889000Y-9587500D02*
X16929000Y-9627500D01*
X16929000Y-9587500D02*
X16889000Y-9627500D01*
X16889000Y-10067500D02*
X16929000Y-10107500D01*
X16929000Y-10067500D02*
X16889000Y-10107500D01*
X16889000Y-10547500D02*
X16929000Y-10587500D01*
X16929000Y-10547500D02*
X16889000Y-10587500D01*
X16889000Y-11027500D02*
X16929000Y-11067500D01*
X16929000Y-11027500D02*
X16889000Y-11067500D01*
X16889000Y-11507500D02*
X16929000Y-11547500D01*
X16929000Y-11507500D02*
X16889000Y-11547500D01*
X16889000Y-12467500D02*
X16929000Y-12507500D01*
X16929000Y-12467500D02*
X16889000Y-12507500D01*
X16889000Y-12947500D02*
X16929000Y-12987500D01*
X16929000Y-12947500D02*
X16889000Y-12987500D01*
X16905000Y-5780000D02*
X16945000Y-5820000D01*
X16945000Y-5780000D02*
X16905000Y-5820000D01*
X16905000Y-5930000D02*
X16945000Y-5970000D01*
X16945000Y-5930000D02*
X16905000Y-5970000D01*
X17039000Y-7238000D02*
X17079000Y-7278000D01*
X17079000Y-7238000D02*
X17039000Y-7278000D01*
X17041000Y-7087000D02*
X17081000Y-7127000D01*
X17081000Y-7087000D02*
X17041000Y-7127000D01*
X17077500Y-6880000D02*
X17117500Y-6920000D01*
X17117500Y-6880000D02*
X17077500Y-6920000D01*
X17155000Y-5780000D02*
X17195000Y-5820000D01*
X17195000Y-5780000D02*
X17155000Y-5820000D01*
X17155000Y-5930000D02*
X17195000Y-5970000D01*
X17195000Y-5930000D02*
X17155000Y-5970000D01*
X17355000Y-7155000D02*
X17395000Y-7195000D01*
X17395000Y-7155000D02*
X17355000Y-7195000D01*
X17355000Y-7305000D02*
X17395000Y-7345000D01*
X17395000Y-7305000D02*
X17355000Y-7345000D01*
X17369000Y-9107500D02*
X17409000Y-9147500D01*
X17409000Y-9107500D02*
X17369000Y-9147500D01*
X17369000Y-9587500D02*
X17409000Y-9627500D01*
X17409000Y-9587500D02*
X17369000Y-9627500D01*
X17369000Y-10067500D02*
X17409000Y-10107500D01*
X17409000Y-10067500D02*
X17369000Y-10107500D01*
X17369000Y-10547500D02*
X17409000Y-10587500D01*
X17409000Y-10547500D02*
X17369000Y-10587500D01*
X17369000Y-11027500D02*
X17409000Y-11067500D01*
X17409000Y-11027500D02*
X17369000Y-11067500D01*
X17369000Y-11507500D02*
X17409000Y-11547500D01*
X17409000Y-11507500D02*
X17369000Y-11547500D01*
X17369000Y-11987500D02*
X17409000Y-12027500D01*
X17409000Y-11987500D02*
X17369000Y-12027500D01*
X17369000Y-12947500D02*
X17409000Y-12987500D01*
X17409000Y-12947500D02*
X17369000Y-12987500D01*
X17405000Y-5780000D02*
X17445000Y-5820000D01*
X17445000Y-5780000D02*
X17405000Y-5820000D01*
X17405000Y-5930000D02*
X17445000Y-5970000D01*
X17445000Y-5930000D02*
X17405000Y-5970000D01*
X17452500Y-6605000D02*
X17492500Y-6645000D01*
X17492500Y-6605000D02*
X17452500Y-6645000D01*
X17452500Y-6755000D02*
X17492500Y-6795000D01*
X17492500Y-6755000D02*
X17452500Y-6795000D01*
X17605000Y-7155000D02*
X17645000Y-7195000D01*
X17645000Y-7155000D02*
X17605000Y-7195000D01*
X17605000Y-7305000D02*
X17645000Y-7345000D01*
X17645000Y-7305000D02*
X17605000Y-7345000D01*
X17655000Y-5780000D02*
X17695000Y-5820000D01*
X17695000Y-5780000D02*
X17655000Y-5820000D01*
X17655000Y-5930000D02*
X17695000Y-5970000D01*
X17695000Y-5930000D02*
X17655000Y-5970000D01*
X17849000Y-5747500D02*
X17889000Y-5787500D01*
X17889000Y-5747500D02*
X17849000Y-5787500D01*
X17849000Y-9587500D02*
X17889000Y-9627500D01*
X17889000Y-9587500D02*
X17849000Y-9627500D01*
X17849000Y-10067500D02*
X17889000Y-10107500D01*
X17889000Y-10067500D02*
X17849000Y-10107500D01*
X17849000Y-10547500D02*
X17889000Y-10587500D01*
X17889000Y-10547500D02*
X17849000Y-10587500D01*
X17849000Y-11027500D02*
X17889000Y-11067500D01*
X17889000Y-11027500D02*
X17849000Y-11067500D01*
X17849000Y-11507500D02*
X17889000Y-11547500D01*
X17889000Y-11507500D02*
X17849000Y-11547500D01*
X17849000Y-11987500D02*
X17889000Y-12027500D01*
X17889000Y-11987500D02*
X17849000Y-12027500D01*
X17849000Y-12467500D02*
X17889000Y-12507500D01*
X17889000Y-12467500D02*
X17849000Y-12507500D01*
X17985000Y-8659000D02*
X18025000Y-8699000D01*
X18025000Y-8659000D02*
X17985000Y-8699000D01*
X18105000Y-7155000D02*
X18145000Y-7195000D01*
X18145000Y-7155000D02*
X18105000Y-7195000D01*
X18105000Y-7305000D02*
X18145000Y-7345000D01*
X18145000Y-7305000D02*
X18105000Y-7345000D01*
X18168000Y-8178000D02*
X18208000Y-8218000D01*
X18208000Y-8178000D02*
X18168000Y-8218000D01*
X18182000Y-8285000D02*
X18222000Y-8325000D01*
X18222000Y-8285000D02*
X18182000Y-8325000D01*
X18275000Y-8206000D02*
X18315000Y-8246000D01*
X18315000Y-8206000D02*
X18275000Y-8246000D01*
X18329000Y-5747500D02*
X18369000Y-5787500D01*
X18369000Y-5747500D02*
X18329000Y-5787500D01*
X18329000Y-7667500D02*
X18369000Y-7707500D01*
X18369000Y-7667500D02*
X18329000Y-7707500D01*
X18680000Y-12530000D02*
X18720000Y-12570000D01*
X18720000Y-12530000D02*
X18680000Y-12570000D01*
X18680000Y-12680000D02*
X18720000Y-12720000D01*
X18720000Y-12680000D02*
X18680000Y-12720000D01*
X18809000Y-5747500D02*
X18849000Y-5787500D01*
X18849000Y-5747500D02*
X18809000Y-5787500D01*
X18830000Y-12530000D02*
X18870000Y-12570000D01*
X18870000Y-12530000D02*
X18830000Y-12570000D01*
X18830000Y-12680000D02*
X18870000Y-12720000D01*
X18870000Y-12680000D02*
X18830000Y-12720000D01*
X18855000Y-9980000D02*
X18895000Y-10020000D01*
X18895000Y-9980000D02*
X18855000Y-10020000D01*
X18855000Y-10130000D02*
X18895000Y-10170000D01*
X18895000Y-10130000D02*
X18855000Y-10170000D01*
X19015000Y-10244000D02*
X19055000Y-10284000D01*
X19055000Y-10244000D02*
X19015000Y-10284000D01*
X19016000Y-12805000D02*
X19056000Y-12845000D01*
X19056000Y-12805000D02*
X19016000Y-12845000D01*
X19043000Y-13242000D02*
X19083000Y-13282000D01*
X19083000Y-13242000D02*
X19043000Y-13282000D01*
X19193000Y-13242000D02*
X19233000Y-13282000D01*
X19233000Y-13242000D02*
X19193000Y-13282000D01*
X19289000Y-5747500D02*
X19329000Y-5787500D01*
X19329000Y-5747500D02*
X19289000Y-5787500D01*
X19289000Y-7187500D02*
X19329000Y-7227500D01*
X19329000Y-7187500D02*
X19289000Y-7227500D01*
X19289000Y-8147500D02*
X19329000Y-8187500D01*
X19329000Y-8147500D02*
X19289000Y-8187500D01*
X19289000Y-8627500D02*
X19329000Y-8667500D01*
X19329000Y-8627500D02*
X19289000Y-8667500D01*
X19289000Y-11027500D02*
X19329000Y-11067500D01*
X19329000Y-11027500D02*
X19289000Y-11067500D01*
X19289000Y-11507500D02*
X19329000Y-11547500D01*
X19329000Y-11507500D02*
X19289000Y-11547500D01*
X19289000Y-13427500D02*
X19329000Y-13467500D01*
X19329000Y-13427500D02*
X19289000Y-13467500D01*
X19355000Y-7405000D02*
X19395000Y-7445000D01*
X19395000Y-7405000D02*
X19355000Y-7445000D01*
X19355000Y-7555000D02*
X19395000Y-7595000D01*
X19395000Y-7555000D02*
X19355000Y-7595000D01*
X19355000Y-7780000D02*
X19395000Y-7820000D01*
X19395000Y-7780000D02*
X19355000Y-7820000D01*
X19355000Y-7930000D02*
X19395000Y-7970000D01*
X19395000Y-7930000D02*
X19355000Y-7970000D01*
X19520000Y-13636000D02*
X19560000Y-13676000D01*
X19560000Y-13636000D02*
X19520000Y-13676000D01*
X19520000Y-13786000D02*
X19560000Y-13826000D01*
X19560000Y-13786000D02*
X19520000Y-13826000D01*
X19736000Y-13086000D02*
X19776000Y-13126000D01*
X19776000Y-13086000D02*
X19736000Y-13126000D01*
X19769000Y-5747500D02*
X19809000Y-5787500D01*
X19809000Y-5747500D02*
X19769000Y-5787500D01*
X19769000Y-6227500D02*
X19809000Y-6267500D01*
X19809000Y-6227500D02*
X19769000Y-6267500D01*
X19769000Y-9107500D02*
X19809000Y-9147500D01*
X19809000Y-9107500D02*
X19769000Y-9147500D01*
X19769000Y-11507500D02*
X19809000Y-11547500D01*
X19809000Y-11507500D02*
X19769000Y-11547500D01*
X19780000Y-7030000D02*
X19820000Y-7070000D01*
X19820000Y-7030000D02*
X19780000Y-7070000D01*
X19780000Y-7180000D02*
X19820000Y-7220000D01*
X19820000Y-7180000D02*
X19780000Y-7220000D01*
X19795000Y-10542000D02*
X19835000Y-10582000D01*
X19835000Y-10542000D02*
X19795000Y-10582000D01*
X19830000Y-8630000D02*
X19870000Y-8670000D01*
X19870000Y-8630000D02*
X19830000Y-8670000D01*
X19830000Y-8780000D02*
X19870000Y-8820000D01*
X19870000Y-8780000D02*
X19830000Y-8820000D01*
X19837000Y-13086000D02*
X19877000Y-13126000D01*
X19877000Y-13086000D02*
X19837000Y-13126000D01*
X19945000Y-10542000D02*
X19985000Y-10582000D01*
X19985000Y-10542000D02*
X19945000Y-10582000D01*
X19955000Y-7030000D02*
X19995000Y-7070000D01*
X19995000Y-7030000D02*
X19955000Y-7070000D01*
X19955000Y-7180000D02*
X19995000Y-7220000D01*
X19995000Y-7180000D02*
X19955000Y-7220000D01*
X20080000Y-12855000D02*
X20120000Y-12895000D01*
X20120000Y-12855000D02*
X20080000Y-12895000D01*
X20080000Y-13005000D02*
X20120000Y-13045000D01*
X20120000Y-13005000D02*
X20080000Y-13045000D01*
X20230000Y-12855000D02*
X20270000Y-12895000D01*
X20270000Y-12855000D02*
X20230000Y-12895000D01*
X20230000Y-13005000D02*
X20270000Y-13045000D01*
X20270000Y-13005000D02*
X20230000Y-13045000D01*
X20249000Y-5747500D02*
X20289000Y-5787500D01*
X20289000Y-5747500D02*
X20249000Y-5787500D01*
X20249000Y-6227500D02*
X20289000Y-6267500D01*
X20289000Y-6227500D02*
X20249000Y-6267500D01*
X20249000Y-6707500D02*
X20289000Y-6747500D01*
X20289000Y-6707500D02*
X20249000Y-6747500D01*
X20249000Y-8627500D02*
X20289000Y-8667500D01*
X20289000Y-8627500D02*
X20249000Y-8667500D01*
X20249000Y-9107500D02*
X20289000Y-9147500D01*
X20289000Y-9107500D02*
X20249000Y-9147500D01*
X20249000Y-11987500D02*
X20289000Y-12027500D01*
X20289000Y-11987500D02*
X20249000Y-12027500D01*
X20249000Y-12467500D02*
X20289000Y-12507500D01*
X20289000Y-12467500D02*
X20249000Y-12507500D01*
X20249000Y-13427500D02*
X20289000Y-13467500D01*
X20289000Y-13427500D02*
X20249000Y-13467500D01*
X15099000Y-7628000D02*
G75*
G02*
X15049000Y-7628000I-25000J0D01*
G01*
X15049000Y-7628000D02*
G75*
G02*
X15099000Y-7628000I25000J0D01*
G01*
X14206000Y-8660000D02*
X14206000Y-8720000D01*
X14176000Y-8690000D02*
X14236000Y-8690000D01*
X16076284Y-5959284D02*
X16076284Y-5902715D01*
X16019715Y-5902715D01*
X16019715Y-5959284D01*
X16076284Y-5959284D01*
X16076284Y-6309284D02*
X16076284Y-6252715D01*
X16019715Y-6252715D01*
X16019715Y-6309284D01*
X16076284Y-6309284D01*
X17906000Y-6400000D02*
X17956000Y-6350000D01*
X17906000Y-6300000D01*
X17856000Y-6350000D01*
X17906000Y-6400000D01*
X17906000Y-6654000D02*
X17956000Y-6604000D01*
X17906000Y-6554000D01*
X17856000Y-6604000D01*
X17906000Y-6654000D01*
X17906000Y-6908000D02*
X17956000Y-6858000D01*
X17906000Y-6808000D01*
X17856000Y-6858000D01*
X17906000Y-6908000D01*
X18881000Y-13493000D02*
X18931000Y-13443000D01*
X18881000Y-13393000D01*
X18831000Y-13443000D01*
X18881000Y-13493000D01*
X19135000Y-13493000D02*
X19185000Y-13443000D01*
X19135000Y-13393000D01*
X19085000Y-13443000D01*
X19135000Y-13493000D01*
D13*
X16031100Y-8361050D02*
X16142100Y-8472050D01*
X16142100Y-8361050D02*
X16031100Y-8472050D01*
X16142100Y-8416550D02*
G75*
G02*
X16031100Y-8416550I-55500J0D01*
G01*
X16031100Y-8416550D02*
G75*
G02*
X16142100Y-8416550I55500J0D01*
G01*
X16031100Y-8615050D02*
X16142100Y-8726050D01*
X16142100Y-8615050D02*
X16031100Y-8726050D01*
X16142100Y-8670550D02*
G75*
G02*
X16031100Y-8670550I-55500J0D01*
G01*
X16031100Y-8670550D02*
G75*
G02*
X16142100Y-8670550I55500J0D01*
G01*
X16031100Y-8869050D02*
X16142100Y-8980050D01*
X16142100Y-8869050D02*
X16031100Y-8980050D01*
X16142100Y-8924550D02*
G75*
G02*
X16031100Y-8924550I-55500J0D01*
G01*
X16031100Y-8924550D02*
G75*
G02*
X16142100Y-8924550I55500J0D01*
G01*
X16031100Y-9123050D02*
X16142100Y-9234050D01*
X16142100Y-9123050D02*
X16031100Y-9234050D01*
X16142100Y-9178550D02*
G75*
G02*
X16031100Y-9178550I-55500J0D01*
G01*
X16031100Y-9178550D02*
G75*
G02*
X16142100Y-9178550I55500J0D01*
G01*
X16031100Y-9377050D02*
X16142100Y-9488050D01*
X16142100Y-9377050D02*
X16031100Y-9488050D01*
X16142100Y-9432550D02*
G75*
G02*
X16031100Y-9432550I-55500J0D01*
G01*
X16031100Y-9432550D02*
G75*
G02*
X16142100Y-9432550I55500J0D01*
G01*
X16031100Y-9631050D02*
X16142100Y-9742050D01*
X16142100Y-9631050D02*
X16031100Y-9742050D01*
X16142100Y-9686550D02*
G75*
G02*
X16031100Y-9686550I-55500J0D01*
G01*
X16031100Y-9686550D02*
G75*
G02*
X16142100Y-9686550I55500J0D01*
G01*
X16031100Y-9885050D02*
X16142100Y-9996050D01*
X16142100Y-9885050D02*
X16031100Y-9996050D01*
X16142100Y-9940550D02*
G75*
G02*
X16031100Y-9940550I-55500J0D01*
G01*
X16031100Y-9940550D02*
G75*
G02*
X16142100Y-9940550I55500J0D01*
G01*
X16031100Y-10139050D02*
X16142100Y-10250050D01*
X16142100Y-10139050D02*
X16031100Y-10250050D01*
X16142100Y-10194550D02*
G75*
G02*
X16031100Y-10194550I-55500J0D01*
G01*
X16031100Y-10194550D02*
G75*
G02*
X16142100Y-10194550I55500J0D01*
G01*
X16031100Y-10393050D02*
X16142100Y-10504050D01*
X16142100Y-10393050D02*
X16031100Y-10504050D01*
X16142100Y-10448550D02*
G75*
G02*
X16031100Y-10448550I-55500J0D01*
G01*
X16031100Y-10448550D02*
G75*
G02*
X16142100Y-10448550I55500J0D01*
G01*
X16031100Y-10647050D02*
X16142100Y-10758050D01*
X16142100Y-10647050D02*
X16031100Y-10758050D01*
X16142100Y-10702550D02*
G75*
G02*
X16031100Y-10702550I-55500J0D01*
G01*
X16031100Y-10702550D02*
G75*
G02*
X16142100Y-10702550I55500J0D01*
G01*
X16031100Y-10901050D02*
X16142100Y-11012050D01*
X16142100Y-10901050D02*
X16031100Y-11012050D01*
X16142100Y-10956550D02*
G75*
G02*
X16031100Y-10956550I-55500J0D01*
G01*
X16031100Y-10956550D02*
G75*
G02*
X16142100Y-10956550I55500J0D01*
G01*
X16031100Y-11155050D02*
X16142100Y-11266050D01*
X16142100Y-11155050D02*
X16031100Y-11266050D01*
X16142100Y-11210550D02*
G75*
G02*
X16031100Y-11210550I-55500J0D01*
G01*
X16031100Y-11210550D02*
G75*
G02*
X16142100Y-11210550I55500J0D01*
G01*
X16031100Y-11409050D02*
X16142100Y-11520050D01*
X16142100Y-11409050D02*
X16031100Y-11520050D01*
X16142100Y-11464550D02*
G75*
G02*
X16031100Y-11464550I-55500J0D01*
G01*
X16031100Y-11464550D02*
G75*
G02*
X16142100Y-11464550I55500J0D01*
G01*
X16031100Y-11663050D02*
X16142100Y-11774050D01*
X16142100Y-11663050D02*
X16031100Y-11774050D01*
X16142100Y-11718550D02*
G75*
G02*
X16031100Y-11718550I-55500J0D01*
G01*
X16031100Y-11718550D02*
G75*
G02*
X16142100Y-11718550I55500J0D01*
G01*
X16031100Y-11917050D02*
X16142100Y-12028050D01*
X16142100Y-11917050D02*
X16031100Y-12028050D01*
X16142100Y-11972550D02*
G75*
G02*
X16031100Y-11972550I-55500J0D01*
G01*
X16031100Y-11972550D02*
G75*
G02*
X16142100Y-11972550I55500J0D01*
G01*
X16031100Y-12171050D02*
X16142100Y-12282050D01*
X16142100Y-12171050D02*
X16031100Y-12282050D01*
X16142100Y-12226550D02*
G75*
G02*
X16031100Y-12226550I-55500J0D01*
G01*
X16031100Y-12226550D02*
G75*
G02*
X16142100Y-12226550I55500J0D01*
G01*
X16031100Y-12425050D02*
X16142100Y-12536050D01*
X16142100Y-12425050D02*
X16031100Y-12536050D01*
X16142100Y-12480550D02*
G75*
G02*
X16031100Y-12480550I-55500J0D01*
G01*
X16031100Y-12480550D02*
G75*
G02*
X16142100Y-12480550I55500J0D01*
G01*
X16031100Y-12679050D02*
X16142100Y-12790050D01*
X16142100Y-12679050D02*
X16031100Y-12790050D01*
X16142100Y-12734550D02*
G75*
G02*
X16031100Y-12734550I-55500J0D01*
G01*
X16031100Y-12734550D02*
G75*
G02*
X16142100Y-12734550I55500J0D01*
G01*
X16031100Y-12933050D02*
X16142100Y-13044050D01*
X16142100Y-12933050D02*
X16031100Y-13044050D01*
X16142100Y-12988550D02*
G75*
G02*
X16031100Y-12988550I-55500J0D01*
G01*
X16031100Y-12988550D02*
G75*
G02*
X16142100Y-12988550I55500J0D01*
G01*
X16031100Y-13187050D02*
X16142100Y-13298050D01*
X16142100Y-13187050D02*
X16031100Y-13298050D01*
X16142100Y-13242550D02*
G75*
G02*
X16031100Y-13242550I-55500J0D01*
G01*
X16031100Y-13242550D02*
G75*
G02*
X16142100Y-13242550I55500J0D01*
G01*
X16031100Y-13441050D02*
X16142100Y-13552050D01*
X16142100Y-13441050D02*
X16031100Y-13552050D01*
X16142100Y-13496550D02*
G75*
G02*
X16031100Y-13496550I-55500J0D01*
G01*
X16031100Y-13496550D02*
G75*
G02*
X16142100Y-13496550I55500J0D01*
G01*
X16031100Y-13695050D02*
X16142100Y-13806050D01*
X16142100Y-13695050D02*
X16031100Y-13806050D01*
X16142100Y-13750550D02*
G75*
G02*
X16031100Y-13750550I-55500J0D01*
G01*
X16031100Y-13750550D02*
G75*
G02*
X16142100Y-13750550I55500J0D01*
G01*
X18317100Y-8361050D02*
X18428100Y-8472050D01*
X18428100Y-8361050D02*
X18317100Y-8472050D01*
X18428100Y-8416550D02*
G75*
G02*
X18317100Y-8416550I-55500J0D01*
G01*
X18317100Y-8416550D02*
G75*
G02*
X18428100Y-8416550I55500J0D01*
G01*
X18317100Y-8615050D02*
X18428100Y-8726050D01*
X18428100Y-8615050D02*
X18317100Y-8726050D01*
X18428100Y-8670550D02*
G75*
G02*
X18317100Y-8670550I-55500J0D01*
G01*
X18317100Y-8670550D02*
G75*
G02*
X18428100Y-8670550I55500J0D01*
G01*
X18317100Y-8869050D02*
X18428100Y-8980050D01*
X18428100Y-8869050D02*
X18317100Y-8980050D01*
X18428100Y-8924550D02*
G75*
G02*
X18317100Y-8924550I-55500J0D01*
G01*
X18317100Y-8924550D02*
G75*
G02*
X18428100Y-8924550I55500J0D01*
G01*
X18317100Y-9123050D02*
X18428100Y-9234050D01*
X18428100Y-9123050D02*
X18317100Y-9234050D01*
X18428100Y-9178550D02*
G75*
G02*
X18317100Y-9178550I-55500J0D01*
G01*
X18317100Y-9178550D02*
G75*
G02*
X18428100Y-9178550I55500J0D01*
G01*
X18317100Y-9377050D02*
X18428100Y-9488050D01*
X18428100Y-9377050D02*
X18317100Y-9488050D01*
X18428100Y-9432550D02*
G75*
G02*
X18317100Y-9432550I-55500J0D01*
G01*
X18317100Y-9432550D02*
G75*
G02*
X18428100Y-9432550I55500J0D01*
G01*
X18317100Y-9631050D02*
X18428100Y-9742050D01*
X18428100Y-9631050D02*
X18317100Y-9742050D01*
X18428100Y-9686550D02*
G75*
G02*
X18317100Y-9686550I-55500J0D01*
G01*
X18317100Y-9686550D02*
G75*
G02*
X18428100Y-9686550I55500J0D01*
G01*
X18317100Y-9885050D02*
X18428100Y-9996050D01*
X18428100Y-9885050D02*
X18317100Y-9996050D01*
X18428100Y-9940550D02*
G75*
G02*
X18317100Y-9940550I-55500J0D01*
G01*
X18317100Y-9940550D02*
G75*
G02*
X18428100Y-9940550I55500J0D01*
G01*
X18317100Y-10139050D02*
X18428100Y-10250050D01*
X18428100Y-10139050D02*
X18317100Y-10250050D01*
X18428100Y-10194550D02*
G75*
G02*
X18317100Y-10194550I-55500J0D01*
G01*
X18317100Y-10194550D02*
G75*
G02*
X18428100Y-10194550I55500J0D01*
G01*
X18317100Y-10393050D02*
X18428100Y-10504050D01*
X18428100Y-10393050D02*
X18317100Y-10504050D01*
X18428100Y-10448550D02*
G75*
G02*
X18317100Y-10448550I-55500J0D01*
G01*
X18317100Y-10448550D02*
G75*
G02*
X18428100Y-10448550I55500J0D01*
G01*
X18317100Y-10647050D02*
X18428100Y-10758050D01*
X18428100Y-10647050D02*
X18317100Y-10758050D01*
X18428100Y-10702550D02*
G75*
G02*
X18317100Y-10702550I-55500J0D01*
G01*
X18317100Y-10702550D02*
G75*
G02*
X18428100Y-10702550I55500J0D01*
G01*
X18317100Y-10901050D02*
X18428100Y-11012050D01*
X18428100Y-10901050D02*
X18317100Y-11012050D01*
X18428100Y-10956550D02*
G75*
G02*
X18317100Y-10956550I-55500J0D01*
G01*
X18317100Y-10956550D02*
G75*
G02*
X18428100Y-10956550I55500J0D01*
G01*
X18317100Y-11155050D02*
X18428100Y-11266050D01*
X18428100Y-11155050D02*
X18317100Y-11266050D01*
X18428100Y-11210550D02*
G75*
G02*
X18317100Y-11210550I-55500J0D01*
G01*
X18317100Y-11210550D02*
G75*
G02*
X18428100Y-11210550I55500J0D01*
G01*
X18317100Y-11409050D02*
X18428100Y-11520050D01*
X18428100Y-11409050D02*
X18317100Y-11520050D01*
X18428100Y-11464550D02*
G75*
G02*
X18317100Y-11464550I-55500J0D01*
G01*
X18317100Y-11464550D02*
G75*
G02*
X18428100Y-11464550I55500J0D01*
G01*
X18317100Y-11663050D02*
X18428100Y-11774050D01*
X18428100Y-11663050D02*
X18317100Y-11774050D01*
X18428100Y-11718550D02*
G75*
G02*
X18317100Y-11718550I-55500J0D01*
G01*
X18317100Y-11718550D02*
G75*
G02*
X18428100Y-11718550I55500J0D01*
G01*
X18317100Y-11917050D02*
X18428100Y-12028050D01*
X18428100Y-11917050D02*
X18317100Y-12028050D01*
X18428100Y-11972550D02*
G75*
G02*
X18317100Y-11972550I-55500J0D01*
G01*
X18317100Y-11972550D02*
G75*
G02*
X18428100Y-11972550I55500J0D01*
G01*
X18317100Y-12171050D02*
X18428100Y-12282050D01*
X18428100Y-12171050D02*
X18317100Y-12282050D01*
X18428100Y-12226550D02*
G75*
G02*
X18317100Y-12226550I-55500J0D01*
G01*
X18317100Y-12226550D02*
G75*
G02*
X18428100Y-12226550I55500J0D01*
G01*
X18317100Y-12425050D02*
X18428100Y-12536050D01*
X18428100Y-12425050D02*
X18317100Y-12536050D01*
X18428100Y-12480550D02*
G75*
G02*
X18317100Y-12480550I-55500J0D01*
G01*
X18317100Y-12480550D02*
G75*
G02*
X18428100Y-12480550I55500J0D01*
G01*
X18317100Y-12679050D02*
X18428100Y-12790050D01*
X18428100Y-12679050D02*
X18317100Y-12790050D01*
X18428100Y-12734550D02*
G75*
G02*
X18317100Y-12734550I-55500J0D01*
G01*
X18317100Y-12734550D02*
G75*
G02*
X18428100Y-12734550I55500J0D01*
G01*
X18317100Y-12933050D02*
X18428100Y-13044050D01*
X18428100Y-12933050D02*
X18317100Y-13044050D01*
X18428100Y-12988550D02*
G75*
G02*
X18317100Y-12988550I-55500J0D01*
G01*
X18317100Y-12988550D02*
G75*
G02*
X18428100Y-12988550I55500J0D01*
G01*
X18317100Y-13187050D02*
X18428100Y-13298050D01*
X18428100Y-13187050D02*
X18317100Y-13298050D01*
X18428100Y-13242550D02*
G75*
G02*
X18317100Y-13242550I-55500J0D01*
G01*
X18317100Y-13242550D02*
G75*
G02*
X18428100Y-13242550I55500J0D01*
G01*
X18317100Y-13441050D02*
X18428100Y-13552050D01*
X18428100Y-13441050D02*
X18317100Y-13552050D01*
X18428100Y-13496550D02*
G75*
G02*
X18317100Y-13496550I-55500J0D01*
G01*
X18317100Y-13496550D02*
G75*
G02*
X18428100Y-13496550I55500J0D01*
G01*
X18317100Y-13695050D02*
X18428100Y-13806050D01*
X18428100Y-13695050D02*
X18317100Y-13806050D01*
X18428100Y-13750550D02*
G75*
G02*
X18317100Y-13750550I-55500J0D01*
G01*
X18317100Y-13750550D02*
G75*
G02*
X18428100Y-13750550I55500J0D01*
G01*
D14*
X10104000Y-8960000D02*
X10244000Y-9100000D01*
X10244000Y-8960000D02*
X10104000Y-9100000D01*
X10174000Y-8960000D02*
X10174000Y-9100000D01*
X10104000Y-9030000D02*
X10244000Y-9030000D01*
X10104000Y-9980000D02*
X10244000Y-10120000D01*
X10244000Y-9980000D02*
X10104000Y-10120000D01*
X10174000Y-9980000D02*
X10174000Y-10120000D01*
X10104000Y-10050000D02*
X10244000Y-10050000D01*
X10604000Y-10230000D02*
X10744000Y-10370000D01*
X10744000Y-10230000D02*
X10604000Y-10370000D01*
X10674000Y-10230000D02*
X10674000Y-10370000D01*
X10604000Y-10300000D02*
X10744000Y-10300000D01*
X11104000Y-8960000D02*
X11244000Y-9100000D01*
X11244000Y-8960000D02*
X11104000Y-9100000D01*
X11174000Y-8960000D02*
X11174000Y-9100000D01*
X11104000Y-9030000D02*
X11244000Y-9030000D01*
X11104000Y-9980000D02*
X11244000Y-10120000D01*
X11244000Y-9980000D02*
X11104000Y-10120000D01*
X11174000Y-9980000D02*
X11174000Y-10120000D01*
X11104000Y-10050000D02*
X11244000Y-10050000D01*
X11524000Y-8960000D02*
X11664000Y-9100000D01*
X11664000Y-8960000D02*
X11524000Y-9100000D01*
X11594000Y-8960000D02*
X11594000Y-9100000D01*
X11524000Y-9030000D02*
X11664000Y-9030000D01*
X11524000Y-9980000D02*
X11664000Y-10120000D01*
X11664000Y-9980000D02*
X11524000Y-10120000D01*
X11594000Y-9980000D02*
X11594000Y-10120000D01*
X11524000Y-10050000D02*
X11664000Y-10050000D01*
X11524000Y-11565000D02*
X11664000Y-11705000D01*
X11664000Y-11565000D02*
X11524000Y-11705000D01*
X11594000Y-11565000D02*
X11594000Y-11705000D01*
X11524000Y-11635000D02*
X11664000Y-11635000D01*
X11524000Y-12585000D02*
X11664000Y-12725000D01*
X11664000Y-12585000D02*
X11524000Y-12725000D01*
X11594000Y-12585000D02*
X11594000Y-12725000D01*
X11524000Y-12655000D02*
X11664000Y-12655000D01*
X12024000Y-10230000D02*
X12164000Y-10370000D01*
X12164000Y-10230000D02*
X12024000Y-10370000D01*
X12094000Y-10230000D02*
X12094000Y-10370000D01*
X12024000Y-10300000D02*
X12164000Y-10300000D01*
X12024000Y-12835000D02*
X12164000Y-12975000D01*
X12164000Y-12835000D02*
X12024000Y-12975000D01*
X12094000Y-12835000D02*
X12094000Y-12975000D01*
X12024000Y-12905000D02*
X12164000Y-12905000D01*
X12524000Y-8960000D02*
X12664000Y-9100000D01*
X12664000Y-8960000D02*
X12524000Y-9100000D01*
X12594000Y-8960000D02*
X12594000Y-9100000D01*
X12524000Y-9030000D02*
X12664000Y-9030000D01*
X12524000Y-9980000D02*
X12664000Y-10120000D01*
X12664000Y-9980000D02*
X12524000Y-10120000D01*
X12594000Y-9980000D02*
X12594000Y-10120000D01*
X12524000Y-10050000D02*
X12664000Y-10050000D01*
X12524000Y-11565000D02*
X12664000Y-11705000D01*
X12664000Y-11565000D02*
X12524000Y-11705000D01*
X12594000Y-11565000D02*
X12594000Y-11705000D01*
X12524000Y-11635000D02*
X12664000Y-11635000D01*
X12524000Y-12585000D02*
X12664000Y-12725000D01*
X12664000Y-12585000D02*
X12524000Y-12725000D01*
X12594000Y-12585000D02*
X12594000Y-12725000D01*
X12524000Y-12655000D02*
X12664000Y-12655000D01*
X12944000Y-8960000D02*
X13084000Y-9100000D01*
X13084000Y-8960000D02*
X12944000Y-9100000D01*
X13014000Y-8960000D02*
X13014000Y-9100000D01*
X12944000Y-9030000D02*
X13084000Y-9030000D01*
X12944000Y-9980000D02*
X13084000Y-10120000D01*
X13084000Y-9980000D02*
X12944000Y-10120000D01*
X13014000Y-9980000D02*
X13014000Y-10120000D01*
X12944000Y-10050000D02*
X13084000Y-10050000D01*
X12944000Y-11565000D02*
X13084000Y-11705000D01*
X13084000Y-11565000D02*
X12944000Y-11705000D01*
X13014000Y-11565000D02*
X13014000Y-11705000D01*
X12944000Y-11635000D02*
X13084000Y-11635000D01*
X12944000Y-12585000D02*
X13084000Y-12725000D01*
X13084000Y-12585000D02*
X12944000Y-12725000D01*
X13014000Y-12585000D02*
X13014000Y-12725000D01*
X12944000Y-12655000D02*
X13084000Y-12655000D01*
X13444000Y-10230000D02*
X13584000Y-10370000D01*
X13584000Y-10230000D02*
X13444000Y-10370000D01*
X13514000Y-10230000D02*
X13514000Y-10370000D01*
X13444000Y-10300000D02*
X13584000Y-10300000D01*
X13444000Y-12835000D02*
X13584000Y-12975000D01*
X13584000Y-12835000D02*
X13444000Y-12975000D01*
X13514000Y-12835000D02*
X13514000Y-12975000D01*
X13444000Y-12905000D02*
X13584000Y-12905000D01*
X13944000Y-8960000D02*
X14084000Y-9100000D01*
X14084000Y-8960000D02*
X13944000Y-9100000D01*
X14014000Y-8960000D02*
X14014000Y-9100000D01*
X13944000Y-9030000D02*
X14084000Y-9030000D01*
X13944000Y-9980000D02*
X14084000Y-10120000D01*
X14084000Y-9980000D02*
X13944000Y-10120000D01*
X14014000Y-9980000D02*
X14014000Y-10120000D01*
X13944000Y-10050000D02*
X14084000Y-10050000D01*
X13944000Y-11565000D02*
X14084000Y-11705000D01*
X14084000Y-11565000D02*
X13944000Y-11705000D01*
X14014000Y-11565000D02*
X14014000Y-11705000D01*
X13944000Y-11635000D02*
X14084000Y-11635000D01*
X13944000Y-12585000D02*
X14084000Y-12725000D01*
X14084000Y-12585000D02*
X13944000Y-12725000D01*
X14014000Y-12585000D02*
X14014000Y-12725000D01*
X13944000Y-12655000D02*
X14084000Y-12655000D01*
X14364000Y-8960000D02*
X14504000Y-9100000D01*
X14504000Y-8960000D02*
X14364000Y-9100000D01*
X14434000Y-8960000D02*
X14434000Y-9100000D01*
X14364000Y-9030000D02*
X14504000Y-9030000D01*
X14364000Y-9980000D02*
X14504000Y-10120000D01*
X14504000Y-9980000D02*
X14364000Y-10120000D01*
X14434000Y-9980000D02*
X14434000Y-10120000D01*
X14364000Y-10050000D02*
X14504000Y-10050000D01*
X14364000Y-11565000D02*
X14504000Y-11705000D01*
X14504000Y-11565000D02*
X14364000Y-11705000D01*
X14434000Y-11565000D02*
X14434000Y-11705000D01*
X14364000Y-11635000D02*
X14504000Y-11635000D01*
X14364000Y-12585000D02*
X14504000Y-12725000D01*
X14504000Y-12585000D02*
X14364000Y-12725000D01*
X14434000Y-12585000D02*
X14434000Y-12725000D01*
X14364000Y-12655000D02*
X14504000Y-12655000D01*
X14864000Y-10230000D02*
X15004000Y-10370000D01*
X15004000Y-10230000D02*
X14864000Y-10370000D01*
X14934000Y-10230000D02*
X14934000Y-10370000D01*
X14864000Y-10300000D02*
X15004000Y-10300000D01*
X14864000Y-12835000D02*
X15004000Y-12975000D01*
X15004000Y-12835000D02*
X14864000Y-12975000D01*
X14934000Y-12835000D02*
X14934000Y-12975000D01*
X14864000Y-12905000D02*
X15004000Y-12905000D01*
X15364000Y-8960000D02*
X15504000Y-9100000D01*
X15504000Y-8960000D02*
X15364000Y-9100000D01*
X15434000Y-8960000D02*
X15434000Y-9100000D01*
X15364000Y-9030000D02*
X15504000Y-9030000D01*
X15364000Y-9980000D02*
X15504000Y-10120000D01*
X15504000Y-9980000D02*
X15364000Y-10120000D01*
X15434000Y-9980000D02*
X15434000Y-10120000D01*
X15364000Y-10050000D02*
X15504000Y-10050000D01*
X15364000Y-11565000D02*
X15504000Y-11705000D01*
X15504000Y-11565000D02*
X15364000Y-11705000D01*
X15434000Y-11565000D02*
X15434000Y-11705000D01*
X15364000Y-11635000D02*
X15504000Y-11635000D01*
X15364000Y-12585000D02*
X15504000Y-12725000D01*
X15504000Y-12585000D02*
X15364000Y-12725000D01*
X15434000Y-12585000D02*
X15434000Y-12725000D01*
X15364000Y-12655000D02*
X15504000Y-12655000D01*
X18835000Y-8252000D02*
X18975000Y-8392000D01*
X18975000Y-8252000D02*
X18835000Y-8392000D01*
X18905000Y-8252000D02*
X18905000Y-8392000D01*
X18835000Y-8322000D02*
X18975000Y-8322000D01*
X18835000Y-9272000D02*
X18975000Y-9412000D01*
X18975000Y-9272000D02*
X18835000Y-9412000D01*
X18905000Y-9272000D02*
X18905000Y-9412000D01*
X18835000Y-9342000D02*
X18975000Y-9342000D01*
X18835000Y-10829000D02*
X18975000Y-10969000D01*
X18975000Y-10829000D02*
X18835000Y-10969000D01*
X18905000Y-10829000D02*
X18905000Y-10969000D01*
X18835000Y-10899000D02*
X18975000Y-10899000D01*
X18835000Y-11849000D02*
X18975000Y-11989000D01*
X18975000Y-11849000D02*
X18835000Y-11989000D01*
X18905000Y-11849000D02*
X18905000Y-11989000D01*
X18835000Y-11919000D02*
X18975000Y-11919000D01*
X19335000Y-9522000D02*
X19475000Y-9662000D01*
X19475000Y-9522000D02*
X19335000Y-9662000D01*
X19405000Y-9522000D02*
X19405000Y-9662000D01*
X19335000Y-9592000D02*
X19475000Y-9592000D01*
X19335000Y-12099000D02*
X19475000Y-12239000D01*
X19475000Y-12099000D02*
X19335000Y-12239000D01*
X19405000Y-12099000D02*
X19405000Y-12239000D01*
X19335000Y-12169000D02*
X19475000Y-12169000D01*
X19835000Y-8252000D02*
X19975000Y-8392000D01*
X19975000Y-8252000D02*
X19835000Y-8392000D01*
X19905000Y-8252000D02*
X19905000Y-8392000D01*
X19835000Y-8322000D02*
X19975000Y-8322000D01*
X19835000Y-9272000D02*
X19975000Y-9412000D01*
X19975000Y-9272000D02*
X19835000Y-9412000D01*
X19905000Y-9272000D02*
X19905000Y-9412000D01*
X19835000Y-9342000D02*
X19975000Y-9342000D01*
X19835000Y-10829000D02*
X19975000Y-10969000D01*
X19975000Y-10829000D02*
X19835000Y-10969000D01*
X19905000Y-10829000D02*
X19905000Y-10969000D01*
X19835000Y-10899000D02*
X19975000Y-10899000D01*
X19835000Y-11849000D02*
X19975000Y-11989000D01*
X19975000Y-11849000D02*
X19835000Y-11989000D01*
X19905000Y-11849000D02*
X19905000Y-11989000D01*
X19835000Y-11919000D02*
X19975000Y-11919000D01*
D15*
X10663000Y-6160000D02*
X10843000Y-6340000D01*
X10843000Y-6160000D02*
X10663000Y-6340000D01*
X10816640Y-6313640D02*
X10816640Y-6186360D01*
X10689360Y-6186360D01*
X10689360Y-6313640D01*
X10816640Y-6313640D01*
X10663000Y-6710000D02*
X10843000Y-6890000D01*
X10843000Y-6710000D02*
X10663000Y-6890000D01*
X10816640Y-6863640D02*
X10816640Y-6736360D01*
X10689360Y-6736360D01*
X10689360Y-6863640D01*
X10816640Y-6863640D01*
X11083000Y-6160000D02*
X11263000Y-6340000D01*
X11263000Y-6160000D02*
X11083000Y-6340000D01*
X11236640Y-6313640D02*
X11236640Y-6186360D01*
X11109360Y-6186360D01*
X11109360Y-6313640D01*
X11236640Y-6313640D01*
X11083000Y-6710000D02*
X11263000Y-6890000D01*
X11263000Y-6710000D02*
X11083000Y-6890000D01*
X11236640Y-6863640D02*
X11236640Y-6736360D01*
X11109360Y-6736360D01*
X11109360Y-6863640D01*
X11236640Y-6863640D01*
X11503000Y-6160000D02*
X11683000Y-6340000D01*
X11683000Y-6160000D02*
X11503000Y-6340000D01*
X11656640Y-6313640D02*
X11656640Y-6186360D01*
X11529360Y-6186360D01*
X11529360Y-6313640D01*
X11656640Y-6313640D01*
X11503000Y-6710000D02*
X11683000Y-6890000D01*
X11683000Y-6710000D02*
X11503000Y-6890000D01*
X11656640Y-6863640D02*
X11656640Y-6736360D01*
X11529360Y-6736360D01*
X11529360Y-6863640D01*
X11656640Y-6863640D01*
X11923000Y-6160000D02*
X12103000Y-6340000D01*
X12103000Y-6160000D02*
X11923000Y-6340000D01*
X12076640Y-6313640D02*
X12076640Y-6186360D01*
X11949360Y-6186360D01*
X11949360Y-6313640D01*
X12076640Y-6313640D01*
X11923000Y-6710000D02*
X12103000Y-6890000D01*
X12103000Y-6710000D02*
X11923000Y-6890000D01*
X12076640Y-6863640D02*
X12076640Y-6736360D01*
X11949360Y-6736360D01*
X11949360Y-6863640D01*
X12076640Y-6863640D01*
X12343000Y-6160000D02*
X12523000Y-6340000D01*
X12523000Y-6160000D02*
X12343000Y-6340000D01*
X12496640Y-6313640D02*
X12496640Y-6186360D01*
X12369360Y-6186360D01*
X12369360Y-6313640D01*
X12496640Y-6313640D01*
X12343000Y-6710000D02*
X12523000Y-6890000D01*
X12523000Y-6710000D02*
X12343000Y-6890000D01*
X12496640Y-6863640D02*
X12496640Y-6736360D01*
X12369360Y-6736360D01*
X12369360Y-6863640D01*
X12496640Y-6863640D01*
X12763000Y-6160000D02*
X12943000Y-6340000D01*
X12943000Y-6160000D02*
X12763000Y-6340000D01*
X12916640Y-6313640D02*
X12916640Y-6186360D01*
X12789360Y-6186360D01*
X12789360Y-6313640D01*
X12916640Y-6313640D01*
X12763000Y-6710000D02*
X12943000Y-6890000D01*
X12943000Y-6710000D02*
X12763000Y-6890000D01*
X12916640Y-6863640D02*
X12916640Y-6736360D01*
X12789360Y-6736360D01*
X12789360Y-6863640D01*
X12916640Y-6863640D01*
X13183000Y-6160000D02*
X13363000Y-6340000D01*
X13363000Y-6160000D02*
X13183000Y-6340000D01*
X13336640Y-6313640D02*
X13336640Y-6186360D01*
X13209360Y-6186360D01*
X13209360Y-6313640D01*
X13336640Y-6313640D01*
X13183000Y-6710000D02*
X13363000Y-6890000D01*
X13363000Y-6710000D02*
X13183000Y-6890000D01*
X13336640Y-6863640D02*
X13336640Y-6736360D01*
X13209360Y-6736360D01*
X13209360Y-6863640D01*
X13336640Y-6863640D01*
X13603000Y-6160000D02*
X13783000Y-6340000D01*
X13783000Y-6160000D02*
X13603000Y-6340000D01*
X13756640Y-6313640D02*
X13756640Y-6186360D01*
X13629360Y-6186360D01*
X13629360Y-6313640D01*
X13756640Y-6313640D01*
X13603000Y-6710000D02*
X13783000Y-6890000D01*
X13783000Y-6710000D02*
X13603000Y-6890000D01*
X13756640Y-6863640D02*
X13756640Y-6736360D01*
X13629360Y-6736360D01*
X13629360Y-6863640D01*
X13756640Y-6863640D01*
X14260000Y-6160000D02*
X14440000Y-6340000D01*
X14440000Y-6160000D02*
X14260000Y-6340000D01*
X14413640Y-6313640D02*
X14413640Y-6186360D01*
X14286360Y-6186360D01*
X14286360Y-6313640D01*
X14413640Y-6313640D01*
X14260000Y-6710000D02*
X14440000Y-6890000D01*
X14440000Y-6710000D02*
X14260000Y-6890000D01*
X14413640Y-6863640D02*
X14413640Y-6736360D01*
X14286360Y-6736360D01*
X14286360Y-6863640D01*
X14413640Y-6863640D01*
X14680000Y-6160000D02*
X14860000Y-6340000D01*
X14860000Y-6160000D02*
X14680000Y-6340000D01*
X14833640Y-6313640D02*
X14833640Y-6186360D01*
X14706360Y-6186360D01*
X14706360Y-6313640D01*
X14833640Y-6313640D01*
X14680000Y-6710000D02*
X14860000Y-6890000D01*
X14860000Y-6710000D02*
X14680000Y-6890000D01*
X14833640Y-6863640D02*
X14833640Y-6736360D01*
X14706360Y-6736360D01*
X14706360Y-6863640D01*
X14833640Y-6863640D01*
X15100000Y-6160000D02*
X15280000Y-6340000D01*
X15280000Y-6160000D02*
X15100000Y-6340000D01*
X15253640Y-6313640D02*
X15253640Y-6186360D01*
X15126360Y-6186360D01*
X15126360Y-6313640D01*
X15253640Y-6313640D01*
X15100000Y-6710000D02*
X15280000Y-6890000D01*
X15280000Y-6710000D02*
X15100000Y-6890000D01*
X15253640Y-6863640D02*
X15253640Y-6736360D01*
X15126360Y-6736360D01*
X15126360Y-6863640D01*
X15253640Y-6863640D01*
X18395000Y-6160000D02*
X18575000Y-6340000D01*
X18575000Y-6160000D02*
X18395000Y-6340000D01*
X18548640Y-6313640D02*
X18548640Y-6186360D01*
X18421360Y-6186360D01*
X18421360Y-6313640D01*
X18548640Y-6313640D01*
X18395000Y-6710000D02*
X18575000Y-6890000D01*
X18575000Y-6710000D02*
X18395000Y-6890000D01*
X18548640Y-6863640D02*
X18548640Y-6736360D01*
X18421360Y-6736360D01*
X18421360Y-6863640D01*
X18548640Y-6863640D01*
X18815000Y-6160000D02*
X18995000Y-6340000D01*
X18995000Y-6160000D02*
X18815000Y-6340000D01*
X18968640Y-6313640D02*
X18968640Y-6186360D01*
X18841360Y-6186360D01*
X18841360Y-6313640D01*
X18968640Y-6313640D01*
X18815000Y-6710000D02*
X18995000Y-6890000D01*
X18995000Y-6710000D02*
X18815000Y-6890000D01*
X18968640Y-6863640D02*
X18968640Y-6736360D01*
X18841360Y-6736360D01*
X18841360Y-6863640D01*
X18968640Y-6863640D01*
X19235000Y-6160000D02*
X19415000Y-6340000D01*
X19415000Y-6160000D02*
X19235000Y-6340000D01*
X19388640Y-6313640D02*
X19388640Y-6186360D01*
X19261360Y-6186360D01*
X19261360Y-6313640D01*
X19388640Y-6313640D01*
X19235000Y-6710000D02*
X19415000Y-6890000D01*
X19415000Y-6710000D02*
X19235000Y-6890000D01*
X19388640Y-6863640D02*
X19388640Y-6736360D01*
X19261360Y-6736360D01*
X19261360Y-6863640D01*
X19388640Y-6863640D01*
D11*
X9797277Y-14303984D02*
X9797277Y-14103984D01*
X9797277Y-14103984D02*
X9844896Y-14103984D01*
X9844896Y-14103984D02*
X9873467Y-14113508D01*
X9873467Y-14113508D02*
X9892515Y-14132555D01*
X9892515Y-14132555D02*
X9902039Y-14151603D01*
X9902039Y-14151603D02*
X9911563Y-14189698D01*
X9911563Y-14189698D02*
X9911563Y-14218269D01*
X9911563Y-14218269D02*
X9902039Y-14256365D01*
X9902039Y-14256365D02*
X9892515Y-14275412D01*
X9892515Y-14275412D02*
X9873467Y-14294460D01*
X9873467Y-14294460D02*
X9844896Y-14303984D01*
X9844896Y-14303984D02*
X9797277Y-14303984D01*
X9997277Y-14303984D02*
X9997277Y-14170650D01*
X9997277Y-14208746D02*
X10006801Y-14189698D01*
X10006801Y-14189698D02*
X10016324Y-14180174D01*
X10016324Y-14180174D02*
X10035372Y-14170650D01*
X10035372Y-14170650D02*
X10054420Y-14170650D01*
X10121086Y-14303984D02*
X10121086Y-14170650D01*
X10121086Y-14103984D02*
X10111563Y-14113508D01*
X10111563Y-14113508D02*
X10121086Y-14123031D01*
X10121086Y-14123031D02*
X10130610Y-14113508D01*
X10130610Y-14113508D02*
X10121086Y-14103984D01*
X10121086Y-14103984D02*
X10121086Y-14123031D01*
X10244896Y-14303984D02*
X10225848Y-14294460D01*
X10225848Y-14294460D02*
X10216324Y-14275412D01*
X10216324Y-14275412D02*
X10216324Y-14103984D01*
X10349658Y-14303984D02*
X10330610Y-14294460D01*
X10330610Y-14294460D02*
X10321086Y-14275412D01*
X10321086Y-14275412D02*
X10321086Y-14103984D01*
X10578229Y-14303984D02*
X10578229Y-14103984D01*
X10578229Y-14103984D02*
X10644896Y-14246841D01*
X10644896Y-14246841D02*
X10711563Y-14103984D01*
X10711563Y-14103984D02*
X10711563Y-14303984D01*
X10892515Y-14303984D02*
X10892515Y-14199222D01*
X10892515Y-14199222D02*
X10882991Y-14180174D01*
X10882991Y-14180174D02*
X10863944Y-14170650D01*
X10863944Y-14170650D02*
X10825848Y-14170650D01*
X10825848Y-14170650D02*
X10806801Y-14180174D01*
X10892515Y-14294460D02*
X10873467Y-14303984D01*
X10873467Y-14303984D02*
X10825848Y-14303984D01*
X10825848Y-14303984D02*
X10806801Y-14294460D01*
X10806801Y-14294460D02*
X10797277Y-14275412D01*
X10797277Y-14275412D02*
X10797277Y-14256365D01*
X10797277Y-14256365D02*
X10806801Y-14237317D01*
X10806801Y-14237317D02*
X10825848Y-14227793D01*
X10825848Y-14227793D02*
X10873467Y-14227793D01*
X10873467Y-14227793D02*
X10892515Y-14218269D01*
X10987753Y-14170650D02*
X10987753Y-14370650D01*
X10987753Y-14180174D02*
X11006801Y-14170650D01*
X11006801Y-14170650D02*
X11044896Y-14170650D01*
X11044896Y-14170650D02*
X11063944Y-14180174D01*
X11063944Y-14180174D02*
X11073467Y-14189698D01*
X11073467Y-14189698D02*
X11082991Y-14208746D01*
X11082991Y-14208746D02*
X11082991Y-14265888D01*
X11082991Y-14265888D02*
X11073467Y-14284936D01*
X11073467Y-14284936D02*
X11063944Y-14294460D01*
X11063944Y-14294460D02*
X11044896Y-14303984D01*
X11044896Y-14303984D02*
X11006801Y-14303984D01*
X11006801Y-14303984D02*
X10987753Y-14294460D01*
X11168705Y-14284936D02*
X11178229Y-14294460D01*
X11178229Y-14294460D02*
X11168705Y-14303984D01*
X11168705Y-14303984D02*
X11159182Y-14294460D01*
X11159182Y-14294460D02*
X11168705Y-14284936D01*
X11168705Y-14284936D02*
X11168705Y-14303984D01*
X11168705Y-14180174D02*
X11178229Y-14189698D01*
X11178229Y-14189698D02*
X11168705Y-14199222D01*
X11168705Y-14199222D02*
X11159182Y-14189698D01*
X11159182Y-14189698D02*
X11168705Y-14180174D01*
X11168705Y-14180174D02*
X11168705Y-14199222D01*
D12*
X9496500Y-14612500D02*
X9536500Y-14652500D01*
X9536500Y-14612500D02*
X9496500Y-14652500D01*
D11*
X9835372Y-14523984D02*
X9854420Y-14523984D01*
X9854420Y-14523984D02*
X9873467Y-14533508D01*
X9873467Y-14533508D02*
X9882991Y-14543031D01*
X9882991Y-14543031D02*
X9892515Y-14562079D01*
X9892515Y-14562079D02*
X9902039Y-14600174D01*
X9902039Y-14600174D02*
X9902039Y-14647793D01*
X9902039Y-14647793D02*
X9892515Y-14685888D01*
X9892515Y-14685888D02*
X9882991Y-14704936D01*
X9882991Y-14704936D02*
X9873467Y-14714460D01*
X9873467Y-14714460D02*
X9854420Y-14723984D01*
X9854420Y-14723984D02*
X9835372Y-14723984D01*
X9835372Y-14723984D02*
X9816324Y-14714460D01*
X9816324Y-14714460D02*
X9806801Y-14704936D01*
X9806801Y-14704936D02*
X9797277Y-14685888D01*
X9797277Y-14685888D02*
X9787753Y-14647793D01*
X9787753Y-14647793D02*
X9787753Y-14600174D01*
X9787753Y-14600174D02*
X9797277Y-14562079D01*
X9797277Y-14562079D02*
X9806801Y-14543031D01*
X9806801Y-14543031D02*
X9816324Y-14533508D01*
X9816324Y-14533508D02*
X9835372Y-14523984D01*
X9987753Y-14704936D02*
X9997277Y-14714460D01*
X9997277Y-14714460D02*
X9987753Y-14723984D01*
X9987753Y-14723984D02*
X9978229Y-14714460D01*
X9978229Y-14714460D02*
X9987753Y-14704936D01*
X9987753Y-14704936D02*
X9987753Y-14723984D01*
X10168705Y-14590650D02*
X10168705Y-14723984D01*
X10121086Y-14514460D02*
X10073467Y-14657317D01*
X10073467Y-14657317D02*
X10197277Y-14657317D01*
X10311563Y-14523984D02*
X10330610Y-14523984D01*
X10330610Y-14523984D02*
X10349658Y-14533508D01*
X10349658Y-14533508D02*
X10359182Y-14543031D01*
X10359182Y-14543031D02*
X10368705Y-14562079D01*
X10368705Y-14562079D02*
X10378229Y-14600174D01*
X10378229Y-14600174D02*
X10378229Y-14647793D01*
X10378229Y-14647793D02*
X10368705Y-14685888D01*
X10368705Y-14685888D02*
X10359182Y-14704936D01*
X10359182Y-14704936D02*
X10349658Y-14714460D01*
X10349658Y-14714460D02*
X10330610Y-14723984D01*
X10330610Y-14723984D02*
X10311563Y-14723984D01*
X10311563Y-14723984D02*
X10292515Y-14714460D01*
X10292515Y-14714460D02*
X10282991Y-14704936D01*
X10282991Y-14704936D02*
X10273467Y-14685888D01*
X10273467Y-14685888D02*
X10263944Y-14647793D01*
X10263944Y-14647793D02*
X10263944Y-14600174D01*
X10263944Y-14600174D02*
X10273467Y-14562079D01*
X10273467Y-14562079D02*
X10282991Y-14543031D01*
X10282991Y-14543031D02*
X10292515Y-14533508D01*
X10292515Y-14533508D02*
X10311563Y-14523984D01*
X10502039Y-14523984D02*
X10521086Y-14523984D01*
X10521086Y-14523984D02*
X10540134Y-14533508D01*
X10540134Y-14533508D02*
X10549658Y-14543031D01*
X10549658Y-14543031D02*
X10559182Y-14562079D01*
X10559182Y-14562079D02*
X10568705Y-14600174D01*
X10568705Y-14600174D02*
X10568705Y-14647793D01*
X10568705Y-14647793D02*
X10559182Y-14685888D01*
X10559182Y-14685888D02*
X10549658Y-14704936D01*
X10549658Y-14704936D02*
X10540134Y-14714460D01*
X10540134Y-14714460D02*
X10521086Y-14723984D01*
X10521086Y-14723984D02*
X10502039Y-14723984D01*
X10502039Y-14723984D02*
X10482991Y-14714460D01*
X10482991Y-14714460D02*
X10473467Y-14704936D01*
X10473467Y-14704936D02*
X10463944Y-14685888D01*
X10463944Y-14685888D02*
X10454420Y-14647793D01*
X10454420Y-14647793D02*
X10454420Y-14600174D01*
X10454420Y-14600174D02*
X10463944Y-14562079D01*
X10463944Y-14562079D02*
X10473467Y-14543031D01*
X10473467Y-14543031D02*
X10482991Y-14533508D01*
X10482991Y-14533508D02*
X10502039Y-14523984D01*
X10654420Y-14723984D02*
X10654420Y-14590650D01*
X10654420Y-14609698D02*
X10663944Y-14600174D01*
X10663944Y-14600174D02*
X10682991Y-14590650D01*
X10682991Y-14590650D02*
X10711563Y-14590650D01*
X10711563Y-14590650D02*
X10730610Y-14600174D01*
X10730610Y-14600174D02*
X10740134Y-14619222D01*
X10740134Y-14619222D02*
X10740134Y-14723984D01*
X10740134Y-14619222D02*
X10749658Y-14600174D01*
X10749658Y-14600174D02*
X10768705Y-14590650D01*
X10768705Y-14590650D02*
X10797277Y-14590650D01*
X10797277Y-14590650D02*
X10816325Y-14600174D01*
X10816325Y-14600174D02*
X10825848Y-14619222D01*
X10825848Y-14619222D02*
X10825848Y-14723984D01*
X10921086Y-14723984D02*
X10921086Y-14590650D01*
X10921086Y-14609698D02*
X10930610Y-14600174D01*
X10930610Y-14600174D02*
X10949658Y-14590650D01*
X10949658Y-14590650D02*
X10978229Y-14590650D01*
X10978229Y-14590650D02*
X10997277Y-14600174D01*
X10997277Y-14600174D02*
X11006801Y-14619222D01*
X11006801Y-14619222D02*
X11006801Y-14723984D01*
X11006801Y-14619222D02*
X11016325Y-14600174D01*
X11016325Y-14600174D02*
X11035372Y-14590650D01*
X11035372Y-14590650D02*
X11063944Y-14590650D01*
X11063944Y-14590650D02*
X11082991Y-14600174D01*
X11082991Y-14600174D02*
X11092515Y-14619222D01*
X11092515Y-14619222D02*
X11092515Y-14723984D01*
X11482991Y-14514460D02*
X11311563Y-14771603D01*
X11740134Y-14523984D02*
X11759182Y-14523984D01*
X11759182Y-14523984D02*
X11778229Y-14533508D01*
X11778229Y-14533508D02*
X11787753Y-14543031D01*
X11787753Y-14543031D02*
X11797277Y-14562079D01*
X11797277Y-14562079D02*
X11806801Y-14600174D01*
X11806801Y-14600174D02*
X11806801Y-14647793D01*
X11806801Y-14647793D02*
X11797277Y-14685888D01*
X11797277Y-14685888D02*
X11787753Y-14704936D01*
X11787753Y-14704936D02*
X11778229Y-14714460D01*
X11778229Y-14714460D02*
X11759182Y-14723984D01*
X11759182Y-14723984D02*
X11740134Y-14723984D01*
X11740134Y-14723984D02*
X11721086Y-14714460D01*
X11721086Y-14714460D02*
X11711563Y-14704936D01*
X11711563Y-14704936D02*
X11702039Y-14685888D01*
X11702039Y-14685888D02*
X11692515Y-14647793D01*
X11692515Y-14647793D02*
X11692515Y-14600174D01*
X11692515Y-14600174D02*
X11702039Y-14562079D01*
X11702039Y-14562079D02*
X11711563Y-14543031D01*
X11711563Y-14543031D02*
X11721086Y-14533508D01*
X11721086Y-14533508D02*
X11740134Y-14523984D01*
X11892515Y-14704936D02*
X11902039Y-14714460D01*
X11902039Y-14714460D02*
X11892515Y-14723984D01*
X11892515Y-14723984D02*
X11882991Y-14714460D01*
X11882991Y-14714460D02*
X11892515Y-14704936D01*
X11892515Y-14704936D02*
X11892515Y-14723984D01*
X12025848Y-14523984D02*
X12044896Y-14523984D01*
X12044896Y-14523984D02*
X12063944Y-14533508D01*
X12063944Y-14533508D02*
X12073467Y-14543031D01*
X12073467Y-14543031D02*
X12082991Y-14562079D01*
X12082991Y-14562079D02*
X12092515Y-14600174D01*
X12092515Y-14600174D02*
X12092515Y-14647793D01*
X12092515Y-14647793D02*
X12082991Y-14685888D01*
X12082991Y-14685888D02*
X12073467Y-14704936D01*
X12073467Y-14704936D02*
X12063944Y-14714460D01*
X12063944Y-14714460D02*
X12044896Y-14723984D01*
X12044896Y-14723984D02*
X12025848Y-14723984D01*
X12025848Y-14723984D02*
X12006801Y-14714460D01*
X12006801Y-14714460D02*
X11997277Y-14704936D01*
X11997277Y-14704936D02*
X11987753Y-14685888D01*
X11987753Y-14685888D02*
X11978229Y-14647793D01*
X11978229Y-14647793D02*
X11978229Y-14600174D01*
X11978229Y-14600174D02*
X11987753Y-14562079D01*
X11987753Y-14562079D02*
X11997277Y-14543031D01*
X11997277Y-14543031D02*
X12006801Y-14533508D01*
X12006801Y-14533508D02*
X12025848Y-14523984D01*
X12282991Y-14723984D02*
X12168706Y-14723984D01*
X12225848Y-14723984D02*
X12225848Y-14523984D01*
X12225848Y-14523984D02*
X12206801Y-14552555D01*
X12206801Y-14552555D02*
X12187753Y-14571603D01*
X12187753Y-14571603D02*
X12168706Y-14581127D01*
X12463944Y-14523984D02*
X12368706Y-14523984D01*
X12368706Y-14523984D02*
X12359182Y-14619222D01*
X12359182Y-14619222D02*
X12368706Y-14609698D01*
X12368706Y-14609698D02*
X12387753Y-14600174D01*
X12387753Y-14600174D02*
X12435372Y-14600174D01*
X12435372Y-14600174D02*
X12454420Y-14609698D01*
X12454420Y-14609698D02*
X12463944Y-14619222D01*
X12463944Y-14619222D02*
X12473467Y-14638269D01*
X12473467Y-14638269D02*
X12473467Y-14685888D01*
X12473467Y-14685888D02*
X12463944Y-14704936D01*
X12463944Y-14704936D02*
X12454420Y-14714460D01*
X12454420Y-14714460D02*
X12435372Y-14723984D01*
X12435372Y-14723984D02*
X12387753Y-14723984D01*
X12387753Y-14723984D02*
X12368706Y-14714460D01*
X12368706Y-14714460D02*
X12359182Y-14704936D01*
X12540134Y-14523984D02*
X12673467Y-14523984D01*
X12673467Y-14523984D02*
X12587753Y-14723984D01*
X12740134Y-14523984D02*
X12740134Y-14562079D01*
X12816325Y-14523984D02*
X12816325Y-14562079D01*
X13111563Y-14800174D02*
X13102039Y-14790650D01*
X13102039Y-14790650D02*
X13082991Y-14762079D01*
X13082991Y-14762079D02*
X13073468Y-14743031D01*
X13073468Y-14743031D02*
X13063944Y-14714460D01*
X13063944Y-14714460D02*
X13054420Y-14666841D01*
X13054420Y-14666841D02*
X13054420Y-14628746D01*
X13054420Y-14628746D02*
X13063944Y-14581127D01*
X13063944Y-14581127D02*
X13073468Y-14552555D01*
X13073468Y-14552555D02*
X13082991Y-14533508D01*
X13082991Y-14533508D02*
X13102039Y-14504936D01*
X13102039Y-14504936D02*
X13111563Y-14495412D01*
X13178229Y-14543031D02*
X13187753Y-14533508D01*
X13187753Y-14533508D02*
X13206801Y-14523984D01*
X13206801Y-14523984D02*
X13254420Y-14523984D01*
X13254420Y-14523984D02*
X13273468Y-14533508D01*
X13273468Y-14533508D02*
X13282991Y-14543031D01*
X13282991Y-14543031D02*
X13292515Y-14562079D01*
X13292515Y-14562079D02*
X13292515Y-14581127D01*
X13292515Y-14581127D02*
X13282991Y-14609698D01*
X13282991Y-14609698D02*
X13168706Y-14723984D01*
X13168706Y-14723984D02*
X13292515Y-14723984D01*
X13463944Y-14523984D02*
X13425848Y-14523984D01*
X13425848Y-14523984D02*
X13406801Y-14533508D01*
X13406801Y-14533508D02*
X13397277Y-14543031D01*
X13397277Y-14543031D02*
X13378229Y-14571603D01*
X13378229Y-14571603D02*
X13368706Y-14609698D01*
X13368706Y-14609698D02*
X13368706Y-14685888D01*
X13368706Y-14685888D02*
X13378229Y-14704936D01*
X13378229Y-14704936D02*
X13387753Y-14714460D01*
X13387753Y-14714460D02*
X13406801Y-14723984D01*
X13406801Y-14723984D02*
X13444896Y-14723984D01*
X13444896Y-14723984D02*
X13463944Y-14714460D01*
X13463944Y-14714460D02*
X13473468Y-14704936D01*
X13473468Y-14704936D02*
X13482991Y-14685888D01*
X13482991Y-14685888D02*
X13482991Y-14638269D01*
X13482991Y-14638269D02*
X13473468Y-14619222D01*
X13473468Y-14619222D02*
X13463944Y-14609698D01*
X13463944Y-14609698D02*
X13444896Y-14600174D01*
X13444896Y-14600174D02*
X13406801Y-14600174D01*
X13406801Y-14600174D02*
X13387753Y-14609698D01*
X13387753Y-14609698D02*
X13378229Y-14619222D01*
X13378229Y-14619222D02*
X13368706Y-14638269D01*
X13606801Y-14523984D02*
X13625849Y-14523984D01*
X13625849Y-14523984D02*
X13644896Y-14533508D01*
X13644896Y-14533508D02*
X13654420Y-14543031D01*
X13654420Y-14543031D02*
X13663944Y-14562079D01*
X13663944Y-14562079D02*
X13673468Y-14600174D01*
X13673468Y-14600174D02*
X13673468Y-14647793D01*
X13673468Y-14647793D02*
X13663944Y-14685888D01*
X13663944Y-14685888D02*
X13654420Y-14704936D01*
X13654420Y-14704936D02*
X13644896Y-14714460D01*
X13644896Y-14714460D02*
X13625849Y-14723984D01*
X13625849Y-14723984D02*
X13606801Y-14723984D01*
X13606801Y-14723984D02*
X13587753Y-14714460D01*
X13587753Y-14714460D02*
X13578229Y-14704936D01*
X13578229Y-14704936D02*
X13568706Y-14685888D01*
X13568706Y-14685888D02*
X13559182Y-14647793D01*
X13559182Y-14647793D02*
X13559182Y-14600174D01*
X13559182Y-14600174D02*
X13568706Y-14562079D01*
X13568706Y-14562079D02*
X13578229Y-14543031D01*
X13578229Y-14543031D02*
X13587753Y-14533508D01*
X13587753Y-14533508D02*
X13606801Y-14523984D01*
X13911563Y-14723984D02*
X13911563Y-14523984D01*
X13997277Y-14723984D02*
X13997277Y-14619222D01*
X13997277Y-14619222D02*
X13987753Y-14600174D01*
X13987753Y-14600174D02*
X13968706Y-14590650D01*
X13968706Y-14590650D02*
X13940134Y-14590650D01*
X13940134Y-14590650D02*
X13921087Y-14600174D01*
X13921087Y-14600174D02*
X13911563Y-14609698D01*
X14121087Y-14723984D02*
X14102039Y-14714460D01*
X14102039Y-14714460D02*
X14092515Y-14704936D01*
X14092515Y-14704936D02*
X14082991Y-14685888D01*
X14082991Y-14685888D02*
X14082991Y-14628746D01*
X14082991Y-14628746D02*
X14092515Y-14609698D01*
X14092515Y-14609698D02*
X14102039Y-14600174D01*
X14102039Y-14600174D02*
X14121087Y-14590650D01*
X14121087Y-14590650D02*
X14149658Y-14590650D01*
X14149658Y-14590650D02*
X14168706Y-14600174D01*
X14168706Y-14600174D02*
X14178230Y-14609698D01*
X14178230Y-14609698D02*
X14187753Y-14628746D01*
X14187753Y-14628746D02*
X14187753Y-14685888D01*
X14187753Y-14685888D02*
X14178230Y-14704936D01*
X14178230Y-14704936D02*
X14168706Y-14714460D01*
X14168706Y-14714460D02*
X14149658Y-14723984D01*
X14149658Y-14723984D02*
X14121087Y-14723984D01*
X14302039Y-14723984D02*
X14282991Y-14714460D01*
X14282991Y-14714460D02*
X14273468Y-14695412D01*
X14273468Y-14695412D02*
X14273468Y-14523984D01*
X14454420Y-14714460D02*
X14435372Y-14723984D01*
X14435372Y-14723984D02*
X14397277Y-14723984D01*
X14397277Y-14723984D02*
X14378230Y-14714460D01*
X14378230Y-14714460D02*
X14368706Y-14695412D01*
X14368706Y-14695412D02*
X14368706Y-14619222D01*
X14368706Y-14619222D02*
X14378230Y-14600174D01*
X14378230Y-14600174D02*
X14397277Y-14590650D01*
X14397277Y-14590650D02*
X14435372Y-14590650D01*
X14435372Y-14590650D02*
X14454420Y-14600174D01*
X14454420Y-14600174D02*
X14463944Y-14619222D01*
X14463944Y-14619222D02*
X14463944Y-14638269D01*
X14463944Y-14638269D02*
X14368706Y-14657317D01*
X14540134Y-14714460D02*
X14559182Y-14723984D01*
X14559182Y-14723984D02*
X14597277Y-14723984D01*
X14597277Y-14723984D02*
X14616325Y-14714460D01*
X14616325Y-14714460D02*
X14625849Y-14695412D01*
X14625849Y-14695412D02*
X14625849Y-14685888D01*
X14625849Y-14685888D02*
X14616325Y-14666841D01*
X14616325Y-14666841D02*
X14597277Y-14657317D01*
X14597277Y-14657317D02*
X14568706Y-14657317D01*
X14568706Y-14657317D02*
X14549658Y-14647793D01*
X14549658Y-14647793D02*
X14540134Y-14628746D01*
X14540134Y-14628746D02*
X14540134Y-14619222D01*
X14540134Y-14619222D02*
X14549658Y-14600174D01*
X14549658Y-14600174D02*
X14568706Y-14590650D01*
X14568706Y-14590650D02*
X14597277Y-14590650D01*
X14597277Y-14590650D02*
X14616325Y-14600174D01*
X14692515Y-14800174D02*
X14702039Y-14790650D01*
X14702039Y-14790650D02*
X14721087Y-14762079D01*
X14721087Y-14762079D02*
X14730611Y-14743031D01*
X14730611Y-14743031D02*
X14740134Y-14714460D01*
X14740134Y-14714460D02*
X14749658Y-14666841D01*
X14749658Y-14666841D02*
X14749658Y-14628746D01*
X14749658Y-14628746D02*
X14740134Y-14581127D01*
X14740134Y-14581127D02*
X14730611Y-14552555D01*
X14730611Y-14552555D02*
X14721087Y-14533508D01*
X14721087Y-14533508D02*
X14702039Y-14504936D01*
X14702039Y-14504936D02*
X14692515Y-14495412D01*
D12*
X9536500Y-14896500D02*
G75*
G02*
X9486500Y-14896500I-25000J0D01*
G01*
X9486500Y-14896500D02*
G75*
G02*
X9536500Y-14896500I25000J0D01*
G01*
D11*
X9835372Y-14787984D02*
X9854420Y-14787984D01*
X9854420Y-14787984D02*
X9873467Y-14797508D01*
X9873467Y-14797508D02*
X9882991Y-14807031D01*
X9882991Y-14807031D02*
X9892515Y-14826079D01*
X9892515Y-14826079D02*
X9902039Y-14864174D01*
X9902039Y-14864174D02*
X9902039Y-14911793D01*
X9902039Y-14911793D02*
X9892515Y-14949888D01*
X9892515Y-14949888D02*
X9882991Y-14968936D01*
X9882991Y-14968936D02*
X9873467Y-14978460D01*
X9873467Y-14978460D02*
X9854420Y-14987984D01*
X9854420Y-14987984D02*
X9835372Y-14987984D01*
X9835372Y-14987984D02*
X9816324Y-14978460D01*
X9816324Y-14978460D02*
X9806801Y-14968936D01*
X9806801Y-14968936D02*
X9797277Y-14949888D01*
X9797277Y-14949888D02*
X9787753Y-14911793D01*
X9787753Y-14911793D02*
X9787753Y-14864174D01*
X9787753Y-14864174D02*
X9797277Y-14826079D01*
X9797277Y-14826079D02*
X9806801Y-14807031D01*
X9806801Y-14807031D02*
X9816324Y-14797508D01*
X9816324Y-14797508D02*
X9835372Y-14787984D01*
X9987753Y-14968936D02*
X9997277Y-14978460D01*
X9997277Y-14978460D02*
X9987753Y-14987984D01*
X9987753Y-14987984D02*
X9978229Y-14978460D01*
X9978229Y-14978460D02*
X9987753Y-14968936D01*
X9987753Y-14968936D02*
X9987753Y-14987984D01*
X10178229Y-14787984D02*
X10082991Y-14787984D01*
X10082991Y-14787984D02*
X10073467Y-14883222D01*
X10073467Y-14883222D02*
X10082991Y-14873698D01*
X10082991Y-14873698D02*
X10102039Y-14864174D01*
X10102039Y-14864174D02*
X10149658Y-14864174D01*
X10149658Y-14864174D02*
X10168705Y-14873698D01*
X10168705Y-14873698D02*
X10178229Y-14883222D01*
X10178229Y-14883222D02*
X10187753Y-14902269D01*
X10187753Y-14902269D02*
X10187753Y-14949888D01*
X10187753Y-14949888D02*
X10178229Y-14968936D01*
X10178229Y-14968936D02*
X10168705Y-14978460D01*
X10168705Y-14978460D02*
X10149658Y-14987984D01*
X10149658Y-14987984D02*
X10102039Y-14987984D01*
X10102039Y-14987984D02*
X10082991Y-14978460D01*
X10082991Y-14978460D02*
X10073467Y-14968936D01*
X10311563Y-14787984D02*
X10330610Y-14787984D01*
X10330610Y-14787984D02*
X10349658Y-14797508D01*
X10349658Y-14797508D02*
X10359182Y-14807031D01*
X10359182Y-14807031D02*
X10368705Y-14826079D01*
X10368705Y-14826079D02*
X10378229Y-14864174D01*
X10378229Y-14864174D02*
X10378229Y-14911793D01*
X10378229Y-14911793D02*
X10368705Y-14949888D01*
X10368705Y-14949888D02*
X10359182Y-14968936D01*
X10359182Y-14968936D02*
X10349658Y-14978460D01*
X10349658Y-14978460D02*
X10330610Y-14987984D01*
X10330610Y-14987984D02*
X10311563Y-14987984D01*
X10311563Y-14987984D02*
X10292515Y-14978460D01*
X10292515Y-14978460D02*
X10282991Y-14968936D01*
X10282991Y-14968936D02*
X10273467Y-14949888D01*
X10273467Y-14949888D02*
X10263944Y-14911793D01*
X10263944Y-14911793D02*
X10263944Y-14864174D01*
X10263944Y-14864174D02*
X10273467Y-14826079D01*
X10273467Y-14826079D02*
X10282991Y-14807031D01*
X10282991Y-14807031D02*
X10292515Y-14797508D01*
X10292515Y-14797508D02*
X10311563Y-14787984D01*
X10502039Y-14787984D02*
X10521086Y-14787984D01*
X10521086Y-14787984D02*
X10540134Y-14797508D01*
X10540134Y-14797508D02*
X10549658Y-14807031D01*
X10549658Y-14807031D02*
X10559182Y-14826079D01*
X10559182Y-14826079D02*
X10568705Y-14864174D01*
X10568705Y-14864174D02*
X10568705Y-14911793D01*
X10568705Y-14911793D02*
X10559182Y-14949888D01*
X10559182Y-14949888D02*
X10549658Y-14968936D01*
X10549658Y-14968936D02*
X10540134Y-14978460D01*
X10540134Y-14978460D02*
X10521086Y-14987984D01*
X10521086Y-14987984D02*
X10502039Y-14987984D01*
X10502039Y-14987984D02*
X10482991Y-14978460D01*
X10482991Y-14978460D02*
X10473467Y-14968936D01*
X10473467Y-14968936D02*
X10463944Y-14949888D01*
X10463944Y-14949888D02*
X10454420Y-14911793D01*
X10454420Y-14911793D02*
X10454420Y-14864174D01*
X10454420Y-14864174D02*
X10463944Y-14826079D01*
X10463944Y-14826079D02*
X10473467Y-14807031D01*
X10473467Y-14807031D02*
X10482991Y-14797508D01*
X10482991Y-14797508D02*
X10502039Y-14787984D01*
X10654420Y-14987984D02*
X10654420Y-14854650D01*
X10654420Y-14873698D02*
X10663944Y-14864174D01*
X10663944Y-14864174D02*
X10682991Y-14854650D01*
X10682991Y-14854650D02*
X10711563Y-14854650D01*
X10711563Y-14854650D02*
X10730610Y-14864174D01*
X10730610Y-14864174D02*
X10740134Y-14883222D01*
X10740134Y-14883222D02*
X10740134Y-14987984D01*
X10740134Y-14883222D02*
X10749658Y-14864174D01*
X10749658Y-14864174D02*
X10768705Y-14854650D01*
X10768705Y-14854650D02*
X10797277Y-14854650D01*
X10797277Y-14854650D02*
X10816325Y-14864174D01*
X10816325Y-14864174D02*
X10825848Y-14883222D01*
X10825848Y-14883222D02*
X10825848Y-14987984D01*
X10921086Y-14987984D02*
X10921086Y-14854650D01*
X10921086Y-14873698D02*
X10930610Y-14864174D01*
X10930610Y-14864174D02*
X10949658Y-14854650D01*
X10949658Y-14854650D02*
X10978229Y-14854650D01*
X10978229Y-14854650D02*
X10997277Y-14864174D01*
X10997277Y-14864174D02*
X11006801Y-14883222D01*
X11006801Y-14883222D02*
X11006801Y-14987984D01*
X11006801Y-14883222D02*
X11016325Y-14864174D01*
X11016325Y-14864174D02*
X11035372Y-14854650D01*
X11035372Y-14854650D02*
X11063944Y-14854650D01*
X11063944Y-14854650D02*
X11082991Y-14864174D01*
X11082991Y-14864174D02*
X11092515Y-14883222D01*
X11092515Y-14883222D02*
X11092515Y-14987984D01*
X11482991Y-14778460D02*
X11311563Y-15035603D01*
X11740134Y-14787984D02*
X11759182Y-14787984D01*
X11759182Y-14787984D02*
X11778229Y-14797508D01*
X11778229Y-14797508D02*
X11787753Y-14807031D01*
X11787753Y-14807031D02*
X11797277Y-14826079D01*
X11797277Y-14826079D02*
X11806801Y-14864174D01*
X11806801Y-14864174D02*
X11806801Y-14911793D01*
X11806801Y-14911793D02*
X11797277Y-14949888D01*
X11797277Y-14949888D02*
X11787753Y-14968936D01*
X11787753Y-14968936D02*
X11778229Y-14978460D01*
X11778229Y-14978460D02*
X11759182Y-14987984D01*
X11759182Y-14987984D02*
X11740134Y-14987984D01*
X11740134Y-14987984D02*
X11721086Y-14978460D01*
X11721086Y-14978460D02*
X11711563Y-14968936D01*
X11711563Y-14968936D02*
X11702039Y-14949888D01*
X11702039Y-14949888D02*
X11692515Y-14911793D01*
X11692515Y-14911793D02*
X11692515Y-14864174D01*
X11692515Y-14864174D02*
X11702039Y-14826079D01*
X11702039Y-14826079D02*
X11711563Y-14807031D01*
X11711563Y-14807031D02*
X11721086Y-14797508D01*
X11721086Y-14797508D02*
X11740134Y-14787984D01*
X11892515Y-14968936D02*
X11902039Y-14978460D01*
X11902039Y-14978460D02*
X11892515Y-14987984D01*
X11892515Y-14987984D02*
X11882991Y-14978460D01*
X11882991Y-14978460D02*
X11892515Y-14968936D01*
X11892515Y-14968936D02*
X11892515Y-14987984D01*
X12025848Y-14787984D02*
X12044896Y-14787984D01*
X12044896Y-14787984D02*
X12063944Y-14797508D01*
X12063944Y-14797508D02*
X12073467Y-14807031D01*
X12073467Y-14807031D02*
X12082991Y-14826079D01*
X12082991Y-14826079D02*
X12092515Y-14864174D01*
X12092515Y-14864174D02*
X12092515Y-14911793D01*
X12092515Y-14911793D02*
X12082991Y-14949888D01*
X12082991Y-14949888D02*
X12073467Y-14968936D01*
X12073467Y-14968936D02*
X12063944Y-14978460D01*
X12063944Y-14978460D02*
X12044896Y-14987984D01*
X12044896Y-14987984D02*
X12025848Y-14987984D01*
X12025848Y-14987984D02*
X12006801Y-14978460D01*
X12006801Y-14978460D02*
X11997277Y-14968936D01*
X11997277Y-14968936D02*
X11987753Y-14949888D01*
X11987753Y-14949888D02*
X11978229Y-14911793D01*
X11978229Y-14911793D02*
X11978229Y-14864174D01*
X11978229Y-14864174D02*
X11987753Y-14826079D01*
X11987753Y-14826079D02*
X11997277Y-14807031D01*
X11997277Y-14807031D02*
X12006801Y-14797508D01*
X12006801Y-14797508D02*
X12025848Y-14787984D01*
X12282991Y-14987984D02*
X12168706Y-14987984D01*
X12225848Y-14987984D02*
X12225848Y-14787984D01*
X12225848Y-14787984D02*
X12206801Y-14816555D01*
X12206801Y-14816555D02*
X12187753Y-14835603D01*
X12187753Y-14835603D02*
X12168706Y-14845127D01*
X12378229Y-14987984D02*
X12416325Y-14987984D01*
X12416325Y-14987984D02*
X12435372Y-14978460D01*
X12435372Y-14978460D02*
X12444896Y-14968936D01*
X12444896Y-14968936D02*
X12463944Y-14940365D01*
X12463944Y-14940365D02*
X12473467Y-14902269D01*
X12473467Y-14902269D02*
X12473467Y-14826079D01*
X12473467Y-14826079D02*
X12463944Y-14807031D01*
X12463944Y-14807031D02*
X12454420Y-14797508D01*
X12454420Y-14797508D02*
X12435372Y-14787984D01*
X12435372Y-14787984D02*
X12397277Y-14787984D01*
X12397277Y-14787984D02*
X12378229Y-14797508D01*
X12378229Y-14797508D02*
X12368706Y-14807031D01*
X12368706Y-14807031D02*
X12359182Y-14826079D01*
X12359182Y-14826079D02*
X12359182Y-14873698D01*
X12359182Y-14873698D02*
X12368706Y-14892746D01*
X12368706Y-14892746D02*
X12378229Y-14902269D01*
X12378229Y-14902269D02*
X12397277Y-14911793D01*
X12397277Y-14911793D02*
X12435372Y-14911793D01*
X12435372Y-14911793D02*
X12454420Y-14902269D01*
X12454420Y-14902269D02*
X12463944Y-14892746D01*
X12463944Y-14892746D02*
X12473467Y-14873698D01*
X12540134Y-14787984D02*
X12673467Y-14787984D01*
X12673467Y-14787984D02*
X12587753Y-14987984D01*
X12740134Y-14787984D02*
X12740134Y-14826079D01*
X12816325Y-14787984D02*
X12816325Y-14826079D01*
X13111563Y-15064174D02*
X13102039Y-15054650D01*
X13102039Y-15054650D02*
X13082991Y-15026079D01*
X13082991Y-15026079D02*
X13073468Y-15007031D01*
X13073468Y-15007031D02*
X13063944Y-14978460D01*
X13063944Y-14978460D02*
X13054420Y-14930841D01*
X13054420Y-14930841D02*
X13054420Y-14892746D01*
X13054420Y-14892746D02*
X13063944Y-14845127D01*
X13063944Y-14845127D02*
X13073468Y-14816555D01*
X13073468Y-14816555D02*
X13082991Y-14797508D01*
X13082991Y-14797508D02*
X13102039Y-14768936D01*
X13102039Y-14768936D02*
X13111563Y-14759412D01*
X13292515Y-14987984D02*
X13178229Y-14987984D01*
X13235372Y-14987984D02*
X13235372Y-14787984D01*
X13235372Y-14787984D02*
X13216325Y-14816555D01*
X13216325Y-14816555D02*
X13197277Y-14835603D01*
X13197277Y-14835603D02*
X13178229Y-14845127D01*
X13530610Y-14987984D02*
X13530610Y-14787984D01*
X13616325Y-14987984D02*
X13616325Y-14883222D01*
X13616325Y-14883222D02*
X13606801Y-14864174D01*
X13606801Y-14864174D02*
X13587753Y-14854650D01*
X13587753Y-14854650D02*
X13559182Y-14854650D01*
X13559182Y-14854650D02*
X13540134Y-14864174D01*
X13540134Y-14864174D02*
X13530610Y-14873698D01*
X13740134Y-14987984D02*
X13721087Y-14978460D01*
X13721087Y-14978460D02*
X13711563Y-14968936D01*
X13711563Y-14968936D02*
X13702039Y-14949888D01*
X13702039Y-14949888D02*
X13702039Y-14892746D01*
X13702039Y-14892746D02*
X13711563Y-14873698D01*
X13711563Y-14873698D02*
X13721087Y-14864174D01*
X13721087Y-14864174D02*
X13740134Y-14854650D01*
X13740134Y-14854650D02*
X13768706Y-14854650D01*
X13768706Y-14854650D02*
X13787753Y-14864174D01*
X13787753Y-14864174D02*
X13797277Y-14873698D01*
X13797277Y-14873698D02*
X13806801Y-14892746D01*
X13806801Y-14892746D02*
X13806801Y-14949888D01*
X13806801Y-14949888D02*
X13797277Y-14968936D01*
X13797277Y-14968936D02*
X13787753Y-14978460D01*
X13787753Y-14978460D02*
X13768706Y-14987984D01*
X13768706Y-14987984D02*
X13740134Y-14987984D01*
X13921087Y-14987984D02*
X13902039Y-14978460D01*
X13902039Y-14978460D02*
X13892515Y-14959412D01*
X13892515Y-14959412D02*
X13892515Y-14787984D01*
X14073468Y-14978460D02*
X14054420Y-14987984D01*
X14054420Y-14987984D02*
X14016325Y-14987984D01*
X14016325Y-14987984D02*
X13997277Y-14978460D01*
X13997277Y-14978460D02*
X13987753Y-14959412D01*
X13987753Y-14959412D02*
X13987753Y-14883222D01*
X13987753Y-14883222D02*
X13997277Y-14864174D01*
X13997277Y-14864174D02*
X14016325Y-14854650D01*
X14016325Y-14854650D02*
X14054420Y-14854650D01*
X14054420Y-14854650D02*
X14073468Y-14864174D01*
X14073468Y-14864174D02*
X14082991Y-14883222D01*
X14082991Y-14883222D02*
X14082991Y-14902269D01*
X14082991Y-14902269D02*
X13987753Y-14921317D01*
X14149658Y-15064174D02*
X14159182Y-15054650D01*
X14159182Y-15054650D02*
X14178230Y-15026079D01*
X14178230Y-15026079D02*
X14187753Y-15007031D01*
X14187753Y-15007031D02*
X14197277Y-14978460D01*
X14197277Y-14978460D02*
X14206801Y-14930841D01*
X14206801Y-14930841D02*
X14206801Y-14892746D01*
X14206801Y-14892746D02*
X14197277Y-14845127D01*
X14197277Y-14845127D02*
X14187753Y-14816555D01*
X14187753Y-14816555D02*
X14178230Y-14797508D01*
X14178230Y-14797508D02*
X14159182Y-14768936D01*
X14159182Y-14768936D02*
X14149658Y-14759412D01*
D12*
X9506500Y-15130500D02*
X9506500Y-15190500D01*
X9476500Y-15160500D02*
X9536500Y-15160500D01*
D11*
X9835372Y-15051984D02*
X9854420Y-15051984D01*
X9854420Y-15051984D02*
X9873467Y-15061508D01*
X9873467Y-15061508D02*
X9882991Y-15071031D01*
X9882991Y-15071031D02*
X9892515Y-15090079D01*
X9892515Y-15090079D02*
X9902039Y-15128174D01*
X9902039Y-15128174D02*
X9902039Y-15175793D01*
X9902039Y-15175793D02*
X9892515Y-15213888D01*
X9892515Y-15213888D02*
X9882991Y-15232936D01*
X9882991Y-15232936D02*
X9873467Y-15242460D01*
X9873467Y-15242460D02*
X9854420Y-15251984D01*
X9854420Y-15251984D02*
X9835372Y-15251984D01*
X9835372Y-15251984D02*
X9816324Y-15242460D01*
X9816324Y-15242460D02*
X9806801Y-15232936D01*
X9806801Y-15232936D02*
X9797277Y-15213888D01*
X9797277Y-15213888D02*
X9787753Y-15175793D01*
X9787753Y-15175793D02*
X9787753Y-15128174D01*
X9787753Y-15128174D02*
X9797277Y-15090079D01*
X9797277Y-15090079D02*
X9806801Y-15071031D01*
X9806801Y-15071031D02*
X9816324Y-15061508D01*
X9816324Y-15061508D02*
X9835372Y-15051984D01*
X9987753Y-15232936D02*
X9997277Y-15242460D01*
X9997277Y-15242460D02*
X9987753Y-15251984D01*
X9987753Y-15251984D02*
X9978229Y-15242460D01*
X9978229Y-15242460D02*
X9987753Y-15232936D01*
X9987753Y-15232936D02*
X9987753Y-15251984D01*
X10168705Y-15051984D02*
X10130610Y-15051984D01*
X10130610Y-15051984D02*
X10111563Y-15061508D01*
X10111563Y-15061508D02*
X10102039Y-15071031D01*
X10102039Y-15071031D02*
X10082991Y-15099603D01*
X10082991Y-15099603D02*
X10073467Y-15137698D01*
X10073467Y-15137698D02*
X10073467Y-15213888D01*
X10073467Y-15213888D02*
X10082991Y-15232936D01*
X10082991Y-15232936D02*
X10092515Y-15242460D01*
X10092515Y-15242460D02*
X10111563Y-15251984D01*
X10111563Y-15251984D02*
X10149658Y-15251984D01*
X10149658Y-15251984D02*
X10168705Y-15242460D01*
X10168705Y-15242460D02*
X10178229Y-15232936D01*
X10178229Y-15232936D02*
X10187753Y-15213888D01*
X10187753Y-15213888D02*
X10187753Y-15166269D01*
X10187753Y-15166269D02*
X10178229Y-15147222D01*
X10178229Y-15147222D02*
X10168705Y-15137698D01*
X10168705Y-15137698D02*
X10149658Y-15128174D01*
X10149658Y-15128174D02*
X10111563Y-15128174D01*
X10111563Y-15128174D02*
X10092515Y-15137698D01*
X10092515Y-15137698D02*
X10082991Y-15147222D01*
X10082991Y-15147222D02*
X10073467Y-15166269D01*
X10311563Y-15051984D02*
X10330610Y-15051984D01*
X10330610Y-15051984D02*
X10349658Y-15061508D01*
X10349658Y-15061508D02*
X10359182Y-15071031D01*
X10359182Y-15071031D02*
X10368705Y-15090079D01*
X10368705Y-15090079D02*
X10378229Y-15128174D01*
X10378229Y-15128174D02*
X10378229Y-15175793D01*
X10378229Y-15175793D02*
X10368705Y-15213888D01*
X10368705Y-15213888D02*
X10359182Y-15232936D01*
X10359182Y-15232936D02*
X10349658Y-15242460D01*
X10349658Y-15242460D02*
X10330610Y-15251984D01*
X10330610Y-15251984D02*
X10311563Y-15251984D01*
X10311563Y-15251984D02*
X10292515Y-15242460D01*
X10292515Y-15242460D02*
X10282991Y-15232936D01*
X10282991Y-15232936D02*
X10273467Y-15213888D01*
X10273467Y-15213888D02*
X10263944Y-15175793D01*
X10263944Y-15175793D02*
X10263944Y-15128174D01*
X10263944Y-15128174D02*
X10273467Y-15090079D01*
X10273467Y-15090079D02*
X10282991Y-15071031D01*
X10282991Y-15071031D02*
X10292515Y-15061508D01*
X10292515Y-15061508D02*
X10311563Y-15051984D01*
X10502039Y-15051984D02*
X10521086Y-15051984D01*
X10521086Y-15051984D02*
X10540134Y-15061508D01*
X10540134Y-15061508D02*
X10549658Y-15071031D01*
X10549658Y-15071031D02*
X10559182Y-15090079D01*
X10559182Y-15090079D02*
X10568705Y-15128174D01*
X10568705Y-15128174D02*
X10568705Y-15175793D01*
X10568705Y-15175793D02*
X10559182Y-15213888D01*
X10559182Y-15213888D02*
X10549658Y-15232936D01*
X10549658Y-15232936D02*
X10540134Y-15242460D01*
X10540134Y-15242460D02*
X10521086Y-15251984D01*
X10521086Y-15251984D02*
X10502039Y-15251984D01*
X10502039Y-15251984D02*
X10482991Y-15242460D01*
X10482991Y-15242460D02*
X10473467Y-15232936D01*
X10473467Y-15232936D02*
X10463944Y-15213888D01*
X10463944Y-15213888D02*
X10454420Y-15175793D01*
X10454420Y-15175793D02*
X10454420Y-15128174D01*
X10454420Y-15128174D02*
X10463944Y-15090079D01*
X10463944Y-15090079D02*
X10473467Y-15071031D01*
X10473467Y-15071031D02*
X10482991Y-15061508D01*
X10482991Y-15061508D02*
X10502039Y-15051984D01*
X10654420Y-15251984D02*
X10654420Y-15118650D01*
X10654420Y-15137698D02*
X10663944Y-15128174D01*
X10663944Y-15128174D02*
X10682991Y-15118650D01*
X10682991Y-15118650D02*
X10711563Y-15118650D01*
X10711563Y-15118650D02*
X10730610Y-15128174D01*
X10730610Y-15128174D02*
X10740134Y-15147222D01*
X10740134Y-15147222D02*
X10740134Y-15251984D01*
X10740134Y-15147222D02*
X10749658Y-15128174D01*
X10749658Y-15128174D02*
X10768705Y-15118650D01*
X10768705Y-15118650D02*
X10797277Y-15118650D01*
X10797277Y-15118650D02*
X10816325Y-15128174D01*
X10816325Y-15128174D02*
X10825848Y-15147222D01*
X10825848Y-15147222D02*
X10825848Y-15251984D01*
X10921086Y-15251984D02*
X10921086Y-15118650D01*
X10921086Y-15137698D02*
X10930610Y-15128174D01*
X10930610Y-15128174D02*
X10949658Y-15118650D01*
X10949658Y-15118650D02*
X10978229Y-15118650D01*
X10978229Y-15118650D02*
X10997277Y-15128174D01*
X10997277Y-15128174D02*
X11006801Y-15147222D01*
X11006801Y-15147222D02*
X11006801Y-15251984D01*
X11006801Y-15147222D02*
X11016325Y-15128174D01*
X11016325Y-15128174D02*
X11035372Y-15118650D01*
X11035372Y-15118650D02*
X11063944Y-15118650D01*
X11063944Y-15118650D02*
X11082991Y-15128174D01*
X11082991Y-15128174D02*
X11092515Y-15147222D01*
X11092515Y-15147222D02*
X11092515Y-15251984D01*
X11482991Y-15042460D02*
X11311563Y-15299603D01*
X11740134Y-15051984D02*
X11759182Y-15051984D01*
X11759182Y-15051984D02*
X11778229Y-15061508D01*
X11778229Y-15061508D02*
X11787753Y-15071031D01*
X11787753Y-15071031D02*
X11797277Y-15090079D01*
X11797277Y-15090079D02*
X11806801Y-15128174D01*
X11806801Y-15128174D02*
X11806801Y-15175793D01*
X11806801Y-15175793D02*
X11797277Y-15213888D01*
X11797277Y-15213888D02*
X11787753Y-15232936D01*
X11787753Y-15232936D02*
X11778229Y-15242460D01*
X11778229Y-15242460D02*
X11759182Y-15251984D01*
X11759182Y-15251984D02*
X11740134Y-15251984D01*
X11740134Y-15251984D02*
X11721086Y-15242460D01*
X11721086Y-15242460D02*
X11711563Y-15232936D01*
X11711563Y-15232936D02*
X11702039Y-15213888D01*
X11702039Y-15213888D02*
X11692515Y-15175793D01*
X11692515Y-15175793D02*
X11692515Y-15128174D01*
X11692515Y-15128174D02*
X11702039Y-15090079D01*
X11702039Y-15090079D02*
X11711563Y-15071031D01*
X11711563Y-15071031D02*
X11721086Y-15061508D01*
X11721086Y-15061508D02*
X11740134Y-15051984D01*
X11892515Y-15232936D02*
X11902039Y-15242460D01*
X11902039Y-15242460D02*
X11892515Y-15251984D01*
X11892515Y-15251984D02*
X11882991Y-15242460D01*
X11882991Y-15242460D02*
X11892515Y-15232936D01*
X11892515Y-15232936D02*
X11892515Y-15251984D01*
X12025848Y-15051984D02*
X12044896Y-15051984D01*
X12044896Y-15051984D02*
X12063944Y-15061508D01*
X12063944Y-15061508D02*
X12073467Y-15071031D01*
X12073467Y-15071031D02*
X12082991Y-15090079D01*
X12082991Y-15090079D02*
X12092515Y-15128174D01*
X12092515Y-15128174D02*
X12092515Y-15175793D01*
X12092515Y-15175793D02*
X12082991Y-15213888D01*
X12082991Y-15213888D02*
X12073467Y-15232936D01*
X12073467Y-15232936D02*
X12063944Y-15242460D01*
X12063944Y-15242460D02*
X12044896Y-15251984D01*
X12044896Y-15251984D02*
X12025848Y-15251984D01*
X12025848Y-15251984D02*
X12006801Y-15242460D01*
X12006801Y-15242460D02*
X11997277Y-15232936D01*
X11997277Y-15232936D02*
X11987753Y-15213888D01*
X11987753Y-15213888D02*
X11978229Y-15175793D01*
X11978229Y-15175793D02*
X11978229Y-15128174D01*
X11978229Y-15128174D02*
X11987753Y-15090079D01*
X11987753Y-15090079D02*
X11997277Y-15071031D01*
X11997277Y-15071031D02*
X12006801Y-15061508D01*
X12006801Y-15061508D02*
X12025848Y-15051984D01*
X12168706Y-15071031D02*
X12178229Y-15061508D01*
X12178229Y-15061508D02*
X12197277Y-15051984D01*
X12197277Y-15051984D02*
X12244896Y-15051984D01*
X12244896Y-15051984D02*
X12263944Y-15061508D01*
X12263944Y-15061508D02*
X12273467Y-15071031D01*
X12273467Y-15071031D02*
X12282991Y-15090079D01*
X12282991Y-15090079D02*
X12282991Y-15109127D01*
X12282991Y-15109127D02*
X12273467Y-15137698D01*
X12273467Y-15137698D02*
X12159182Y-15251984D01*
X12159182Y-15251984D02*
X12282991Y-15251984D01*
X12349658Y-15051984D02*
X12473467Y-15051984D01*
X12473467Y-15051984D02*
X12406801Y-15128174D01*
X12406801Y-15128174D02*
X12435372Y-15128174D01*
X12435372Y-15128174D02*
X12454420Y-15137698D01*
X12454420Y-15137698D02*
X12463944Y-15147222D01*
X12463944Y-15147222D02*
X12473467Y-15166269D01*
X12473467Y-15166269D02*
X12473467Y-15213888D01*
X12473467Y-15213888D02*
X12463944Y-15232936D01*
X12463944Y-15232936D02*
X12454420Y-15242460D01*
X12454420Y-15242460D02*
X12435372Y-15251984D01*
X12435372Y-15251984D02*
X12378229Y-15251984D01*
X12378229Y-15251984D02*
X12359182Y-15242460D01*
X12359182Y-15242460D02*
X12349658Y-15232936D01*
X12644896Y-15051984D02*
X12606801Y-15051984D01*
X12606801Y-15051984D02*
X12587753Y-15061508D01*
X12587753Y-15061508D02*
X12578229Y-15071031D01*
X12578229Y-15071031D02*
X12559182Y-15099603D01*
X12559182Y-15099603D02*
X12549658Y-15137698D01*
X12549658Y-15137698D02*
X12549658Y-15213888D01*
X12549658Y-15213888D02*
X12559182Y-15232936D01*
X12559182Y-15232936D02*
X12568706Y-15242460D01*
X12568706Y-15242460D02*
X12587753Y-15251984D01*
X12587753Y-15251984D02*
X12625848Y-15251984D01*
X12625848Y-15251984D02*
X12644896Y-15242460D01*
X12644896Y-15242460D02*
X12654420Y-15232936D01*
X12654420Y-15232936D02*
X12663944Y-15213888D01*
X12663944Y-15213888D02*
X12663944Y-15166269D01*
X12663944Y-15166269D02*
X12654420Y-15147222D01*
X12654420Y-15147222D02*
X12644896Y-15137698D01*
X12644896Y-15137698D02*
X12625848Y-15128174D01*
X12625848Y-15128174D02*
X12587753Y-15128174D01*
X12587753Y-15128174D02*
X12568706Y-15137698D01*
X12568706Y-15137698D02*
X12559182Y-15147222D01*
X12559182Y-15147222D02*
X12549658Y-15166269D01*
X12740134Y-15051984D02*
X12740134Y-15090079D01*
X12816325Y-15051984D02*
X12816325Y-15090079D01*
X13111563Y-15328174D02*
X13102039Y-15318650D01*
X13102039Y-15318650D02*
X13082991Y-15290079D01*
X13082991Y-15290079D02*
X13073468Y-15271031D01*
X13073468Y-15271031D02*
X13063944Y-15242460D01*
X13063944Y-15242460D02*
X13054420Y-15194841D01*
X13054420Y-15194841D02*
X13054420Y-15156746D01*
X13054420Y-15156746D02*
X13063944Y-15109127D01*
X13063944Y-15109127D02*
X13073468Y-15080555D01*
X13073468Y-15080555D02*
X13082991Y-15061508D01*
X13082991Y-15061508D02*
X13102039Y-15032936D01*
X13102039Y-15032936D02*
X13111563Y-15023412D01*
X13292515Y-15251984D02*
X13178229Y-15251984D01*
X13235372Y-15251984D02*
X13235372Y-15051984D01*
X13235372Y-15051984D02*
X13216325Y-15080555D01*
X13216325Y-15080555D02*
X13197277Y-15099603D01*
X13197277Y-15099603D02*
X13178229Y-15109127D01*
X13530610Y-15251984D02*
X13530610Y-15051984D01*
X13616325Y-15251984D02*
X13616325Y-15147222D01*
X13616325Y-15147222D02*
X13606801Y-15128174D01*
X13606801Y-15128174D02*
X13587753Y-15118650D01*
X13587753Y-15118650D02*
X13559182Y-15118650D01*
X13559182Y-15118650D02*
X13540134Y-15128174D01*
X13540134Y-15128174D02*
X13530610Y-15137698D01*
X13740134Y-15251984D02*
X13721087Y-15242460D01*
X13721087Y-15242460D02*
X13711563Y-15232936D01*
X13711563Y-15232936D02*
X13702039Y-15213888D01*
X13702039Y-15213888D02*
X13702039Y-15156746D01*
X13702039Y-15156746D02*
X13711563Y-15137698D01*
X13711563Y-15137698D02*
X13721087Y-15128174D01*
X13721087Y-15128174D02*
X13740134Y-15118650D01*
X13740134Y-15118650D02*
X13768706Y-15118650D01*
X13768706Y-15118650D02*
X13787753Y-15128174D01*
X13787753Y-15128174D02*
X13797277Y-15137698D01*
X13797277Y-15137698D02*
X13806801Y-15156746D01*
X13806801Y-15156746D02*
X13806801Y-15213888D01*
X13806801Y-15213888D02*
X13797277Y-15232936D01*
X13797277Y-15232936D02*
X13787753Y-15242460D01*
X13787753Y-15242460D02*
X13768706Y-15251984D01*
X13768706Y-15251984D02*
X13740134Y-15251984D01*
X13921087Y-15251984D02*
X13902039Y-15242460D01*
X13902039Y-15242460D02*
X13892515Y-15223412D01*
X13892515Y-15223412D02*
X13892515Y-15051984D01*
X14073468Y-15242460D02*
X14054420Y-15251984D01*
X14054420Y-15251984D02*
X14016325Y-15251984D01*
X14016325Y-15251984D02*
X13997277Y-15242460D01*
X13997277Y-15242460D02*
X13987753Y-15223412D01*
X13987753Y-15223412D02*
X13987753Y-15147222D01*
X13987753Y-15147222D02*
X13997277Y-15128174D01*
X13997277Y-15128174D02*
X14016325Y-15118650D01*
X14016325Y-15118650D02*
X14054420Y-15118650D01*
X14054420Y-15118650D02*
X14073468Y-15128174D01*
X14073468Y-15128174D02*
X14082991Y-15147222D01*
X14082991Y-15147222D02*
X14082991Y-15166269D01*
X14082991Y-15166269D02*
X13987753Y-15185317D01*
X14149658Y-15328174D02*
X14159182Y-15318650D01*
X14159182Y-15318650D02*
X14178230Y-15290079D01*
X14178230Y-15290079D02*
X14187753Y-15271031D01*
X14187753Y-15271031D02*
X14197277Y-15242460D01*
X14197277Y-15242460D02*
X14206801Y-15194841D01*
X14206801Y-15194841D02*
X14206801Y-15156746D01*
X14206801Y-15156746D02*
X14197277Y-15109127D01*
X14197277Y-15109127D02*
X14187753Y-15080555D01*
X14187753Y-15080555D02*
X14178230Y-15061508D01*
X14178230Y-15061508D02*
X14159182Y-15032936D01*
X14159182Y-15032936D02*
X14149658Y-15023412D01*
D12*
X9524785Y-15452784D02*
X9524785Y-15396215D01*
X9468216Y-15396215D01*
X9468216Y-15452784D01*
X9524785Y-15452784D01*
D11*
X9835372Y-15315984D02*
X9854420Y-15315984D01*
X9854420Y-15315984D02*
X9873467Y-15325508D01*
X9873467Y-15325508D02*
X9882991Y-15335031D01*
X9882991Y-15335031D02*
X9892515Y-15354079D01*
X9892515Y-15354079D02*
X9902039Y-15392174D01*
X9902039Y-15392174D02*
X9902039Y-15439793D01*
X9902039Y-15439793D02*
X9892515Y-15477888D01*
X9892515Y-15477888D02*
X9882991Y-15496936D01*
X9882991Y-15496936D02*
X9873467Y-15506460D01*
X9873467Y-15506460D02*
X9854420Y-15515984D01*
X9854420Y-15515984D02*
X9835372Y-15515984D01*
X9835372Y-15515984D02*
X9816324Y-15506460D01*
X9816324Y-15506460D02*
X9806801Y-15496936D01*
X9806801Y-15496936D02*
X9797277Y-15477888D01*
X9797277Y-15477888D02*
X9787753Y-15439793D01*
X9787753Y-15439793D02*
X9787753Y-15392174D01*
X9787753Y-15392174D02*
X9797277Y-15354079D01*
X9797277Y-15354079D02*
X9806801Y-15335031D01*
X9806801Y-15335031D02*
X9816324Y-15325508D01*
X9816324Y-15325508D02*
X9835372Y-15315984D01*
X9987753Y-15496936D02*
X9997277Y-15506460D01*
X9997277Y-15506460D02*
X9987753Y-15515984D01*
X9987753Y-15515984D02*
X9978229Y-15506460D01*
X9978229Y-15506460D02*
X9987753Y-15496936D01*
X9987753Y-15496936D02*
X9987753Y-15515984D01*
X10111563Y-15401698D02*
X10092515Y-15392174D01*
X10092515Y-15392174D02*
X10082991Y-15382650D01*
X10082991Y-15382650D02*
X10073467Y-15363603D01*
X10073467Y-15363603D02*
X10073467Y-15354079D01*
X10073467Y-15354079D02*
X10082991Y-15335031D01*
X10082991Y-15335031D02*
X10092515Y-15325508D01*
X10092515Y-15325508D02*
X10111563Y-15315984D01*
X10111563Y-15315984D02*
X10149658Y-15315984D01*
X10149658Y-15315984D02*
X10168705Y-15325508D01*
X10168705Y-15325508D02*
X10178229Y-15335031D01*
X10178229Y-15335031D02*
X10187753Y-15354079D01*
X10187753Y-15354079D02*
X10187753Y-15363603D01*
X10187753Y-15363603D02*
X10178229Y-15382650D01*
X10178229Y-15382650D02*
X10168705Y-15392174D01*
X10168705Y-15392174D02*
X10149658Y-15401698D01*
X10149658Y-15401698D02*
X10111563Y-15401698D01*
X10111563Y-15401698D02*
X10092515Y-15411222D01*
X10092515Y-15411222D02*
X10082991Y-15420746D01*
X10082991Y-15420746D02*
X10073467Y-15439793D01*
X10073467Y-15439793D02*
X10073467Y-15477888D01*
X10073467Y-15477888D02*
X10082991Y-15496936D01*
X10082991Y-15496936D02*
X10092515Y-15506460D01*
X10092515Y-15506460D02*
X10111563Y-15515984D01*
X10111563Y-15515984D02*
X10149658Y-15515984D01*
X10149658Y-15515984D02*
X10168705Y-15506460D01*
X10168705Y-15506460D02*
X10178229Y-15496936D01*
X10178229Y-15496936D02*
X10187753Y-15477888D01*
X10187753Y-15477888D02*
X10187753Y-15439793D01*
X10187753Y-15439793D02*
X10178229Y-15420746D01*
X10178229Y-15420746D02*
X10168705Y-15411222D01*
X10168705Y-15411222D02*
X10149658Y-15401698D01*
X10311563Y-15315984D02*
X10330610Y-15315984D01*
X10330610Y-15315984D02*
X10349658Y-15325508D01*
X10349658Y-15325508D02*
X10359182Y-15335031D01*
X10359182Y-15335031D02*
X10368705Y-15354079D01*
X10368705Y-15354079D02*
X10378229Y-15392174D01*
X10378229Y-15392174D02*
X10378229Y-15439793D01*
X10378229Y-15439793D02*
X10368705Y-15477888D01*
X10368705Y-15477888D02*
X10359182Y-15496936D01*
X10359182Y-15496936D02*
X10349658Y-15506460D01*
X10349658Y-15506460D02*
X10330610Y-15515984D01*
X10330610Y-15515984D02*
X10311563Y-15515984D01*
X10311563Y-15515984D02*
X10292515Y-15506460D01*
X10292515Y-15506460D02*
X10282991Y-15496936D01*
X10282991Y-15496936D02*
X10273467Y-15477888D01*
X10273467Y-15477888D02*
X10263944Y-15439793D01*
X10263944Y-15439793D02*
X10263944Y-15392174D01*
X10263944Y-15392174D02*
X10273467Y-15354079D01*
X10273467Y-15354079D02*
X10282991Y-15335031D01*
X10282991Y-15335031D02*
X10292515Y-15325508D01*
X10292515Y-15325508D02*
X10311563Y-15315984D01*
X10502039Y-15315984D02*
X10521086Y-15315984D01*
X10521086Y-15315984D02*
X10540134Y-15325508D01*
X10540134Y-15325508D02*
X10549658Y-15335031D01*
X10549658Y-15335031D02*
X10559182Y-15354079D01*
X10559182Y-15354079D02*
X10568705Y-15392174D01*
X10568705Y-15392174D02*
X10568705Y-15439793D01*
X10568705Y-15439793D02*
X10559182Y-15477888D01*
X10559182Y-15477888D02*
X10549658Y-15496936D01*
X10549658Y-15496936D02*
X10540134Y-15506460D01*
X10540134Y-15506460D02*
X10521086Y-15515984D01*
X10521086Y-15515984D02*
X10502039Y-15515984D01*
X10502039Y-15515984D02*
X10482991Y-15506460D01*
X10482991Y-15506460D02*
X10473467Y-15496936D01*
X10473467Y-15496936D02*
X10463944Y-15477888D01*
X10463944Y-15477888D02*
X10454420Y-15439793D01*
X10454420Y-15439793D02*
X10454420Y-15392174D01*
X10454420Y-15392174D02*
X10463944Y-15354079D01*
X10463944Y-15354079D02*
X10473467Y-15335031D01*
X10473467Y-15335031D02*
X10482991Y-15325508D01*
X10482991Y-15325508D02*
X10502039Y-15315984D01*
X10654420Y-15515984D02*
X10654420Y-15382650D01*
X10654420Y-15401698D02*
X10663944Y-15392174D01*
X10663944Y-15392174D02*
X10682991Y-15382650D01*
X10682991Y-15382650D02*
X10711563Y-15382650D01*
X10711563Y-15382650D02*
X10730610Y-15392174D01*
X10730610Y-15392174D02*
X10740134Y-15411222D01*
X10740134Y-15411222D02*
X10740134Y-15515984D01*
X10740134Y-15411222D02*
X10749658Y-15392174D01*
X10749658Y-15392174D02*
X10768705Y-15382650D01*
X10768705Y-15382650D02*
X10797277Y-15382650D01*
X10797277Y-15382650D02*
X10816325Y-15392174D01*
X10816325Y-15392174D02*
X10825848Y-15411222D01*
X10825848Y-15411222D02*
X10825848Y-15515984D01*
X10921086Y-15515984D02*
X10921086Y-15382650D01*
X10921086Y-15401698D02*
X10930610Y-15392174D01*
X10930610Y-15392174D02*
X10949658Y-15382650D01*
X10949658Y-15382650D02*
X10978229Y-15382650D01*
X10978229Y-15382650D02*
X10997277Y-15392174D01*
X10997277Y-15392174D02*
X11006801Y-15411222D01*
X11006801Y-15411222D02*
X11006801Y-15515984D01*
X11006801Y-15411222D02*
X11016325Y-15392174D01*
X11016325Y-15392174D02*
X11035372Y-15382650D01*
X11035372Y-15382650D02*
X11063944Y-15382650D01*
X11063944Y-15382650D02*
X11082991Y-15392174D01*
X11082991Y-15392174D02*
X11092515Y-15411222D01*
X11092515Y-15411222D02*
X11092515Y-15515984D01*
X11482991Y-15306460D02*
X11311563Y-15563603D01*
X11740134Y-15315984D02*
X11759182Y-15315984D01*
X11759182Y-15315984D02*
X11778229Y-15325508D01*
X11778229Y-15325508D02*
X11787753Y-15335031D01*
X11787753Y-15335031D02*
X11797277Y-15354079D01*
X11797277Y-15354079D02*
X11806801Y-15392174D01*
X11806801Y-15392174D02*
X11806801Y-15439793D01*
X11806801Y-15439793D02*
X11797277Y-15477888D01*
X11797277Y-15477888D02*
X11787753Y-15496936D01*
X11787753Y-15496936D02*
X11778229Y-15506460D01*
X11778229Y-15506460D02*
X11759182Y-15515984D01*
X11759182Y-15515984D02*
X11740134Y-15515984D01*
X11740134Y-15515984D02*
X11721086Y-15506460D01*
X11721086Y-15506460D02*
X11711563Y-15496936D01*
X11711563Y-15496936D02*
X11702039Y-15477888D01*
X11702039Y-15477888D02*
X11692515Y-15439793D01*
X11692515Y-15439793D02*
X11692515Y-15392174D01*
X11692515Y-15392174D02*
X11702039Y-15354079D01*
X11702039Y-15354079D02*
X11711563Y-15335031D01*
X11711563Y-15335031D02*
X11721086Y-15325508D01*
X11721086Y-15325508D02*
X11740134Y-15315984D01*
X11892515Y-15496936D02*
X11902039Y-15506460D01*
X11902039Y-15506460D02*
X11892515Y-15515984D01*
X11892515Y-15515984D02*
X11882991Y-15506460D01*
X11882991Y-15506460D02*
X11892515Y-15496936D01*
X11892515Y-15496936D02*
X11892515Y-15515984D01*
X12025848Y-15315984D02*
X12044896Y-15315984D01*
X12044896Y-15315984D02*
X12063944Y-15325508D01*
X12063944Y-15325508D02*
X12073467Y-15335031D01*
X12073467Y-15335031D02*
X12082991Y-15354079D01*
X12082991Y-15354079D02*
X12092515Y-15392174D01*
X12092515Y-15392174D02*
X12092515Y-15439793D01*
X12092515Y-15439793D02*
X12082991Y-15477888D01*
X12082991Y-15477888D02*
X12073467Y-15496936D01*
X12073467Y-15496936D02*
X12063944Y-15506460D01*
X12063944Y-15506460D02*
X12044896Y-15515984D01*
X12044896Y-15515984D02*
X12025848Y-15515984D01*
X12025848Y-15515984D02*
X12006801Y-15506460D01*
X12006801Y-15506460D02*
X11997277Y-15496936D01*
X11997277Y-15496936D02*
X11987753Y-15477888D01*
X11987753Y-15477888D02*
X11978229Y-15439793D01*
X11978229Y-15439793D02*
X11978229Y-15392174D01*
X11978229Y-15392174D02*
X11987753Y-15354079D01*
X11987753Y-15354079D02*
X11997277Y-15335031D01*
X11997277Y-15335031D02*
X12006801Y-15325508D01*
X12006801Y-15325508D02*
X12025848Y-15315984D01*
X12159182Y-15315984D02*
X12282991Y-15315984D01*
X12282991Y-15315984D02*
X12216325Y-15392174D01*
X12216325Y-15392174D02*
X12244896Y-15392174D01*
X12244896Y-15392174D02*
X12263944Y-15401698D01*
X12263944Y-15401698D02*
X12273467Y-15411222D01*
X12273467Y-15411222D02*
X12282991Y-15430269D01*
X12282991Y-15430269D02*
X12282991Y-15477888D01*
X12282991Y-15477888D02*
X12273467Y-15496936D01*
X12273467Y-15496936D02*
X12263944Y-15506460D01*
X12263944Y-15506460D02*
X12244896Y-15515984D01*
X12244896Y-15515984D02*
X12187753Y-15515984D01*
X12187753Y-15515984D02*
X12168706Y-15506460D01*
X12168706Y-15506460D02*
X12159182Y-15496936D01*
X12473467Y-15515984D02*
X12359182Y-15515984D01*
X12416325Y-15515984D02*
X12416325Y-15315984D01*
X12416325Y-15315984D02*
X12397277Y-15344555D01*
X12397277Y-15344555D02*
X12378229Y-15363603D01*
X12378229Y-15363603D02*
X12359182Y-15373127D01*
X12654420Y-15315984D02*
X12559182Y-15315984D01*
X12559182Y-15315984D02*
X12549658Y-15411222D01*
X12549658Y-15411222D02*
X12559182Y-15401698D01*
X12559182Y-15401698D02*
X12578229Y-15392174D01*
X12578229Y-15392174D02*
X12625848Y-15392174D01*
X12625848Y-15392174D02*
X12644896Y-15401698D01*
X12644896Y-15401698D02*
X12654420Y-15411222D01*
X12654420Y-15411222D02*
X12663944Y-15430269D01*
X12663944Y-15430269D02*
X12663944Y-15477888D01*
X12663944Y-15477888D02*
X12654420Y-15496936D01*
X12654420Y-15496936D02*
X12644896Y-15506460D01*
X12644896Y-15506460D02*
X12625848Y-15515984D01*
X12625848Y-15515984D02*
X12578229Y-15515984D01*
X12578229Y-15515984D02*
X12559182Y-15506460D01*
X12559182Y-15506460D02*
X12549658Y-15496936D01*
X12740134Y-15315984D02*
X12740134Y-15354079D01*
X12816325Y-15315984D02*
X12816325Y-15354079D01*
X13111563Y-15592174D02*
X13102039Y-15582650D01*
X13102039Y-15582650D02*
X13082991Y-15554079D01*
X13082991Y-15554079D02*
X13073468Y-15535031D01*
X13073468Y-15535031D02*
X13063944Y-15506460D01*
X13063944Y-15506460D02*
X13054420Y-15458841D01*
X13054420Y-15458841D02*
X13054420Y-15420746D01*
X13054420Y-15420746D02*
X13063944Y-15373127D01*
X13063944Y-15373127D02*
X13073468Y-15344555D01*
X13073468Y-15344555D02*
X13082991Y-15325508D01*
X13082991Y-15325508D02*
X13102039Y-15296936D01*
X13102039Y-15296936D02*
X13111563Y-15287412D01*
X13178229Y-15335031D02*
X13187753Y-15325508D01*
X13187753Y-15325508D02*
X13206801Y-15315984D01*
X13206801Y-15315984D02*
X13254420Y-15315984D01*
X13254420Y-15315984D02*
X13273468Y-15325508D01*
X13273468Y-15325508D02*
X13282991Y-15335031D01*
X13282991Y-15335031D02*
X13292515Y-15354079D01*
X13292515Y-15354079D02*
X13292515Y-15373127D01*
X13292515Y-15373127D02*
X13282991Y-15401698D01*
X13282991Y-15401698D02*
X13168706Y-15515984D01*
X13168706Y-15515984D02*
X13292515Y-15515984D01*
X13530610Y-15515984D02*
X13530610Y-15315984D01*
X13616325Y-15515984D02*
X13616325Y-15411222D01*
X13616325Y-15411222D02*
X13606801Y-15392174D01*
X13606801Y-15392174D02*
X13587753Y-15382650D01*
X13587753Y-15382650D02*
X13559182Y-15382650D01*
X13559182Y-15382650D02*
X13540134Y-15392174D01*
X13540134Y-15392174D02*
X13530610Y-15401698D01*
X13740134Y-15515984D02*
X13721087Y-15506460D01*
X13721087Y-15506460D02*
X13711563Y-15496936D01*
X13711563Y-15496936D02*
X13702039Y-15477888D01*
X13702039Y-15477888D02*
X13702039Y-15420746D01*
X13702039Y-15420746D02*
X13711563Y-15401698D01*
X13711563Y-15401698D02*
X13721087Y-15392174D01*
X13721087Y-15392174D02*
X13740134Y-15382650D01*
X13740134Y-15382650D02*
X13768706Y-15382650D01*
X13768706Y-15382650D02*
X13787753Y-15392174D01*
X13787753Y-15392174D02*
X13797277Y-15401698D01*
X13797277Y-15401698D02*
X13806801Y-15420746D01*
X13806801Y-15420746D02*
X13806801Y-15477888D01*
X13806801Y-15477888D02*
X13797277Y-15496936D01*
X13797277Y-15496936D02*
X13787753Y-15506460D01*
X13787753Y-15506460D02*
X13768706Y-15515984D01*
X13768706Y-15515984D02*
X13740134Y-15515984D01*
X13921087Y-15515984D02*
X13902039Y-15506460D01*
X13902039Y-15506460D02*
X13892515Y-15487412D01*
X13892515Y-15487412D02*
X13892515Y-15315984D01*
X14073468Y-15506460D02*
X14054420Y-15515984D01*
X14054420Y-15515984D02*
X14016325Y-15515984D01*
X14016325Y-15515984D02*
X13997277Y-15506460D01*
X13997277Y-15506460D02*
X13987753Y-15487412D01*
X13987753Y-15487412D02*
X13987753Y-15411222D01*
X13987753Y-15411222D02*
X13997277Y-15392174D01*
X13997277Y-15392174D02*
X14016325Y-15382650D01*
X14016325Y-15382650D02*
X14054420Y-15382650D01*
X14054420Y-15382650D02*
X14073468Y-15392174D01*
X14073468Y-15392174D02*
X14082991Y-15411222D01*
X14082991Y-15411222D02*
X14082991Y-15430269D01*
X14082991Y-15430269D02*
X13987753Y-15449317D01*
X14159182Y-15506460D02*
X14178230Y-15515984D01*
X14178230Y-15515984D02*
X14216325Y-15515984D01*
X14216325Y-15515984D02*
X14235372Y-15506460D01*
X14235372Y-15506460D02*
X14244896Y-15487412D01*
X14244896Y-15487412D02*
X14244896Y-15477888D01*
X14244896Y-15477888D02*
X14235372Y-15458841D01*
X14235372Y-15458841D02*
X14216325Y-15449317D01*
X14216325Y-15449317D02*
X14187753Y-15449317D01*
X14187753Y-15449317D02*
X14168706Y-15439793D01*
X14168706Y-15439793D02*
X14159182Y-15420746D01*
X14159182Y-15420746D02*
X14159182Y-15411222D01*
X14159182Y-15411222D02*
X14168706Y-15392174D01*
X14168706Y-15392174D02*
X14187753Y-15382650D01*
X14187753Y-15382650D02*
X14216325Y-15382650D01*
X14216325Y-15382650D02*
X14235372Y-15392174D01*
X14311563Y-15592174D02*
X14321087Y-15582650D01*
X14321087Y-15582650D02*
X14340134Y-15554079D01*
X14340134Y-15554079D02*
X14349658Y-15535031D01*
X14349658Y-15535031D02*
X14359182Y-15506460D01*
X14359182Y-15506460D02*
X14368706Y-15458841D01*
X14368706Y-15458841D02*
X14368706Y-15420746D01*
X14368706Y-15420746D02*
X14359182Y-15373127D01*
X14359182Y-15373127D02*
X14349658Y-15344555D01*
X14349658Y-15344555D02*
X14340134Y-15325508D01*
X14340134Y-15325508D02*
X14321087Y-15296936D01*
X14321087Y-15296936D02*
X14311563Y-15287412D01*
D12*
X9486500Y-15738500D02*
X9536500Y-15688500D01*
X9486500Y-15638500D01*
X9436500Y-15688500D01*
X9486500Y-15738500D01*
D11*
X9902039Y-15779984D02*
X9787753Y-15779984D01*
X9844896Y-15779984D02*
X9844896Y-15579984D01*
X9844896Y-15579984D02*
X9825848Y-15608555D01*
X9825848Y-15608555D02*
X9806801Y-15627603D01*
X9806801Y-15627603D02*
X9787753Y-15637127D01*
X9987753Y-15760936D02*
X9997277Y-15770460D01*
X9997277Y-15770460D02*
X9987753Y-15779984D01*
X9987753Y-15779984D02*
X9978229Y-15770460D01*
X9978229Y-15770460D02*
X9987753Y-15760936D01*
X9987753Y-15760936D02*
X9987753Y-15779984D01*
X10121086Y-15579984D02*
X10140134Y-15579984D01*
X10140134Y-15579984D02*
X10159182Y-15589508D01*
X10159182Y-15589508D02*
X10168705Y-15599031D01*
X10168705Y-15599031D02*
X10178229Y-15618079D01*
X10178229Y-15618079D02*
X10187753Y-15656174D01*
X10187753Y-15656174D02*
X10187753Y-15703793D01*
X10187753Y-15703793D02*
X10178229Y-15741888D01*
X10178229Y-15741888D02*
X10168705Y-15760936D01*
X10168705Y-15760936D02*
X10159182Y-15770460D01*
X10159182Y-15770460D02*
X10140134Y-15779984D01*
X10140134Y-15779984D02*
X10121086Y-15779984D01*
X10121086Y-15779984D02*
X10102039Y-15770460D01*
X10102039Y-15770460D02*
X10092515Y-15760936D01*
X10092515Y-15760936D02*
X10082991Y-15741888D01*
X10082991Y-15741888D02*
X10073467Y-15703793D01*
X10073467Y-15703793D02*
X10073467Y-15656174D01*
X10073467Y-15656174D02*
X10082991Y-15618079D01*
X10082991Y-15618079D02*
X10092515Y-15599031D01*
X10092515Y-15599031D02*
X10102039Y-15589508D01*
X10102039Y-15589508D02*
X10121086Y-15579984D01*
X10311563Y-15579984D02*
X10330610Y-15579984D01*
X10330610Y-15579984D02*
X10349658Y-15589508D01*
X10349658Y-15589508D02*
X10359182Y-15599031D01*
X10359182Y-15599031D02*
X10368705Y-15618079D01*
X10368705Y-15618079D02*
X10378229Y-15656174D01*
X10378229Y-15656174D02*
X10378229Y-15703793D01*
X10378229Y-15703793D02*
X10368705Y-15741888D01*
X10368705Y-15741888D02*
X10359182Y-15760936D01*
X10359182Y-15760936D02*
X10349658Y-15770460D01*
X10349658Y-15770460D02*
X10330610Y-15779984D01*
X10330610Y-15779984D02*
X10311563Y-15779984D01*
X10311563Y-15779984D02*
X10292515Y-15770460D01*
X10292515Y-15770460D02*
X10282991Y-15760936D01*
X10282991Y-15760936D02*
X10273467Y-15741888D01*
X10273467Y-15741888D02*
X10263944Y-15703793D01*
X10263944Y-15703793D02*
X10263944Y-15656174D01*
X10263944Y-15656174D02*
X10273467Y-15618079D01*
X10273467Y-15618079D02*
X10282991Y-15599031D01*
X10282991Y-15599031D02*
X10292515Y-15589508D01*
X10292515Y-15589508D02*
X10311563Y-15579984D01*
X10502039Y-15579984D02*
X10521086Y-15579984D01*
X10521086Y-15579984D02*
X10540134Y-15589508D01*
X10540134Y-15589508D02*
X10549658Y-15599031D01*
X10549658Y-15599031D02*
X10559182Y-15618079D01*
X10559182Y-15618079D02*
X10568705Y-15656174D01*
X10568705Y-15656174D02*
X10568705Y-15703793D01*
X10568705Y-15703793D02*
X10559182Y-15741888D01*
X10559182Y-15741888D02*
X10549658Y-15760936D01*
X10549658Y-15760936D02*
X10540134Y-15770460D01*
X10540134Y-15770460D02*
X10521086Y-15779984D01*
X10521086Y-15779984D02*
X10502039Y-15779984D01*
X10502039Y-15779984D02*
X10482991Y-15770460D01*
X10482991Y-15770460D02*
X10473467Y-15760936D01*
X10473467Y-15760936D02*
X10463944Y-15741888D01*
X10463944Y-15741888D02*
X10454420Y-15703793D01*
X10454420Y-15703793D02*
X10454420Y-15656174D01*
X10454420Y-15656174D02*
X10463944Y-15618079D01*
X10463944Y-15618079D02*
X10473467Y-15599031D01*
X10473467Y-15599031D02*
X10482991Y-15589508D01*
X10482991Y-15589508D02*
X10502039Y-15579984D01*
X10654420Y-15779984D02*
X10654420Y-15646650D01*
X10654420Y-15665698D02*
X10663944Y-15656174D01*
X10663944Y-15656174D02*
X10682991Y-15646650D01*
X10682991Y-15646650D02*
X10711563Y-15646650D01*
X10711563Y-15646650D02*
X10730610Y-15656174D01*
X10730610Y-15656174D02*
X10740134Y-15675222D01*
X10740134Y-15675222D02*
X10740134Y-15779984D01*
X10740134Y-15675222D02*
X10749658Y-15656174D01*
X10749658Y-15656174D02*
X10768705Y-15646650D01*
X10768705Y-15646650D02*
X10797277Y-15646650D01*
X10797277Y-15646650D02*
X10816325Y-15656174D01*
X10816325Y-15656174D02*
X10825848Y-15675222D01*
X10825848Y-15675222D02*
X10825848Y-15779984D01*
X10921086Y-15779984D02*
X10921086Y-15646650D01*
X10921086Y-15665698D02*
X10930610Y-15656174D01*
X10930610Y-15656174D02*
X10949658Y-15646650D01*
X10949658Y-15646650D02*
X10978229Y-15646650D01*
X10978229Y-15646650D02*
X10997277Y-15656174D01*
X10997277Y-15656174D02*
X11006801Y-15675222D01*
X11006801Y-15675222D02*
X11006801Y-15779984D01*
X11006801Y-15675222D02*
X11016325Y-15656174D01*
X11016325Y-15656174D02*
X11035372Y-15646650D01*
X11035372Y-15646650D02*
X11063944Y-15646650D01*
X11063944Y-15646650D02*
X11082991Y-15656174D01*
X11082991Y-15656174D02*
X11092515Y-15675222D01*
X11092515Y-15675222D02*
X11092515Y-15779984D01*
X11482991Y-15570460D02*
X11311563Y-15827603D01*
X11740134Y-15579984D02*
X11759182Y-15579984D01*
X11759182Y-15579984D02*
X11778229Y-15589508D01*
X11778229Y-15589508D02*
X11787753Y-15599031D01*
X11787753Y-15599031D02*
X11797277Y-15618079D01*
X11797277Y-15618079D02*
X11806801Y-15656174D01*
X11806801Y-15656174D02*
X11806801Y-15703793D01*
X11806801Y-15703793D02*
X11797277Y-15741888D01*
X11797277Y-15741888D02*
X11787753Y-15760936D01*
X11787753Y-15760936D02*
X11778229Y-15770460D01*
X11778229Y-15770460D02*
X11759182Y-15779984D01*
X11759182Y-15779984D02*
X11740134Y-15779984D01*
X11740134Y-15779984D02*
X11721086Y-15770460D01*
X11721086Y-15770460D02*
X11711563Y-15760936D01*
X11711563Y-15760936D02*
X11702039Y-15741888D01*
X11702039Y-15741888D02*
X11692515Y-15703793D01*
X11692515Y-15703793D02*
X11692515Y-15656174D01*
X11692515Y-15656174D02*
X11702039Y-15618079D01*
X11702039Y-15618079D02*
X11711563Y-15599031D01*
X11711563Y-15599031D02*
X11721086Y-15589508D01*
X11721086Y-15589508D02*
X11740134Y-15579984D01*
X11892515Y-15760936D02*
X11902039Y-15770460D01*
X11902039Y-15770460D02*
X11892515Y-15779984D01*
X11892515Y-15779984D02*
X11882991Y-15770460D01*
X11882991Y-15770460D02*
X11892515Y-15760936D01*
X11892515Y-15760936D02*
X11892515Y-15779984D01*
X12025848Y-15579984D02*
X12044896Y-15579984D01*
X12044896Y-15579984D02*
X12063944Y-15589508D01*
X12063944Y-15589508D02*
X12073467Y-15599031D01*
X12073467Y-15599031D02*
X12082991Y-15618079D01*
X12082991Y-15618079D02*
X12092515Y-15656174D01*
X12092515Y-15656174D02*
X12092515Y-15703793D01*
X12092515Y-15703793D02*
X12082991Y-15741888D01*
X12082991Y-15741888D02*
X12073467Y-15760936D01*
X12073467Y-15760936D02*
X12063944Y-15770460D01*
X12063944Y-15770460D02*
X12044896Y-15779984D01*
X12044896Y-15779984D02*
X12025848Y-15779984D01*
X12025848Y-15779984D02*
X12006801Y-15770460D01*
X12006801Y-15770460D02*
X11997277Y-15760936D01*
X11997277Y-15760936D02*
X11987753Y-15741888D01*
X11987753Y-15741888D02*
X11978229Y-15703793D01*
X11978229Y-15703793D02*
X11978229Y-15656174D01*
X11978229Y-15656174D02*
X11987753Y-15618079D01*
X11987753Y-15618079D02*
X11997277Y-15599031D01*
X11997277Y-15599031D02*
X12006801Y-15589508D01*
X12006801Y-15589508D02*
X12025848Y-15579984D01*
X12159182Y-15579984D02*
X12282991Y-15579984D01*
X12282991Y-15579984D02*
X12216325Y-15656174D01*
X12216325Y-15656174D02*
X12244896Y-15656174D01*
X12244896Y-15656174D02*
X12263944Y-15665698D01*
X12263944Y-15665698D02*
X12273467Y-15675222D01*
X12273467Y-15675222D02*
X12282991Y-15694269D01*
X12282991Y-15694269D02*
X12282991Y-15741888D01*
X12282991Y-15741888D02*
X12273467Y-15760936D01*
X12273467Y-15760936D02*
X12263944Y-15770460D01*
X12263944Y-15770460D02*
X12244896Y-15779984D01*
X12244896Y-15779984D02*
X12187753Y-15779984D01*
X12187753Y-15779984D02*
X12168706Y-15770460D01*
X12168706Y-15770460D02*
X12159182Y-15760936D01*
X12378229Y-15779984D02*
X12416325Y-15779984D01*
X12416325Y-15779984D02*
X12435372Y-15770460D01*
X12435372Y-15770460D02*
X12444896Y-15760936D01*
X12444896Y-15760936D02*
X12463944Y-15732365D01*
X12463944Y-15732365D02*
X12473467Y-15694269D01*
X12473467Y-15694269D02*
X12473467Y-15618079D01*
X12473467Y-15618079D02*
X12463944Y-15599031D01*
X12463944Y-15599031D02*
X12454420Y-15589508D01*
X12454420Y-15589508D02*
X12435372Y-15579984D01*
X12435372Y-15579984D02*
X12397277Y-15579984D01*
X12397277Y-15579984D02*
X12378229Y-15589508D01*
X12378229Y-15589508D02*
X12368706Y-15599031D01*
X12368706Y-15599031D02*
X12359182Y-15618079D01*
X12359182Y-15618079D02*
X12359182Y-15665698D01*
X12359182Y-15665698D02*
X12368706Y-15684746D01*
X12368706Y-15684746D02*
X12378229Y-15694269D01*
X12378229Y-15694269D02*
X12397277Y-15703793D01*
X12397277Y-15703793D02*
X12435372Y-15703793D01*
X12435372Y-15703793D02*
X12454420Y-15694269D01*
X12454420Y-15694269D02*
X12463944Y-15684746D01*
X12463944Y-15684746D02*
X12473467Y-15665698D01*
X12644896Y-15646650D02*
X12644896Y-15779984D01*
X12597277Y-15570460D02*
X12549658Y-15713317D01*
X12549658Y-15713317D02*
X12673467Y-15713317D01*
X12740134Y-15579984D02*
X12740134Y-15618079D01*
X12816325Y-15579984D02*
X12816325Y-15618079D01*
X13111563Y-15856174D02*
X13102039Y-15846650D01*
X13102039Y-15846650D02*
X13082991Y-15818079D01*
X13082991Y-15818079D02*
X13073468Y-15799031D01*
X13073468Y-15799031D02*
X13063944Y-15770460D01*
X13063944Y-15770460D02*
X13054420Y-15722841D01*
X13054420Y-15722841D02*
X13054420Y-15684746D01*
X13054420Y-15684746D02*
X13063944Y-15637127D01*
X13063944Y-15637127D02*
X13073468Y-15608555D01*
X13073468Y-15608555D02*
X13082991Y-15589508D01*
X13082991Y-15589508D02*
X13102039Y-15560936D01*
X13102039Y-15560936D02*
X13111563Y-15551412D01*
X13282991Y-15579984D02*
X13187753Y-15579984D01*
X13187753Y-15579984D02*
X13178229Y-15675222D01*
X13178229Y-15675222D02*
X13187753Y-15665698D01*
X13187753Y-15665698D02*
X13206801Y-15656174D01*
X13206801Y-15656174D02*
X13254420Y-15656174D01*
X13254420Y-15656174D02*
X13273468Y-15665698D01*
X13273468Y-15665698D02*
X13282991Y-15675222D01*
X13282991Y-15675222D02*
X13292515Y-15694269D01*
X13292515Y-15694269D02*
X13292515Y-15741888D01*
X13292515Y-15741888D02*
X13282991Y-15760936D01*
X13282991Y-15760936D02*
X13273468Y-15770460D01*
X13273468Y-15770460D02*
X13254420Y-15779984D01*
X13254420Y-15779984D02*
X13206801Y-15779984D01*
X13206801Y-15779984D02*
X13187753Y-15770460D01*
X13187753Y-15770460D02*
X13178229Y-15760936D01*
X13530610Y-15779984D02*
X13530610Y-15579984D01*
X13616325Y-15779984D02*
X13616325Y-15675222D01*
X13616325Y-15675222D02*
X13606801Y-15656174D01*
X13606801Y-15656174D02*
X13587753Y-15646650D01*
X13587753Y-15646650D02*
X13559182Y-15646650D01*
X13559182Y-15646650D02*
X13540134Y-15656174D01*
X13540134Y-15656174D02*
X13530610Y-15665698D01*
X13740134Y-15779984D02*
X13721087Y-15770460D01*
X13721087Y-15770460D02*
X13711563Y-15760936D01*
X13711563Y-15760936D02*
X13702039Y-15741888D01*
X13702039Y-15741888D02*
X13702039Y-15684746D01*
X13702039Y-15684746D02*
X13711563Y-15665698D01*
X13711563Y-15665698D02*
X13721087Y-15656174D01*
X13721087Y-15656174D02*
X13740134Y-15646650D01*
X13740134Y-15646650D02*
X13768706Y-15646650D01*
X13768706Y-15646650D02*
X13787753Y-15656174D01*
X13787753Y-15656174D02*
X13797277Y-15665698D01*
X13797277Y-15665698D02*
X13806801Y-15684746D01*
X13806801Y-15684746D02*
X13806801Y-15741888D01*
X13806801Y-15741888D02*
X13797277Y-15760936D01*
X13797277Y-15760936D02*
X13787753Y-15770460D01*
X13787753Y-15770460D02*
X13768706Y-15779984D01*
X13768706Y-15779984D02*
X13740134Y-15779984D01*
X13921087Y-15779984D02*
X13902039Y-15770460D01*
X13902039Y-15770460D02*
X13892515Y-15751412D01*
X13892515Y-15751412D02*
X13892515Y-15579984D01*
X14073468Y-15770460D02*
X14054420Y-15779984D01*
X14054420Y-15779984D02*
X14016325Y-15779984D01*
X14016325Y-15779984D02*
X13997277Y-15770460D01*
X13997277Y-15770460D02*
X13987753Y-15751412D01*
X13987753Y-15751412D02*
X13987753Y-15675222D01*
X13987753Y-15675222D02*
X13997277Y-15656174D01*
X13997277Y-15656174D02*
X14016325Y-15646650D01*
X14016325Y-15646650D02*
X14054420Y-15646650D01*
X14054420Y-15646650D02*
X14073468Y-15656174D01*
X14073468Y-15656174D02*
X14082991Y-15675222D01*
X14082991Y-15675222D02*
X14082991Y-15694269D01*
X14082991Y-15694269D02*
X13987753Y-15713317D01*
X14159182Y-15770460D02*
X14178230Y-15779984D01*
X14178230Y-15779984D02*
X14216325Y-15779984D01*
X14216325Y-15779984D02*
X14235372Y-15770460D01*
X14235372Y-15770460D02*
X14244896Y-15751412D01*
X14244896Y-15751412D02*
X14244896Y-15741888D01*
X14244896Y-15741888D02*
X14235372Y-15722841D01*
X14235372Y-15722841D02*
X14216325Y-15713317D01*
X14216325Y-15713317D02*
X14187753Y-15713317D01*
X14187753Y-15713317D02*
X14168706Y-15703793D01*
X14168706Y-15703793D02*
X14159182Y-15684746D01*
X14159182Y-15684746D02*
X14159182Y-15675222D01*
X14159182Y-15675222D02*
X14168706Y-15656174D01*
X14168706Y-15656174D02*
X14187753Y-15646650D01*
X14187753Y-15646650D02*
X14216325Y-15646650D01*
X14216325Y-15646650D02*
X14235372Y-15656174D01*
X14311563Y-15856174D02*
X14321087Y-15846650D01*
X14321087Y-15846650D02*
X14340134Y-15818079D01*
X14340134Y-15818079D02*
X14349658Y-15799031D01*
X14349658Y-15799031D02*
X14359182Y-15770460D01*
X14359182Y-15770460D02*
X14368706Y-15722841D01*
X14368706Y-15722841D02*
X14368706Y-15684746D01*
X14368706Y-15684746D02*
X14359182Y-15637127D01*
X14359182Y-15637127D02*
X14349658Y-15608555D01*
X14349658Y-15608555D02*
X14340134Y-15589508D01*
X14340134Y-15589508D02*
X14321087Y-15560936D01*
X14321087Y-15560936D02*
X14311563Y-15551412D01*
D13*
X9425500Y-15897000D02*
X9536500Y-16008000D01*
X9536500Y-15897000D02*
X9425500Y-16008000D01*
X9536500Y-15952500D02*
G75*
G02*
X9425500Y-15952500I-55500J0D01*
G01*
X9425500Y-15952500D02*
G75*
G02*
X9536500Y-15952500I55500J0D01*
G01*
D11*
X9902039Y-16043984D02*
X9787753Y-16043984D01*
X9844896Y-16043984D02*
X9844896Y-15843984D01*
X9844896Y-15843984D02*
X9825848Y-15872555D01*
X9825848Y-15872555D02*
X9806801Y-15891603D01*
X9806801Y-15891603D02*
X9787753Y-15901127D01*
X9987753Y-16024936D02*
X9997277Y-16034460D01*
X9997277Y-16034460D02*
X9987753Y-16043984D01*
X9987753Y-16043984D02*
X9978229Y-16034460D01*
X9978229Y-16034460D02*
X9987753Y-16024936D01*
X9987753Y-16024936D02*
X9987753Y-16043984D01*
X10187753Y-16043984D02*
X10073467Y-16043984D01*
X10130610Y-16043984D02*
X10130610Y-15843984D01*
X10130610Y-15843984D02*
X10111563Y-15872555D01*
X10111563Y-15872555D02*
X10092515Y-15891603D01*
X10092515Y-15891603D02*
X10073467Y-15901127D01*
X10378229Y-16043984D02*
X10263944Y-16043984D01*
X10321086Y-16043984D02*
X10321086Y-15843984D01*
X10321086Y-15843984D02*
X10302039Y-15872555D01*
X10302039Y-15872555D02*
X10282991Y-15891603D01*
X10282991Y-15891603D02*
X10263944Y-15901127D01*
X10502039Y-15843984D02*
X10521086Y-15843984D01*
X10521086Y-15843984D02*
X10540134Y-15853508D01*
X10540134Y-15853508D02*
X10549658Y-15863031D01*
X10549658Y-15863031D02*
X10559182Y-15882079D01*
X10559182Y-15882079D02*
X10568705Y-15920174D01*
X10568705Y-15920174D02*
X10568705Y-15967793D01*
X10568705Y-15967793D02*
X10559182Y-16005888D01*
X10559182Y-16005888D02*
X10549658Y-16024936D01*
X10549658Y-16024936D02*
X10540134Y-16034460D01*
X10540134Y-16034460D02*
X10521086Y-16043984D01*
X10521086Y-16043984D02*
X10502039Y-16043984D01*
X10502039Y-16043984D02*
X10482991Y-16034460D01*
X10482991Y-16034460D02*
X10473467Y-16024936D01*
X10473467Y-16024936D02*
X10463944Y-16005888D01*
X10463944Y-16005888D02*
X10454420Y-15967793D01*
X10454420Y-15967793D02*
X10454420Y-15920174D01*
X10454420Y-15920174D02*
X10463944Y-15882079D01*
X10463944Y-15882079D02*
X10473467Y-15863031D01*
X10473467Y-15863031D02*
X10482991Y-15853508D01*
X10482991Y-15853508D02*
X10502039Y-15843984D01*
X10654420Y-16043984D02*
X10654420Y-15910650D01*
X10654420Y-15929698D02*
X10663944Y-15920174D01*
X10663944Y-15920174D02*
X10682991Y-15910650D01*
X10682991Y-15910650D02*
X10711563Y-15910650D01*
X10711563Y-15910650D02*
X10730610Y-15920174D01*
X10730610Y-15920174D02*
X10740134Y-15939222D01*
X10740134Y-15939222D02*
X10740134Y-16043984D01*
X10740134Y-15939222D02*
X10749658Y-15920174D01*
X10749658Y-15920174D02*
X10768705Y-15910650D01*
X10768705Y-15910650D02*
X10797277Y-15910650D01*
X10797277Y-15910650D02*
X10816325Y-15920174D01*
X10816325Y-15920174D02*
X10825848Y-15939222D01*
X10825848Y-15939222D02*
X10825848Y-16043984D01*
X10921086Y-16043984D02*
X10921086Y-15910650D01*
X10921086Y-15929698D02*
X10930610Y-15920174D01*
X10930610Y-15920174D02*
X10949658Y-15910650D01*
X10949658Y-15910650D02*
X10978229Y-15910650D01*
X10978229Y-15910650D02*
X10997277Y-15920174D01*
X10997277Y-15920174D02*
X11006801Y-15939222D01*
X11006801Y-15939222D02*
X11006801Y-16043984D01*
X11006801Y-15939222D02*
X11016325Y-15920174D01*
X11016325Y-15920174D02*
X11035372Y-15910650D01*
X11035372Y-15910650D02*
X11063944Y-15910650D01*
X11063944Y-15910650D02*
X11082991Y-15920174D01*
X11082991Y-15920174D02*
X11092515Y-15939222D01*
X11092515Y-15939222D02*
X11092515Y-16043984D01*
X11482991Y-15834460D02*
X11311563Y-16091603D01*
X11740134Y-15843984D02*
X11759182Y-15843984D01*
X11759182Y-15843984D02*
X11778229Y-15853508D01*
X11778229Y-15853508D02*
X11787753Y-15863031D01*
X11787753Y-15863031D02*
X11797277Y-15882079D01*
X11797277Y-15882079D02*
X11806801Y-15920174D01*
X11806801Y-15920174D02*
X11806801Y-15967793D01*
X11806801Y-15967793D02*
X11797277Y-16005888D01*
X11797277Y-16005888D02*
X11787753Y-16024936D01*
X11787753Y-16024936D02*
X11778229Y-16034460D01*
X11778229Y-16034460D02*
X11759182Y-16043984D01*
X11759182Y-16043984D02*
X11740134Y-16043984D01*
X11740134Y-16043984D02*
X11721086Y-16034460D01*
X11721086Y-16034460D02*
X11711563Y-16024936D01*
X11711563Y-16024936D02*
X11702039Y-16005888D01*
X11702039Y-16005888D02*
X11692515Y-15967793D01*
X11692515Y-15967793D02*
X11692515Y-15920174D01*
X11692515Y-15920174D02*
X11702039Y-15882079D01*
X11702039Y-15882079D02*
X11711563Y-15863031D01*
X11711563Y-15863031D02*
X11721086Y-15853508D01*
X11721086Y-15853508D02*
X11740134Y-15843984D01*
X11892515Y-16024936D02*
X11902039Y-16034460D01*
X11902039Y-16034460D02*
X11892515Y-16043984D01*
X11892515Y-16043984D02*
X11882991Y-16034460D01*
X11882991Y-16034460D02*
X11892515Y-16024936D01*
X11892515Y-16024936D02*
X11892515Y-16043984D01*
X12025848Y-15843984D02*
X12044896Y-15843984D01*
X12044896Y-15843984D02*
X12063944Y-15853508D01*
X12063944Y-15853508D02*
X12073467Y-15863031D01*
X12073467Y-15863031D02*
X12082991Y-15882079D01*
X12082991Y-15882079D02*
X12092515Y-15920174D01*
X12092515Y-15920174D02*
X12092515Y-15967793D01*
X12092515Y-15967793D02*
X12082991Y-16005888D01*
X12082991Y-16005888D02*
X12073467Y-16024936D01*
X12073467Y-16024936D02*
X12063944Y-16034460D01*
X12063944Y-16034460D02*
X12044896Y-16043984D01*
X12044896Y-16043984D02*
X12025848Y-16043984D01*
X12025848Y-16043984D02*
X12006801Y-16034460D01*
X12006801Y-16034460D02*
X11997277Y-16024936D01*
X11997277Y-16024936D02*
X11987753Y-16005888D01*
X11987753Y-16005888D02*
X11978229Y-15967793D01*
X11978229Y-15967793D02*
X11978229Y-15920174D01*
X11978229Y-15920174D02*
X11987753Y-15882079D01*
X11987753Y-15882079D02*
X11997277Y-15863031D01*
X11997277Y-15863031D02*
X12006801Y-15853508D01*
X12006801Y-15853508D02*
X12025848Y-15843984D01*
X12263944Y-15910650D02*
X12263944Y-16043984D01*
X12216325Y-15834460D02*
X12168706Y-15977317D01*
X12168706Y-15977317D02*
X12292515Y-15977317D01*
X12349658Y-15843984D02*
X12473467Y-15843984D01*
X12473467Y-15843984D02*
X12406801Y-15920174D01*
X12406801Y-15920174D02*
X12435372Y-15920174D01*
X12435372Y-15920174D02*
X12454420Y-15929698D01*
X12454420Y-15929698D02*
X12463944Y-15939222D01*
X12463944Y-15939222D02*
X12473467Y-15958269D01*
X12473467Y-15958269D02*
X12473467Y-16005888D01*
X12473467Y-16005888D02*
X12463944Y-16024936D01*
X12463944Y-16024936D02*
X12454420Y-16034460D01*
X12454420Y-16034460D02*
X12435372Y-16043984D01*
X12435372Y-16043984D02*
X12378229Y-16043984D01*
X12378229Y-16043984D02*
X12359182Y-16034460D01*
X12359182Y-16034460D02*
X12349658Y-16024936D01*
X12540134Y-15843984D02*
X12673467Y-15843984D01*
X12673467Y-15843984D02*
X12587753Y-16043984D01*
X12740134Y-15843984D02*
X12740134Y-15882079D01*
X12816325Y-15843984D02*
X12816325Y-15882079D01*
X13111563Y-16120174D02*
X13102039Y-16110650D01*
X13102039Y-16110650D02*
X13082991Y-16082079D01*
X13082991Y-16082079D02*
X13073468Y-16063031D01*
X13073468Y-16063031D02*
X13063944Y-16034460D01*
X13063944Y-16034460D02*
X13054420Y-15986841D01*
X13054420Y-15986841D02*
X13054420Y-15948746D01*
X13054420Y-15948746D02*
X13063944Y-15901127D01*
X13063944Y-15901127D02*
X13073468Y-15872555D01*
X13073468Y-15872555D02*
X13082991Y-15853508D01*
X13082991Y-15853508D02*
X13102039Y-15824936D01*
X13102039Y-15824936D02*
X13111563Y-15815412D01*
X13273468Y-15910650D02*
X13273468Y-16043984D01*
X13225848Y-15834460D02*
X13178229Y-15977317D01*
X13178229Y-15977317D02*
X13302039Y-15977317D01*
X13463944Y-15910650D02*
X13463944Y-16043984D01*
X13416325Y-15834460D02*
X13368706Y-15977317D01*
X13368706Y-15977317D02*
X13492515Y-15977317D01*
X13721087Y-16043984D02*
X13721087Y-15843984D01*
X13806801Y-16043984D02*
X13806801Y-15939222D01*
X13806801Y-15939222D02*
X13797277Y-15920174D01*
X13797277Y-15920174D02*
X13778230Y-15910650D01*
X13778230Y-15910650D02*
X13749658Y-15910650D01*
X13749658Y-15910650D02*
X13730610Y-15920174D01*
X13730610Y-15920174D02*
X13721087Y-15929698D01*
X13930610Y-16043984D02*
X13911563Y-16034460D01*
X13911563Y-16034460D02*
X13902039Y-16024936D01*
X13902039Y-16024936D02*
X13892515Y-16005888D01*
X13892515Y-16005888D02*
X13892515Y-15948746D01*
X13892515Y-15948746D02*
X13902039Y-15929698D01*
X13902039Y-15929698D02*
X13911563Y-15920174D01*
X13911563Y-15920174D02*
X13930610Y-15910650D01*
X13930610Y-15910650D02*
X13959182Y-15910650D01*
X13959182Y-15910650D02*
X13978230Y-15920174D01*
X13978230Y-15920174D02*
X13987753Y-15929698D01*
X13987753Y-15929698D02*
X13997277Y-15948746D01*
X13997277Y-15948746D02*
X13997277Y-16005888D01*
X13997277Y-16005888D02*
X13987753Y-16024936D01*
X13987753Y-16024936D02*
X13978230Y-16034460D01*
X13978230Y-16034460D02*
X13959182Y-16043984D01*
X13959182Y-16043984D02*
X13930610Y-16043984D01*
X14111563Y-16043984D02*
X14092515Y-16034460D01*
X14092515Y-16034460D02*
X14082991Y-16015412D01*
X14082991Y-16015412D02*
X14082991Y-15843984D01*
X14263944Y-16034460D02*
X14244896Y-16043984D01*
X14244896Y-16043984D02*
X14206801Y-16043984D01*
X14206801Y-16043984D02*
X14187753Y-16034460D01*
X14187753Y-16034460D02*
X14178230Y-16015412D01*
X14178230Y-16015412D02*
X14178230Y-15939222D01*
X14178230Y-15939222D02*
X14187753Y-15920174D01*
X14187753Y-15920174D02*
X14206801Y-15910650D01*
X14206801Y-15910650D02*
X14244896Y-15910650D01*
X14244896Y-15910650D02*
X14263944Y-15920174D01*
X14263944Y-15920174D02*
X14273468Y-15939222D01*
X14273468Y-15939222D02*
X14273468Y-15958269D01*
X14273468Y-15958269D02*
X14178230Y-15977317D01*
X14349658Y-16034460D02*
X14368706Y-16043984D01*
X14368706Y-16043984D02*
X14406801Y-16043984D01*
X14406801Y-16043984D02*
X14425849Y-16034460D01*
X14425849Y-16034460D02*
X14435372Y-16015412D01*
X14435372Y-16015412D02*
X14435372Y-16005888D01*
X14435372Y-16005888D02*
X14425849Y-15986841D01*
X14425849Y-15986841D02*
X14406801Y-15977317D01*
X14406801Y-15977317D02*
X14378230Y-15977317D01*
X14378230Y-15977317D02*
X14359182Y-15967793D01*
X14359182Y-15967793D02*
X14349658Y-15948746D01*
X14349658Y-15948746D02*
X14349658Y-15939222D01*
X14349658Y-15939222D02*
X14359182Y-15920174D01*
X14359182Y-15920174D02*
X14378230Y-15910650D01*
X14378230Y-15910650D02*
X14406801Y-15910650D01*
X14406801Y-15910650D02*
X14425849Y-15920174D01*
X14502039Y-16120174D02*
X14511563Y-16110650D01*
X14511563Y-16110650D02*
X14530611Y-16082079D01*
X14530611Y-16082079D02*
X14540134Y-16063031D01*
X14540134Y-16063031D02*
X14549658Y-16034460D01*
X14549658Y-16034460D02*
X14559182Y-15986841D01*
X14559182Y-15986841D02*
X14559182Y-15948746D01*
X14559182Y-15948746D02*
X14549658Y-15901127D01*
X14549658Y-15901127D02*
X14540134Y-15872555D01*
X14540134Y-15872555D02*
X14530611Y-15853508D01*
X14530611Y-15853508D02*
X14511563Y-15824936D01*
X14511563Y-15824936D02*
X14502039Y-15815412D01*
D14*
X9396500Y-16146500D02*
X9536500Y-16286500D01*
X9536500Y-16146500D02*
X9396500Y-16286500D01*
X9466500Y-16146500D02*
X9466500Y-16286500D01*
X9396500Y-16216500D02*
X9536500Y-16216500D01*
D11*
X9902039Y-16307984D02*
X9787753Y-16307984D01*
X9844896Y-16307984D02*
X9844896Y-16107984D01*
X9844896Y-16107984D02*
X9825848Y-16136555D01*
X9825848Y-16136555D02*
X9806801Y-16155603D01*
X9806801Y-16155603D02*
X9787753Y-16165127D01*
X9987753Y-16288936D02*
X9997277Y-16298460D01*
X9997277Y-16298460D02*
X9987753Y-16307984D01*
X9987753Y-16307984D02*
X9978229Y-16298460D01*
X9978229Y-16298460D02*
X9987753Y-16288936D01*
X9987753Y-16288936D02*
X9987753Y-16307984D01*
X10168705Y-16174650D02*
X10168705Y-16307984D01*
X10121086Y-16098460D02*
X10073467Y-16241317D01*
X10073467Y-16241317D02*
X10197277Y-16241317D01*
X10311563Y-16107984D02*
X10330610Y-16107984D01*
X10330610Y-16107984D02*
X10349658Y-16117508D01*
X10349658Y-16117508D02*
X10359182Y-16127031D01*
X10359182Y-16127031D02*
X10368705Y-16146079D01*
X10368705Y-16146079D02*
X10378229Y-16184174D01*
X10378229Y-16184174D02*
X10378229Y-16231793D01*
X10378229Y-16231793D02*
X10368705Y-16269888D01*
X10368705Y-16269888D02*
X10359182Y-16288936D01*
X10359182Y-16288936D02*
X10349658Y-16298460D01*
X10349658Y-16298460D02*
X10330610Y-16307984D01*
X10330610Y-16307984D02*
X10311563Y-16307984D01*
X10311563Y-16307984D02*
X10292515Y-16298460D01*
X10292515Y-16298460D02*
X10282991Y-16288936D01*
X10282991Y-16288936D02*
X10273467Y-16269888D01*
X10273467Y-16269888D02*
X10263944Y-16231793D01*
X10263944Y-16231793D02*
X10263944Y-16184174D01*
X10263944Y-16184174D02*
X10273467Y-16146079D01*
X10273467Y-16146079D02*
X10282991Y-16127031D01*
X10282991Y-16127031D02*
X10292515Y-16117508D01*
X10292515Y-16117508D02*
X10311563Y-16107984D01*
X10502039Y-16107984D02*
X10521086Y-16107984D01*
X10521086Y-16107984D02*
X10540134Y-16117508D01*
X10540134Y-16117508D02*
X10549658Y-16127031D01*
X10549658Y-16127031D02*
X10559182Y-16146079D01*
X10559182Y-16146079D02*
X10568705Y-16184174D01*
X10568705Y-16184174D02*
X10568705Y-16231793D01*
X10568705Y-16231793D02*
X10559182Y-16269888D01*
X10559182Y-16269888D02*
X10549658Y-16288936D01*
X10549658Y-16288936D02*
X10540134Y-16298460D01*
X10540134Y-16298460D02*
X10521086Y-16307984D01*
X10521086Y-16307984D02*
X10502039Y-16307984D01*
X10502039Y-16307984D02*
X10482991Y-16298460D01*
X10482991Y-16298460D02*
X10473467Y-16288936D01*
X10473467Y-16288936D02*
X10463944Y-16269888D01*
X10463944Y-16269888D02*
X10454420Y-16231793D01*
X10454420Y-16231793D02*
X10454420Y-16184174D01*
X10454420Y-16184174D02*
X10463944Y-16146079D01*
X10463944Y-16146079D02*
X10473467Y-16127031D01*
X10473467Y-16127031D02*
X10482991Y-16117508D01*
X10482991Y-16117508D02*
X10502039Y-16107984D01*
X10654420Y-16307984D02*
X10654420Y-16174650D01*
X10654420Y-16193698D02*
X10663944Y-16184174D01*
X10663944Y-16184174D02*
X10682991Y-16174650D01*
X10682991Y-16174650D02*
X10711563Y-16174650D01*
X10711563Y-16174650D02*
X10730610Y-16184174D01*
X10730610Y-16184174D02*
X10740134Y-16203222D01*
X10740134Y-16203222D02*
X10740134Y-16307984D01*
X10740134Y-16203222D02*
X10749658Y-16184174D01*
X10749658Y-16184174D02*
X10768705Y-16174650D01*
X10768705Y-16174650D02*
X10797277Y-16174650D01*
X10797277Y-16174650D02*
X10816325Y-16184174D01*
X10816325Y-16184174D02*
X10825848Y-16203222D01*
X10825848Y-16203222D02*
X10825848Y-16307984D01*
X10921086Y-16307984D02*
X10921086Y-16174650D01*
X10921086Y-16193698D02*
X10930610Y-16184174D01*
X10930610Y-16184174D02*
X10949658Y-16174650D01*
X10949658Y-16174650D02*
X10978229Y-16174650D01*
X10978229Y-16174650D02*
X10997277Y-16184174D01*
X10997277Y-16184174D02*
X11006801Y-16203222D01*
X11006801Y-16203222D02*
X11006801Y-16307984D01*
X11006801Y-16203222D02*
X11016325Y-16184174D01*
X11016325Y-16184174D02*
X11035372Y-16174650D01*
X11035372Y-16174650D02*
X11063944Y-16174650D01*
X11063944Y-16174650D02*
X11082991Y-16184174D01*
X11082991Y-16184174D02*
X11092515Y-16203222D01*
X11092515Y-16203222D02*
X11092515Y-16307984D01*
X11482991Y-16098460D02*
X11311563Y-16355603D01*
X11740134Y-16107984D02*
X11759182Y-16107984D01*
X11759182Y-16107984D02*
X11778229Y-16117508D01*
X11778229Y-16117508D02*
X11787753Y-16127031D01*
X11787753Y-16127031D02*
X11797277Y-16146079D01*
X11797277Y-16146079D02*
X11806801Y-16184174D01*
X11806801Y-16184174D02*
X11806801Y-16231793D01*
X11806801Y-16231793D02*
X11797277Y-16269888D01*
X11797277Y-16269888D02*
X11787753Y-16288936D01*
X11787753Y-16288936D02*
X11778229Y-16298460D01*
X11778229Y-16298460D02*
X11759182Y-16307984D01*
X11759182Y-16307984D02*
X11740134Y-16307984D01*
X11740134Y-16307984D02*
X11721086Y-16298460D01*
X11721086Y-16298460D02*
X11711563Y-16288936D01*
X11711563Y-16288936D02*
X11702039Y-16269888D01*
X11702039Y-16269888D02*
X11692515Y-16231793D01*
X11692515Y-16231793D02*
X11692515Y-16184174D01*
X11692515Y-16184174D02*
X11702039Y-16146079D01*
X11702039Y-16146079D02*
X11711563Y-16127031D01*
X11711563Y-16127031D02*
X11721086Y-16117508D01*
X11721086Y-16117508D02*
X11740134Y-16107984D01*
X11892515Y-16288936D02*
X11902039Y-16298460D01*
X11902039Y-16298460D02*
X11892515Y-16307984D01*
X11892515Y-16307984D02*
X11882991Y-16298460D01*
X11882991Y-16298460D02*
X11892515Y-16288936D01*
X11892515Y-16288936D02*
X11892515Y-16307984D01*
X12025848Y-16107984D02*
X12044896Y-16107984D01*
X12044896Y-16107984D02*
X12063944Y-16117508D01*
X12063944Y-16117508D02*
X12073467Y-16127031D01*
X12073467Y-16127031D02*
X12082991Y-16146079D01*
X12082991Y-16146079D02*
X12092515Y-16184174D01*
X12092515Y-16184174D02*
X12092515Y-16231793D01*
X12092515Y-16231793D02*
X12082991Y-16269888D01*
X12082991Y-16269888D02*
X12073467Y-16288936D01*
X12073467Y-16288936D02*
X12063944Y-16298460D01*
X12063944Y-16298460D02*
X12044896Y-16307984D01*
X12044896Y-16307984D02*
X12025848Y-16307984D01*
X12025848Y-16307984D02*
X12006801Y-16298460D01*
X12006801Y-16298460D02*
X11997277Y-16288936D01*
X11997277Y-16288936D02*
X11987753Y-16269888D01*
X11987753Y-16269888D02*
X11978229Y-16231793D01*
X11978229Y-16231793D02*
X11978229Y-16184174D01*
X11978229Y-16184174D02*
X11987753Y-16146079D01*
X11987753Y-16146079D02*
X11997277Y-16127031D01*
X11997277Y-16127031D02*
X12006801Y-16117508D01*
X12006801Y-16117508D02*
X12025848Y-16107984D01*
X12273467Y-16107984D02*
X12178229Y-16107984D01*
X12178229Y-16107984D02*
X12168706Y-16203222D01*
X12168706Y-16203222D02*
X12178229Y-16193698D01*
X12178229Y-16193698D02*
X12197277Y-16184174D01*
X12197277Y-16184174D02*
X12244896Y-16184174D01*
X12244896Y-16184174D02*
X12263944Y-16193698D01*
X12263944Y-16193698D02*
X12273467Y-16203222D01*
X12273467Y-16203222D02*
X12282991Y-16222269D01*
X12282991Y-16222269D02*
X12282991Y-16269888D01*
X12282991Y-16269888D02*
X12273467Y-16288936D01*
X12273467Y-16288936D02*
X12263944Y-16298460D01*
X12263944Y-16298460D02*
X12244896Y-16307984D01*
X12244896Y-16307984D02*
X12197277Y-16307984D01*
X12197277Y-16307984D02*
X12178229Y-16298460D01*
X12178229Y-16298460D02*
X12168706Y-16288936D01*
X12463944Y-16107984D02*
X12368706Y-16107984D01*
X12368706Y-16107984D02*
X12359182Y-16203222D01*
X12359182Y-16203222D02*
X12368706Y-16193698D01*
X12368706Y-16193698D02*
X12387753Y-16184174D01*
X12387753Y-16184174D02*
X12435372Y-16184174D01*
X12435372Y-16184174D02*
X12454420Y-16193698D01*
X12454420Y-16193698D02*
X12463944Y-16203222D01*
X12463944Y-16203222D02*
X12473467Y-16222269D01*
X12473467Y-16222269D02*
X12473467Y-16269888D01*
X12473467Y-16269888D02*
X12463944Y-16288936D01*
X12463944Y-16288936D02*
X12454420Y-16298460D01*
X12454420Y-16298460D02*
X12435372Y-16307984D01*
X12435372Y-16307984D02*
X12387753Y-16307984D01*
X12387753Y-16307984D02*
X12368706Y-16298460D01*
X12368706Y-16298460D02*
X12359182Y-16288936D01*
X12663944Y-16307984D02*
X12549658Y-16307984D01*
X12606801Y-16307984D02*
X12606801Y-16107984D01*
X12606801Y-16107984D02*
X12587753Y-16136555D01*
X12587753Y-16136555D02*
X12568706Y-16155603D01*
X12568706Y-16155603D02*
X12549658Y-16165127D01*
X12740134Y-16107984D02*
X12740134Y-16146079D01*
X12816325Y-16107984D02*
X12816325Y-16146079D01*
X13111563Y-16384174D02*
X13102039Y-16374650D01*
X13102039Y-16374650D02*
X13082991Y-16346079D01*
X13082991Y-16346079D02*
X13073468Y-16327031D01*
X13073468Y-16327031D02*
X13063944Y-16298460D01*
X13063944Y-16298460D02*
X13054420Y-16250841D01*
X13054420Y-16250841D02*
X13054420Y-16212746D01*
X13054420Y-16212746D02*
X13063944Y-16165127D01*
X13063944Y-16165127D02*
X13073468Y-16136555D01*
X13073468Y-16136555D02*
X13082991Y-16117508D01*
X13082991Y-16117508D02*
X13102039Y-16088936D01*
X13102039Y-16088936D02*
X13111563Y-16079412D01*
X13273468Y-16174650D02*
X13273468Y-16307984D01*
X13225848Y-16098460D02*
X13178229Y-16241317D01*
X13178229Y-16241317D02*
X13302039Y-16241317D01*
X13473468Y-16107984D02*
X13378229Y-16107984D01*
X13378229Y-16107984D02*
X13368706Y-16203222D01*
X13368706Y-16203222D02*
X13378229Y-16193698D01*
X13378229Y-16193698D02*
X13397277Y-16184174D01*
X13397277Y-16184174D02*
X13444896Y-16184174D01*
X13444896Y-16184174D02*
X13463944Y-16193698D01*
X13463944Y-16193698D02*
X13473468Y-16203222D01*
X13473468Y-16203222D02*
X13482991Y-16222269D01*
X13482991Y-16222269D02*
X13482991Y-16269888D01*
X13482991Y-16269888D02*
X13473468Y-16288936D01*
X13473468Y-16288936D02*
X13463944Y-16298460D01*
X13463944Y-16298460D02*
X13444896Y-16307984D01*
X13444896Y-16307984D02*
X13397277Y-16307984D01*
X13397277Y-16307984D02*
X13378229Y-16298460D01*
X13378229Y-16298460D02*
X13368706Y-16288936D01*
X13721087Y-16307984D02*
X13721087Y-16107984D01*
X13806801Y-16307984D02*
X13806801Y-16203222D01*
X13806801Y-16203222D02*
X13797277Y-16184174D01*
X13797277Y-16184174D02*
X13778230Y-16174650D01*
X13778230Y-16174650D02*
X13749658Y-16174650D01*
X13749658Y-16174650D02*
X13730610Y-16184174D01*
X13730610Y-16184174D02*
X13721087Y-16193698D01*
X13930610Y-16307984D02*
X13911563Y-16298460D01*
X13911563Y-16298460D02*
X13902039Y-16288936D01*
X13902039Y-16288936D02*
X13892515Y-16269888D01*
X13892515Y-16269888D02*
X13892515Y-16212746D01*
X13892515Y-16212746D02*
X13902039Y-16193698D01*
X13902039Y-16193698D02*
X13911563Y-16184174D01*
X13911563Y-16184174D02*
X13930610Y-16174650D01*
X13930610Y-16174650D02*
X13959182Y-16174650D01*
X13959182Y-16174650D02*
X13978230Y-16184174D01*
X13978230Y-16184174D02*
X13987753Y-16193698D01*
X13987753Y-16193698D02*
X13997277Y-16212746D01*
X13997277Y-16212746D02*
X13997277Y-16269888D01*
X13997277Y-16269888D02*
X13987753Y-16288936D01*
X13987753Y-16288936D02*
X13978230Y-16298460D01*
X13978230Y-16298460D02*
X13959182Y-16307984D01*
X13959182Y-16307984D02*
X13930610Y-16307984D01*
X14111563Y-16307984D02*
X14092515Y-16298460D01*
X14092515Y-16298460D02*
X14082991Y-16279412D01*
X14082991Y-16279412D02*
X14082991Y-16107984D01*
X14263944Y-16298460D02*
X14244896Y-16307984D01*
X14244896Y-16307984D02*
X14206801Y-16307984D01*
X14206801Y-16307984D02*
X14187753Y-16298460D01*
X14187753Y-16298460D02*
X14178230Y-16279412D01*
X14178230Y-16279412D02*
X14178230Y-16203222D01*
X14178230Y-16203222D02*
X14187753Y-16184174D01*
X14187753Y-16184174D02*
X14206801Y-16174650D01*
X14206801Y-16174650D02*
X14244896Y-16174650D01*
X14244896Y-16174650D02*
X14263944Y-16184174D01*
X14263944Y-16184174D02*
X14273468Y-16203222D01*
X14273468Y-16203222D02*
X14273468Y-16222269D01*
X14273468Y-16222269D02*
X14178230Y-16241317D01*
X14349658Y-16298460D02*
X14368706Y-16307984D01*
X14368706Y-16307984D02*
X14406801Y-16307984D01*
X14406801Y-16307984D02*
X14425849Y-16298460D01*
X14425849Y-16298460D02*
X14435372Y-16279412D01*
X14435372Y-16279412D02*
X14435372Y-16269888D01*
X14435372Y-16269888D02*
X14425849Y-16250841D01*
X14425849Y-16250841D02*
X14406801Y-16241317D01*
X14406801Y-16241317D02*
X14378230Y-16241317D01*
X14378230Y-16241317D02*
X14359182Y-16231793D01*
X14359182Y-16231793D02*
X14349658Y-16212746D01*
X14349658Y-16212746D02*
X14349658Y-16203222D01*
X14349658Y-16203222D02*
X14359182Y-16184174D01*
X14359182Y-16184174D02*
X14378230Y-16174650D01*
X14378230Y-16174650D02*
X14406801Y-16174650D01*
X14406801Y-16174650D02*
X14425849Y-16184174D01*
X14502039Y-16384174D02*
X14511563Y-16374650D01*
X14511563Y-16374650D02*
X14530611Y-16346079D01*
X14530611Y-16346079D02*
X14540134Y-16327031D01*
X14540134Y-16327031D02*
X14549658Y-16298460D01*
X14549658Y-16298460D02*
X14559182Y-16250841D01*
X14559182Y-16250841D02*
X14559182Y-16212746D01*
X14559182Y-16212746D02*
X14549658Y-16165127D01*
X14549658Y-16165127D02*
X14540134Y-16136555D01*
X14540134Y-16136555D02*
X14530611Y-16117508D01*
X14530611Y-16117508D02*
X14511563Y-16088936D01*
X14511563Y-16088936D02*
X14502039Y-16079412D01*
D15*
X9356500Y-16390500D02*
X9536500Y-16570500D01*
X9536500Y-16390500D02*
X9356500Y-16570500D01*
X9510140Y-16544140D02*
X9510140Y-16416860D01*
X9382860Y-16416860D01*
X9382860Y-16544140D01*
X9510140Y-16544140D01*
D11*
X9902039Y-16571984D02*
X9787753Y-16571984D01*
X9844896Y-16571984D02*
X9844896Y-16371984D01*
X9844896Y-16371984D02*
X9825848Y-16400555D01*
X9825848Y-16400555D02*
X9806801Y-16419603D01*
X9806801Y-16419603D02*
X9787753Y-16429127D01*
X9987753Y-16552936D02*
X9997277Y-16562460D01*
X9997277Y-16562460D02*
X9987753Y-16571984D01*
X9987753Y-16571984D02*
X9978229Y-16562460D01*
X9978229Y-16562460D02*
X9987753Y-16552936D01*
X9987753Y-16552936D02*
X9987753Y-16571984D01*
X10111563Y-16457698D02*
X10092515Y-16448174D01*
X10092515Y-16448174D02*
X10082991Y-16438650D01*
X10082991Y-16438650D02*
X10073467Y-16419603D01*
X10073467Y-16419603D02*
X10073467Y-16410079D01*
X10073467Y-16410079D02*
X10082991Y-16391031D01*
X10082991Y-16391031D02*
X10092515Y-16381508D01*
X10092515Y-16381508D02*
X10111563Y-16371984D01*
X10111563Y-16371984D02*
X10149658Y-16371984D01*
X10149658Y-16371984D02*
X10168705Y-16381508D01*
X10168705Y-16381508D02*
X10178229Y-16391031D01*
X10178229Y-16391031D02*
X10187753Y-16410079D01*
X10187753Y-16410079D02*
X10187753Y-16419603D01*
X10187753Y-16419603D02*
X10178229Y-16438650D01*
X10178229Y-16438650D02*
X10168705Y-16448174D01*
X10168705Y-16448174D02*
X10149658Y-16457698D01*
X10149658Y-16457698D02*
X10111563Y-16457698D01*
X10111563Y-16457698D02*
X10092515Y-16467222D01*
X10092515Y-16467222D02*
X10082991Y-16476746D01*
X10082991Y-16476746D02*
X10073467Y-16495793D01*
X10073467Y-16495793D02*
X10073467Y-16533888D01*
X10073467Y-16533888D02*
X10082991Y-16552936D01*
X10082991Y-16552936D02*
X10092515Y-16562460D01*
X10092515Y-16562460D02*
X10111563Y-16571984D01*
X10111563Y-16571984D02*
X10149658Y-16571984D01*
X10149658Y-16571984D02*
X10168705Y-16562460D01*
X10168705Y-16562460D02*
X10178229Y-16552936D01*
X10178229Y-16552936D02*
X10187753Y-16533888D01*
X10187753Y-16533888D02*
X10187753Y-16495793D01*
X10187753Y-16495793D02*
X10178229Y-16476746D01*
X10178229Y-16476746D02*
X10168705Y-16467222D01*
X10168705Y-16467222D02*
X10149658Y-16457698D01*
X10311563Y-16371984D02*
X10330610Y-16371984D01*
X10330610Y-16371984D02*
X10349658Y-16381508D01*
X10349658Y-16381508D02*
X10359182Y-16391031D01*
X10359182Y-16391031D02*
X10368705Y-16410079D01*
X10368705Y-16410079D02*
X10378229Y-16448174D01*
X10378229Y-16448174D02*
X10378229Y-16495793D01*
X10378229Y-16495793D02*
X10368705Y-16533888D01*
X10368705Y-16533888D02*
X10359182Y-16552936D01*
X10359182Y-16552936D02*
X10349658Y-16562460D01*
X10349658Y-16562460D02*
X10330610Y-16571984D01*
X10330610Y-16571984D02*
X10311563Y-16571984D01*
X10311563Y-16571984D02*
X10292515Y-16562460D01*
X10292515Y-16562460D02*
X10282991Y-16552936D01*
X10282991Y-16552936D02*
X10273467Y-16533888D01*
X10273467Y-16533888D02*
X10263944Y-16495793D01*
X10263944Y-16495793D02*
X10263944Y-16448174D01*
X10263944Y-16448174D02*
X10273467Y-16410079D01*
X10273467Y-16410079D02*
X10282991Y-16391031D01*
X10282991Y-16391031D02*
X10292515Y-16381508D01*
X10292515Y-16381508D02*
X10311563Y-16371984D01*
X10502039Y-16371984D02*
X10521086Y-16371984D01*
X10521086Y-16371984D02*
X10540134Y-16381508D01*
X10540134Y-16381508D02*
X10549658Y-16391031D01*
X10549658Y-16391031D02*
X10559182Y-16410079D01*
X10559182Y-16410079D02*
X10568705Y-16448174D01*
X10568705Y-16448174D02*
X10568705Y-16495793D01*
X10568705Y-16495793D02*
X10559182Y-16533888D01*
X10559182Y-16533888D02*
X10549658Y-16552936D01*
X10549658Y-16552936D02*
X10540134Y-16562460D01*
X10540134Y-16562460D02*
X10521086Y-16571984D01*
X10521086Y-16571984D02*
X10502039Y-16571984D01*
X10502039Y-16571984D02*
X10482991Y-16562460D01*
X10482991Y-16562460D02*
X10473467Y-16552936D01*
X10473467Y-16552936D02*
X10463944Y-16533888D01*
X10463944Y-16533888D02*
X10454420Y-16495793D01*
X10454420Y-16495793D02*
X10454420Y-16448174D01*
X10454420Y-16448174D02*
X10463944Y-16410079D01*
X10463944Y-16410079D02*
X10473467Y-16391031D01*
X10473467Y-16391031D02*
X10482991Y-16381508D01*
X10482991Y-16381508D02*
X10502039Y-16371984D01*
X10654420Y-16571984D02*
X10654420Y-16438650D01*
X10654420Y-16457698D02*
X10663944Y-16448174D01*
X10663944Y-16448174D02*
X10682991Y-16438650D01*
X10682991Y-16438650D02*
X10711563Y-16438650D01*
X10711563Y-16438650D02*
X10730610Y-16448174D01*
X10730610Y-16448174D02*
X10740134Y-16467222D01*
X10740134Y-16467222D02*
X10740134Y-16571984D01*
X10740134Y-16467222D02*
X10749658Y-16448174D01*
X10749658Y-16448174D02*
X10768705Y-16438650D01*
X10768705Y-16438650D02*
X10797277Y-16438650D01*
X10797277Y-16438650D02*
X10816325Y-16448174D01*
X10816325Y-16448174D02*
X10825848Y-16467222D01*
X10825848Y-16467222D02*
X10825848Y-16571984D01*
X10921086Y-16571984D02*
X10921086Y-16438650D01*
X10921086Y-16457698D02*
X10930610Y-16448174D01*
X10930610Y-16448174D02*
X10949658Y-16438650D01*
X10949658Y-16438650D02*
X10978229Y-16438650D01*
X10978229Y-16438650D02*
X10997277Y-16448174D01*
X10997277Y-16448174D02*
X11006801Y-16467222D01*
X11006801Y-16467222D02*
X11006801Y-16571984D01*
X11006801Y-16467222D02*
X11016325Y-16448174D01*
X11016325Y-16448174D02*
X11035372Y-16438650D01*
X11035372Y-16438650D02*
X11063944Y-16438650D01*
X11063944Y-16438650D02*
X11082991Y-16448174D01*
X11082991Y-16448174D02*
X11092515Y-16467222D01*
X11092515Y-16467222D02*
X11092515Y-16571984D01*
X11482991Y-16362460D02*
X11311563Y-16619603D01*
X11740134Y-16371984D02*
X11759182Y-16371984D01*
X11759182Y-16371984D02*
X11778229Y-16381508D01*
X11778229Y-16381508D02*
X11787753Y-16391031D01*
X11787753Y-16391031D02*
X11797277Y-16410079D01*
X11797277Y-16410079D02*
X11806801Y-16448174D01*
X11806801Y-16448174D02*
X11806801Y-16495793D01*
X11806801Y-16495793D02*
X11797277Y-16533888D01*
X11797277Y-16533888D02*
X11787753Y-16552936D01*
X11787753Y-16552936D02*
X11778229Y-16562460D01*
X11778229Y-16562460D02*
X11759182Y-16571984D01*
X11759182Y-16571984D02*
X11740134Y-16571984D01*
X11740134Y-16571984D02*
X11721086Y-16562460D01*
X11721086Y-16562460D02*
X11711563Y-16552936D01*
X11711563Y-16552936D02*
X11702039Y-16533888D01*
X11702039Y-16533888D02*
X11692515Y-16495793D01*
X11692515Y-16495793D02*
X11692515Y-16448174D01*
X11692515Y-16448174D02*
X11702039Y-16410079D01*
X11702039Y-16410079D02*
X11711563Y-16391031D01*
X11711563Y-16391031D02*
X11721086Y-16381508D01*
X11721086Y-16381508D02*
X11740134Y-16371984D01*
X11892515Y-16552936D02*
X11902039Y-16562460D01*
X11902039Y-16562460D02*
X11892515Y-16571984D01*
X11892515Y-16571984D02*
X11882991Y-16562460D01*
X11882991Y-16562460D02*
X11892515Y-16552936D01*
X11892515Y-16552936D02*
X11892515Y-16571984D01*
X12025848Y-16371984D02*
X12044896Y-16371984D01*
X12044896Y-16371984D02*
X12063944Y-16381508D01*
X12063944Y-16381508D02*
X12073467Y-16391031D01*
X12073467Y-16391031D02*
X12082991Y-16410079D01*
X12082991Y-16410079D02*
X12092515Y-16448174D01*
X12092515Y-16448174D02*
X12092515Y-16495793D01*
X12092515Y-16495793D02*
X12082991Y-16533888D01*
X12082991Y-16533888D02*
X12073467Y-16552936D01*
X12073467Y-16552936D02*
X12063944Y-16562460D01*
X12063944Y-16562460D02*
X12044896Y-16571984D01*
X12044896Y-16571984D02*
X12025848Y-16571984D01*
X12025848Y-16571984D02*
X12006801Y-16562460D01*
X12006801Y-16562460D02*
X11997277Y-16552936D01*
X11997277Y-16552936D02*
X11987753Y-16533888D01*
X11987753Y-16533888D02*
X11978229Y-16495793D01*
X11978229Y-16495793D02*
X11978229Y-16448174D01*
X11978229Y-16448174D02*
X11987753Y-16410079D01*
X11987753Y-16410079D02*
X11997277Y-16391031D01*
X11997277Y-16391031D02*
X12006801Y-16381508D01*
X12006801Y-16381508D02*
X12025848Y-16371984D01*
X12159182Y-16371984D02*
X12292515Y-16371984D01*
X12292515Y-16371984D02*
X12206801Y-16571984D01*
X12406801Y-16371984D02*
X12425848Y-16371984D01*
X12425848Y-16371984D02*
X12444896Y-16381508D01*
X12444896Y-16381508D02*
X12454420Y-16391031D01*
X12454420Y-16391031D02*
X12463944Y-16410079D01*
X12463944Y-16410079D02*
X12473467Y-16448174D01*
X12473467Y-16448174D02*
X12473467Y-16495793D01*
X12473467Y-16495793D02*
X12463944Y-16533888D01*
X12463944Y-16533888D02*
X12454420Y-16552936D01*
X12454420Y-16552936D02*
X12444896Y-16562460D01*
X12444896Y-16562460D02*
X12425848Y-16571984D01*
X12425848Y-16571984D02*
X12406801Y-16571984D01*
X12406801Y-16571984D02*
X12387753Y-16562460D01*
X12387753Y-16562460D02*
X12378229Y-16552936D01*
X12378229Y-16552936D02*
X12368706Y-16533888D01*
X12368706Y-16533888D02*
X12359182Y-16495793D01*
X12359182Y-16495793D02*
X12359182Y-16448174D01*
X12359182Y-16448174D02*
X12368706Y-16410079D01*
X12368706Y-16410079D02*
X12378229Y-16391031D01*
X12378229Y-16391031D02*
X12387753Y-16381508D01*
X12387753Y-16381508D02*
X12406801Y-16371984D01*
X12568706Y-16571984D02*
X12606801Y-16571984D01*
X12606801Y-16571984D02*
X12625848Y-16562460D01*
X12625848Y-16562460D02*
X12635372Y-16552936D01*
X12635372Y-16552936D02*
X12654420Y-16524365D01*
X12654420Y-16524365D02*
X12663944Y-16486269D01*
X12663944Y-16486269D02*
X12663944Y-16410079D01*
X12663944Y-16410079D02*
X12654420Y-16391031D01*
X12654420Y-16391031D02*
X12644896Y-16381508D01*
X12644896Y-16381508D02*
X12625848Y-16371984D01*
X12625848Y-16371984D02*
X12587753Y-16371984D01*
X12587753Y-16371984D02*
X12568706Y-16381508D01*
X12568706Y-16381508D02*
X12559182Y-16391031D01*
X12559182Y-16391031D02*
X12549658Y-16410079D01*
X12549658Y-16410079D02*
X12549658Y-16457698D01*
X12549658Y-16457698D02*
X12559182Y-16476746D01*
X12559182Y-16476746D02*
X12568706Y-16486269D01*
X12568706Y-16486269D02*
X12587753Y-16495793D01*
X12587753Y-16495793D02*
X12625848Y-16495793D01*
X12625848Y-16495793D02*
X12644896Y-16486269D01*
X12644896Y-16486269D02*
X12654420Y-16476746D01*
X12654420Y-16476746D02*
X12663944Y-16457698D01*
X12740134Y-16371984D02*
X12740134Y-16410079D01*
X12816325Y-16371984D02*
X12816325Y-16410079D01*
X13111563Y-16648174D02*
X13102039Y-16638650D01*
X13102039Y-16638650D02*
X13082991Y-16610079D01*
X13082991Y-16610079D02*
X13073468Y-16591031D01*
X13073468Y-16591031D02*
X13063944Y-16562460D01*
X13063944Y-16562460D02*
X13054420Y-16514841D01*
X13054420Y-16514841D02*
X13054420Y-16476746D01*
X13054420Y-16476746D02*
X13063944Y-16429127D01*
X13063944Y-16429127D02*
X13073468Y-16400555D01*
X13073468Y-16400555D02*
X13082991Y-16381508D01*
X13082991Y-16381508D02*
X13102039Y-16352936D01*
X13102039Y-16352936D02*
X13111563Y-16343412D01*
X13178229Y-16391031D02*
X13187753Y-16381508D01*
X13187753Y-16381508D02*
X13206801Y-16371984D01*
X13206801Y-16371984D02*
X13254420Y-16371984D01*
X13254420Y-16371984D02*
X13273468Y-16381508D01*
X13273468Y-16381508D02*
X13282991Y-16391031D01*
X13282991Y-16391031D02*
X13292515Y-16410079D01*
X13292515Y-16410079D02*
X13292515Y-16429127D01*
X13292515Y-16429127D02*
X13282991Y-16457698D01*
X13282991Y-16457698D02*
X13168706Y-16571984D01*
X13168706Y-16571984D02*
X13292515Y-16571984D01*
X13406801Y-16457698D02*
X13387753Y-16448174D01*
X13387753Y-16448174D02*
X13378229Y-16438650D01*
X13378229Y-16438650D02*
X13368706Y-16419603D01*
X13368706Y-16419603D02*
X13368706Y-16410079D01*
X13368706Y-16410079D02*
X13378229Y-16391031D01*
X13378229Y-16391031D02*
X13387753Y-16381508D01*
X13387753Y-16381508D02*
X13406801Y-16371984D01*
X13406801Y-16371984D02*
X13444896Y-16371984D01*
X13444896Y-16371984D02*
X13463944Y-16381508D01*
X13463944Y-16381508D02*
X13473468Y-16391031D01*
X13473468Y-16391031D02*
X13482991Y-16410079D01*
X13482991Y-16410079D02*
X13482991Y-16419603D01*
X13482991Y-16419603D02*
X13473468Y-16438650D01*
X13473468Y-16438650D02*
X13463944Y-16448174D01*
X13463944Y-16448174D02*
X13444896Y-16457698D01*
X13444896Y-16457698D02*
X13406801Y-16457698D01*
X13406801Y-16457698D02*
X13387753Y-16467222D01*
X13387753Y-16467222D02*
X13378229Y-16476746D01*
X13378229Y-16476746D02*
X13368706Y-16495793D01*
X13368706Y-16495793D02*
X13368706Y-16533888D01*
X13368706Y-16533888D02*
X13378229Y-16552936D01*
X13378229Y-16552936D02*
X13387753Y-16562460D01*
X13387753Y-16562460D02*
X13406801Y-16571984D01*
X13406801Y-16571984D02*
X13444896Y-16571984D01*
X13444896Y-16571984D02*
X13463944Y-16562460D01*
X13463944Y-16562460D02*
X13473468Y-16552936D01*
X13473468Y-16552936D02*
X13482991Y-16533888D01*
X13482991Y-16533888D02*
X13482991Y-16495793D01*
X13482991Y-16495793D02*
X13473468Y-16476746D01*
X13473468Y-16476746D02*
X13463944Y-16467222D01*
X13463944Y-16467222D02*
X13444896Y-16457698D01*
X13721087Y-16571984D02*
X13721087Y-16371984D01*
X13806801Y-16571984D02*
X13806801Y-16467222D01*
X13806801Y-16467222D02*
X13797277Y-16448174D01*
X13797277Y-16448174D02*
X13778230Y-16438650D01*
X13778230Y-16438650D02*
X13749658Y-16438650D01*
X13749658Y-16438650D02*
X13730610Y-16448174D01*
X13730610Y-16448174D02*
X13721087Y-16457698D01*
X13930610Y-16571984D02*
X13911563Y-16562460D01*
X13911563Y-16562460D02*
X13902039Y-16552936D01*
X13902039Y-16552936D02*
X13892515Y-16533888D01*
X13892515Y-16533888D02*
X13892515Y-16476746D01*
X13892515Y-16476746D02*
X13902039Y-16457698D01*
X13902039Y-16457698D02*
X13911563Y-16448174D01*
X13911563Y-16448174D02*
X13930610Y-16438650D01*
X13930610Y-16438650D02*
X13959182Y-16438650D01*
X13959182Y-16438650D02*
X13978230Y-16448174D01*
X13978230Y-16448174D02*
X13987753Y-16457698D01*
X13987753Y-16457698D02*
X13997277Y-16476746D01*
X13997277Y-16476746D02*
X13997277Y-16533888D01*
X13997277Y-16533888D02*
X13987753Y-16552936D01*
X13987753Y-16552936D02*
X13978230Y-16562460D01*
X13978230Y-16562460D02*
X13959182Y-16571984D01*
X13959182Y-16571984D02*
X13930610Y-16571984D01*
X14111563Y-16571984D02*
X14092515Y-16562460D01*
X14092515Y-16562460D02*
X14082991Y-16543412D01*
X14082991Y-16543412D02*
X14082991Y-16371984D01*
X14263944Y-16562460D02*
X14244896Y-16571984D01*
X14244896Y-16571984D02*
X14206801Y-16571984D01*
X14206801Y-16571984D02*
X14187753Y-16562460D01*
X14187753Y-16562460D02*
X14178230Y-16543412D01*
X14178230Y-16543412D02*
X14178230Y-16467222D01*
X14178230Y-16467222D02*
X14187753Y-16448174D01*
X14187753Y-16448174D02*
X14206801Y-16438650D01*
X14206801Y-16438650D02*
X14244896Y-16438650D01*
X14244896Y-16438650D02*
X14263944Y-16448174D01*
X14263944Y-16448174D02*
X14273468Y-16467222D01*
X14273468Y-16467222D02*
X14273468Y-16486269D01*
X14273468Y-16486269D02*
X14178230Y-16505317D01*
X14349658Y-16562460D02*
X14368706Y-16571984D01*
X14368706Y-16571984D02*
X14406801Y-16571984D01*
X14406801Y-16571984D02*
X14425849Y-16562460D01*
X14425849Y-16562460D02*
X14435372Y-16543412D01*
X14435372Y-16543412D02*
X14435372Y-16533888D01*
X14435372Y-16533888D02*
X14425849Y-16514841D01*
X14425849Y-16514841D02*
X14406801Y-16505317D01*
X14406801Y-16505317D02*
X14378230Y-16505317D01*
X14378230Y-16505317D02*
X14359182Y-16495793D01*
X14359182Y-16495793D02*
X14349658Y-16476746D01*
X14349658Y-16476746D02*
X14349658Y-16467222D01*
X14349658Y-16467222D02*
X14359182Y-16448174D01*
X14359182Y-16448174D02*
X14378230Y-16438650D01*
X14378230Y-16438650D02*
X14406801Y-16438650D01*
X14406801Y-16438650D02*
X14425849Y-16448174D01*
X14502039Y-16648174D02*
X14511563Y-16638650D01*
X14511563Y-16638650D02*
X14530611Y-16610079D01*
X14530611Y-16610079D02*
X14540134Y-16591031D01*
X14540134Y-16591031D02*
X14549658Y-16562460D01*
X14549658Y-16562460D02*
X14559182Y-16514841D01*
X14559182Y-16514841D02*
X14559182Y-16476746D01*
X14559182Y-16476746D02*
X14549658Y-16429127D01*
X14549658Y-16429127D02*
X14540134Y-16400555D01*
X14540134Y-16400555D02*
X14530611Y-16381508D01*
X14530611Y-16381508D02*
X14511563Y-16352936D01*
X14511563Y-16352936D02*
X14502039Y-16343412D01*
M02*
